P3
75 50
255
61
69
71
61
69
71
61
69
71
43
48
46
43
48
46
43
48
46
43
48
46
27
29
25
27
29
25
21
22
18
21
22
18
21
22
18
30
32
19
30
32
19
30
32
19
44
51
23
62
69
31
62
69
31
73
83
37
73
83
37
87
98
44
87
98
44
87
98
44
99
111
52
99
111
52
103
116
54
106
117
54
106
117
54
106
117
54
106
117
54
107
118
57
106
115
54
106
115
54
106
115
54
104
112
55
104
112
55
104
111
58
104
111
58
100
107
52
100
107
52
100
107
52
97
105
47
97
105
47
97
105
46
97
105
46
97
105
46
99
105
47
98
106
45
98
106
45
98
106
45
98
106
43
98
106
43
100
107
43
100
107
43
102
108
45
101
107
42
101
107
42
101
107
42
100
106
42
100
106
42
98
104
43
92
98
41
92
98
41
89
94
39
89
94
39
89
94
39
89
94
39
89
94
39
89
94
42
80
85
36
80
85
36
80
85
36
80
85
36
67
72
31
67
72
31
61
69
71
61
69
71
49
57
57
43
48
46
43
48
46
43
48
46
43
48
46
27
29
25
27
29
25
21
22
18
21
22
18
21
22
18
30
32
19
30
32
19
44
51
23
44
51
23
60
70
31
60
70
31
72
83
38
72
83
38
87
98
44
87
98
44
87
98
44
99
111
52
99
111
52
103
116
54
106
117
54
106
117
54
106
117
54
106
117
54
107
118
57
107
118
57
108
118
58
106
115
54
104
112
55
107
116
60
104
111
58
104
111
58
104
111
58
102
108
57
101
107
56
99
106
52
99
106
52
100
107
51
100
107
51
102
110
52
99
105
47
99
105
47
98
106
45
100
105
46
100
105
46
98
106
43
100
107
43
101
108
45
102
108
45
102
108
45
103
109
46
103
109
47
100
106
42
98
104
43
98
104
43
92
98
41
92
98
41
90
95
41
89
94
39
89
94
39
89
94
39
89
94
42
89
94
42
86
93
42
80
85
36
80
85
36
80
85
36
67
72
31
67
72
31
61
69
71
61
69
71
49
57
57
49
57
57
37
41
38
37
41
38
37
41
38
25
26
22
25
26
22
25
26
22
21
22
18
21
22
18
35
38
23
35
38
23
44
51
23
53
61
28
60
70
31
60
70
31
72
83
38
72
83
38
86
99
46
86
99
46
86
99
46
99
111
52
103
116
54
103
116
54
103
116
54
106
117
54
106
117
54
107
119
57
107
118
57
107
118
57
108
118
58
108
118
58
107
116
60
107
116
60
107
116
60
106
113
61
106
113
61
103
110
60
103
111
59
103
111
58
101
109
55
100
107
51
102
110
52
102
110
52
102
110
52
102
108
50
102
108
50
99
105
46
99
105
46
99
105
46
99
107
46
101
108
45
101
108
45
102
108
47
103
109
46
103
109
47
102
106
48
98
104
43
99
103
47
92
98
41
92
98
41
90
95
41
91
96
44
91
96
44
89
94
42
89
94
42
86
93
42
86
93
42
86
93
42
77
83
37
77
83
37
70
76
33
67
72
31
61
69
71
55
63
65
49
57
57
49
57
57
37
41
38
37
41
38
37
41
38
25
26
22
25
26
22
25
26
22
25
26
22
30
32
23
35
38
23
35
38
23
35
38
23
53
61
28
53
61
28
67
78
37
67
78
37
78
89
43
78
89
43
86
99
46
86
99
46
99
111
52
103
116
54
103
116
54
103
116
54
105
119
58
105
119
58
107
119
57
107
119
57
107
118
57
108
118
58
108
118
58
110
120
61
110
120
61
110
120
61
108
117
61
108
117
61
107
115
62
103
111
59
103
111
58
104
113
58
104
114
58
106
116
56
102
110
52
102
110
52
102
108
50
107
116
55
101
108
48
101
108
48
101
108
48
98
107
47
98
106
46
98
107
46
102
108
47
103
108
48
102
106
48
102
106
48
102
106
48
99
103
47
96
100
46
96
100
46
91
96
44
91
96
44
89
96
45
89
96
45
88
95
45
86
93
42
86
93
42
80
86
39
77
83
37
70
77
34
70
77
34
63
67
29
55
63
65
55
63
65
49
57
57
42
46
45
42
46
45
37
41
38
33
35
30
33
35
30
25
26
22
25
26
22
30
31
23
30
32
23
30
32
23
35
38
23
47
53
28
56
65
32
56
65
32
66
77
38
66
77
38
75
87
43
78
89
43
85
98
45
85
98
45
90
105
47
100
116
53
100
116
53
100
116
53
105
119
58
105
119
58
106
119
58
107
119
57
109
121
59
109
121
59
109
121
59
110
121
61
110
120
61
110
120
61
108
117
61
111
121
62
107
115
62
109
118
62
107
117
60
104
113
58
104
114
58
106
116
56
106
116
56
107
116
55
107
116
55
107
116
55
104
113
52
101
108
48
101
108
48
98
107
47
100
108
48
101
109
47
103
110
48
103
108
48
103
108
48
102
106
48
102
106
48
99
103
47
96
100
46
96
100
46
91
96
44
89
96
45
89
96
45
88
95
45
88
95
45
86
93
45
80
86
39
80
86
39
80
86
39
72
78
35
63
69
31
63
67
29
49
57
56
49
57
56
49
57
56
49
57
56
42
46
45
40
42
38
33
35
30
33
34
28
28
29
24
28
29
24
30
31
23
30
31
23
30
32
23
49
53
32
49
53
32
57
64
35
61
71
37
67
77
41
67
77
41
75
87
43
75
87
43
85
98
45
90
105
47
90
105
47
90
105
47
100
116
53
103
117
56
103
117
56
105
119
58
106
119
58
105
119
57
106
120
58
109
121
59
111
122
61
110
121
61
110
121
61
111
123
62
111
121
62
111
121
62
109
118
62
109
118
62
107
117
60
107
117
60
107
118
59
109
120
58
109
120
58
110
121
56
107
116
55
107
116
55
108
118
55
105
116
52
105
116
52
103
114
50
100
108
48
101
109
47
103
110
48
104
111
50
105
109
51
105
109
51
105
109
51
99
103
50
99
103
50
99
103
50
99
103
50
89
95
46
89
95
46
89
95
46
86
93
45
86
93
45
82
89
43
80
86
39
68
74
33
68
74
33
63
69
31
63
69
31
52
58
57
52
58
57
49
57
56
43
47
43
43
47
43
40
42
38
39
41
35
33
34
28
28
29
24
28
29
24
30
31
23
30
31
23
44
46
32
49
53
32
49
53
32
57
64
35
61
71
37
67
77
41
67
77
41
75
87
43
78
92
41
78
92
41
90
105
47
90
105
47
94
109
49
94
109
49
102
118
56
102
118
56
102
118
56
105
119
57
105
119
57
106
120
58
107
122
57
111
123
61
110
121
61
111
122
61
111
123
62
111
123
62
110
121
61
110
121
61
109
118
62
107
119
60
107
118
59
107
118
59
109
120
58
109
120
58
110
121
56
110
121
56
108
118
55
108
118
55
105
116
52
106
118
52
103
114
50
103
112
48
103
112
48
104
111
51
104
111
50
105
109
51
105
109
51
104
109
53
104
109
53
99
103
50
99
103
50
97
102
51
89
95
46
89
95
46
89
95
46
86
93
46
82
90
45
82
89
43
75
82
39
75
82
39
68
74
33
68
74
33
55
62
27
52
58
57
52
58
57
52
58
57
47
50
45
43
47
43
43
46
39
39
41
35
36
37
31
36
37
31
38
39
29
38
39
29
44
46
32
44
46
32
44
46
32
49
53
32
61
69
40
61
69
40
61
69
40
71
83
42
71
83
42
78
92
41
78
92
41
83
98
42
94
109
49
94
109
49
94
109
49
102
118
56
102
118
56
102
118
56
103
118
56
104
118
57
107
122
57
107
122
57
109
123
60
109
123
60
111
122
61
111
123
62
109
120
59
110
121
61
110
121
61
110
121
61
107
119
60
107
118
59
108
119
58
108
119
58
109
120
58
110
121
56
110
121
56
108
122
55
108
122
55
106
118
52
106
118
52
105
117
51
104
114
50
104
114
50
104
112
52
104
111
52
104
111
52
104
111
52
104
109
53
104
109
53
104
109
53
97
102
51
97
102
51
97
102
51
89
96
47
86
93
46
86
93
46
82
90
45
82
90
45
75
82
39
68
75
36
68
75
36
55
62
27
55
62
27
53
58
56
49
55
51
47
52
49
47
50
45
43
46
39
43
46
39
43
46
39
36
37
31
38
39
29
38
39
29
38
39
29
44
46
32
44
46
32
53
55
39
57
62
41
61
69
40
61
69
40
66
77
42
71
83
42
71
83
42
78
92
41
83
98
42
83
98
42
91
106
45
94
109
49
98
114
51
98
114
51
102
118
56
103
118
56
103
118
56
104
118
57
104
118
57
109
123
60
109
123
60
110
118
52
110
118
52
109
120
59
109
120
59
109
120
59
110
121
61
107
118
59
105
119
60
105
117
59
105
118
57
105
118
57
107
121
56
107
121
56
107
121
56
108
122
55
108
122
55
108
122
55
108
120
53
105
117
51
104
114
50
104
114
50
104
112
52
104
111
52
105
113
54
104
112
53
104
109
53
104
109
53
104
109
53
97
102
51
97
102
51
97
102
51
89
96
47
89
96
47
86
93
46
82
90
45
78
86
44
68
75
36
68
75
36
68
75
36
56
63
29
55
62
27
53
58
56
49
55
51
47
52
47
46
48
42
46
48
42
43
46
39
42
43
35
39
40
31
39
40
31
38
39
29
38
39
29
50
50
37
53
55
39
53
55
39
57
62
41
57
62
41
66
77
42
66
77
42
66
77
42
72
85
42
74
89
38
83
98
42
87
104
42
87
104
42
95
111
47
97
113
50
99
116
53
104
119
54
103
118
56
104
114
49
104
118
57
104
118
57
125
124
38
125
124
38
110
118
52
142
141
55
142
141
55
109
120
59
111
119
59
105
116
58
107
118
59
102
116
58
101
115
55
105
118
57
102
116
54
102
116
54
107
121
56
107
121
56
108
122
55
108
122
55
108
122
55
108
120
53
105
117
51
105
117
51
105
117
51
106
116
55
106
116
55
105
113
54
104
112
53
104
112
53
101
108
53
101
108
53
96
104
53
97
102
51
89
96
47
89
96
47
89
96
47
89
96
47
78
86
44
78
86
44
78
86
44
64
73
35
64
73
35
56
63
29
49
57
26
45
50
45
45
50
45
47
50
45
46
48
42
46
48
42
42
43
35
42
43
35
42
43
32
45
45
34
45
45
34
50
50
37
50
50
37
50
50
37
53
55
39
61
64
43
61
64
43
67
74
45
67
74
45
73
83
46
73
85
43
74
89
38
74
89
38
87
104
42
87
104
42
95
111
47
97
113
50
99
116
53
104
119
54
104
114
49
104
114
49
104
114
49
104
114
49
125
124
38
125
124
38
125
124
38
142
141
55
175
164
55
175
164
55
111
119
59
105
116
58
105
116
58
102
116
58
101
115
55
101
115
55
102
116
54
102
116
54
100
114
52
100
114
52
99
114
51
108
122
55
105
117
52
105
117
52
105
117
51
105
117
51
105
117
54
105
117
54
106
116
55
105
114
55
104
112
53
102
110
54
101
108
53
99
107
54
96
104
53
96
104
53
89
96
47
89
96
47
89
96
47
83
91
48
83
91
48
74
83
43
74
83
43
64
73
35
56
66
32
56
66
32
49
57
26
45
50
45
45
47
42
45
47
42
40
42
36
40
42
36
43
45
35
43
45
35
46
46
34
45
45
34
45
45
34
54
55
40
54
55
40
54
55
40
60
63
44
60
63
44
60
63
44
69
73
45
74
80
47
73
83
46
73
85
43
84
95
46
88
100
45
92
106
46
92
106
46
96
112
48
96
112
48
115
124
61
115
124
63
110
119
59
104
114
49
104
114
49
104
114
49
125
124
38
125
124
38
167
159
74
167
159
74
175
164
55
169
158
54
169
158
54
105
116
58
105
116
58
102
116
58
101
115
55
101
115
55
102
116
54
100
114
52
100
114
52
100
114
52
99
114
51
99
114
51
105
117
52
105
117
52
105
117
52
101
113
49
105
117
54
105
117
54
105
117
54
105
114
55
105
114
55
102
110
54
98
108
53
94
103
51
93
102
50
93
102
50
88
99
49
88
99
49
83
91
48
83
91
48
83
91
48
70
80
42
70
80
42
70
80
42
56
66
32
47
57
27
47
57
27
45
50
45
37
39
34
37
39
34
40
42
36
40
42
36
46
46
36
46
46
36
46
46
34
46
46
34
53
52
39
54
55
40
54
55
40
58
58
44
58
58
44
60
63
44
66
70
46
69
73
45
74
80
47
82
89
48
82
89
48
84
95
46
88
100
45
88
100
45
92
106
46
105
118
55
105
118
55
115
124
61
115
124
63
110
119
59
127
124
44
127
124
44
127
124
44
156
147
45
156
147
45
167
159
74
128
121
33
138
131
49
119
126
109
119
126
109
119
126
109
119
126
109
98
111
53
98
111
53
95
110
49
95
110
49
95
110
49
100
114
52
99
114
51
99
114
51
99
114
51
96
110
48
98
111
48
101
113
49
101
113
49
105
117
54
105
117
54
99
113
51
99
113
51
96
110
50
98
108
53
98
108
53
94
103
51
93
102
50
88
99
49
88
99
49
88
99
49
83
91
48
83
91
48
83
91
48
69
80
41
69
80
41
69
80
41
54
66
32
54
66
32
47
57
27
37
39
34
37
39
34
37
39
34
39
41
34
39
41
34
46
46
36
46
46
36
46
46
36
53
52
39
53
52
39
53
52
39
59
57
43
59
57
43
62
63
44
62
63
44
66
70
46
79
83
49
79
83
49
82
89
48
90
97
52
84
95
46
88
100
45
105
113
74
105
118
55
105
118
55
105
118
55
115
124
61
115
124
63
146
147
81
149
147
70
149
147
70
152
147
59
156
147
45
156
147
45
156
147
45
128
121
33
138
131
49
138
131
49
119
126
109
109
118
90
109
118
90
98
111
53
98
111
53
98
111
53
95
110
49
95
110
49
94
110
46
93
109
46
99
114
51
92
107
44
96
110
48
98
111
48
101
113
49
101
113
49
97
111
48
99
113
51
99
113
51
99
113
51
96
110
50
96
110
50
92
104
49
92
104
49
90
100
48
90
100
48
88
99
49
85
96
48
85
96
48
81
93
48
73
85
44
73
85
44
73
85
44
61
75
38
54
66
32
49
62
28
42
54
25
36
39
33
36
39
33
36
39
33
39
41
34
39
41
34
43
44
35
46
46
36
54
53
40
54
53
40
54
53
40
54
53
40
59
58
44
59
57
43
66
66
45
66
66
45
84
85
52
79
83
49
79
83
49
90
94
53
90
97
52
99
107
59
99
107
59
105
113
74
105
113
74
134
136
103
134
136
103
115
124
61
146
147
81
146
147
81
149
147
70
152
147
59
152
147
59
156
147
45
156
147
45
156
149
53
128
121
33
96
108
48
96
108
48
97
109
50
109
118
90
109
118
90
98
111
53
98
111
53
98
111
53
95
110
49
95
110
49
94
110
46
93
109
46
88
105
41
92
107
44
89
104
42
89
104
42
90
105
43
90
105
43
97
111
48
97
111
48
99
113
51
99
113
51
96
110
50
96
110
50
92
104
49
92
104
49
90
100
48
87
100
48
85
96
48
85
96
48
81
93
48
81
93
48
81
93
48
73
85
44
73
85
44
58
72
36
58
72
36
49
62
28
42
54
25
38
41
36
36
39
33
36
39
33
39
42
35
43
44
35
43
44
35
43
44
35
53
52
39
53
52
39
54
53
40
59
57
44
59
58
44
62
61
44
70
69
47
70
69
47
84
85
52
84
85
52
90
94
53
90
94
53
99
104
63
99
107
59
99
107
59
105
113
74
106
107
97
134
136
103
134
136
103
119
121
105
119
121
105
119
121
105
119
121
105
113
113
86
128
126
69
128
126
69
156
149
53
156
149
53
156
149
53
96
108
48
96
108
48
97
109
50
94
106
46
94
106
46
93
105
43
98
111
53
98
111
53
95
110
49
90
105
42
90
105
42
88
104
39
88
105
41
88
105
41
89
104
42
90
105
43
90
105
43
90
105
43
89
106
42
89
106
42
89
106
42
92
107
46
92
107
46
92
107
46
91
106
49
87
100
48
87
100
48
87
100
48
87
100
48
81
93
48
81
93
48
81
93
48
72
87
45
72
87
45
72
87
45
58
72
36
50
65
30
50
65
30
40
54
25
38
41
36
38
41
36
38
41
35
38
41
35
43
44
35
43
44
35
44
45
34
53
52
39
53
52
39
53
52
39
59
57
44
59
57
44
62
61
44
73
73
48
73
73
48
84
85
52
84
85
52
99
104
63
99
104
63
99
104
63
113
114
92
113
114
92
141
143
123
141
143
123
141
143
123
134
135
113
119
121
105
119
121
105
119
121
105
119
121
105
113
113
86
154
157
154
154
157
154
113
114
91
156
149
53
156
149
53
96
108
48
92
102
41
92
102
41
92
102
41
88
99
38
93
105
43
88
101
38
88
101
38
88
101
38
90
105
42
90
105
42
88
104
39
88
104
39
92
107
51
83
100
38
83
100
38
86
102
40
86
102
40
89
106
42
89
106
42
89
104
44
89
104
44
92
107
46
91
106
49
91
106
49
91
106
49
87
100
48
87
100
48
84
98
47
84
98
47
83
97
48
78
94
49
78
94
49
70
86
43
70
86
43
58
73
35
50
65
30
40
54
25
40
54
25
38
41
36
38
41
36
40
42
35
40
42
35
40
42
35
44
45
34
44
45
34
44
45
34
53
52
39
57
56
42
59
57
44
62
61
46
62
61
46
75
75
49
75
75
49
86
86
52
84
85
52
92
94
57
99
104
63
99
104
63
113
114
92
113
114
92
118
119
82
118
119
82
134
135
113
134
135
113
114
115
86
134
136
128
134
136
128
134
136
128
136
139
132
154
157
154
140
142
138
140
142
138
152
146
59
152
146
59
91
100
41
91
100
41
92
102
41
92
102
41
88
99
38
82
93
34
88
101
38
88
101
38
84
99
36
84
99
36
84
99
36
88
104
39
92
107
51
92
107
51
92
107
51
83
100
38
80
98
36
80
98
36
78
95
37
83
99
41
83
99
41
89
104
44
91
108
49
91
106
49
91
106
49
91
106
49
90
105
49
84
98
47
84
98
47
83
97
48
83
97
48
78
94
49
78
94
49
73
88
44
67
83
40
58
73
35
58
73
35
40
54
25
40
54
25
41
44
39
41
44
39
40
42
35
40
42
35
40
41
35
44
45
34
44
45
34
44
45
34
53
52
39
53
52
39
57
55
42
58
57
43
67
66
46
75
75
49
86
86
52
86
86
52
92
94
57
92
94
57
97
98
81
97
98
81
113
114
92
110
109
67
110
109
67
118
119
82
134
135
113
145
142
96
114
115
86
114
115
86
134
136
128
134
136
128
136
139
132
136
139
132
140
142
138
140
142
138
152
146
59
98
103
45
91
100
41
91
100
41
88
97
38
83
93
35
79
88
33
82
93
34
82
93
34
88
101
38
84
99
36
84
99
36
84
99
36
80
95
34
92
107
51
92
107
51
92
107
51
141
145
90
80
98
36
80
98
36
78
95
37
78
95
37
83
99
41
89
104
47
91
108
49
93
108
51
93
108
51
90
105
49
90
105
49
90
105
49
86
100
49
83
97
48
80
96
49
80
96
49
78
94
49
73
88
44
58
73
35
58
73
35
58
73
35
39
52
24
39
52
24
41
44
39
42
44
39
42
44
39
40
41
35
40
41
35
40
41
35
38
39
30
38
39
30
48
47
35
53
52
39
57
55
42
58
57
43
67
66
46
67
66
46
86
86
52
86
86
52
92
94
57
92
94
57
97
98
81
97
98
81
97
98
81
110
109
67
110
109
67
122
121
66
133
130
67
145
142
96
149
146
82
114
115
86
110
108
48
110
108
48
61
62
38
61
62
38
73
77
36
81
85
36
81
85
36
98
103
45
91
100
41
88
97
38
88
97
38
83
93
35
79
88
33
75
85
31
75
85
31
75
85
31
72
84
30
72
84
30
80
95
34
80
95
34
80
95
34
89
101
48
141
145
90
141
145
90
141
145
90
142
145
85
78
95
37
78
95
37
85
99
44
85
99
44
85
99
44
93
108
51
93
108
51
90
105
49
90
105
49
90
105
49
86
100
49
86
100
49
78
94
47
78
94
47
78
94
47
70
85
43
58
73
35
58
73
35
58
73
35
39
52
24
39
52
24
42
44
39
42
44
39
42
44
39
39
40
34
39
40
34
39
40
34
38
39
30
38
39
30
48
47
35
48
47
35
57
56
40
57
56
40
57
56
40
77
78
60
77
78
60
77
78
60
78
80
61
78
80
61
97
98
81
97
98
81
97
98
81
110
109
67
110
109
67
122
121
66
133
130
67
145
142
96
149
146
82
145
142
60
110
108
48
110
108
48
61
62
38
69
71
25
73
77
36
73
77
36
81
85
36
81
85
36
92
100
44
92
100
44
92
100
44
80
89
36
79
88
33
75
85
31
69
78
29
68
76
28
72
84
30
72
84
30
72
84
30
80
95
34
89
101
48
89
101
48
153
143
105
153
143
105
142
145
85
142
145
85
142
145
85
78
95
37
85
99
44
85
99
44
87
101
47
87
101
47
87
101
47
90
105
49
90
105
49
88
102
50
86
100
49
86
100
49
78
94
47
78
94
47
73
89
45
70
85
43
60
74
36
60
74
36
60
74
36
44
57
27
39
52
24
48
50
45
44
46
41
44
46
41
40
42
37
34
35
30
34
35
30
38
39
30
38
39
30
48
47
35
53
53
41
53
53
41
53
53
41
53
53
41
77
78
60
77
78
60
77
78
60
73
76
64
73
76
64
73
76
64
73
76
64
55
59
34
94
96
54
157
160
93
157
160
93
114
117
49
114
117
49
145
142
60
145
142
60
145
142
60
97
102
44
97
102
44
69
71
25
73
77
36
98
106
52
98
106
52
98
106
52
92
100
44
92
100
44
93
101
46
80
89
36
80
89
36
69
78
29
69
78
29
68
76
28
62
71
27
72
84
30
72
84
30
138
123
60
138
123
60
138
123
60
153
143
105
153
143
105
142
145
85
197
190
100
169
171
97
81
94
43
81
94
43
77
91
40
78
92
42
87
101
47
88
103
49
88
103
49
88
102
50
88
102
50
88
102
50
88
102
50
76
91
47
76
91
47
73
89
45
70
85
43
60
74
36
56
71
34
56
71
34
44
57
27
44
57
27
51
53
47
44
46
41
42
44
39
40
42
37
34
35
30
34
35
30
34
35
30
38
37
29
38
37
29
38
37
29
64
64
55
53
53
41
53
53
41
91
93
84
77
78
60
77
78
60
73
76
64
73
76
64
73
76
64
55
59
34
55
59
34
94
96
54
157
160
93
157
160
93
114
117
49
114
117
49
144
142
65
144
142
65
99
103
45
99
103
45
97
102
44
102
111
54
102
111
54
102
111
54
98
106
52
98
106
52
92
100
44
93
101
46
93
101
46
80
90
39
80
90
39
65
74
31
62
71
29
60
68
27
62
71
27
62
71
27
62
74
29
62
74
29
138
123
60
138
123
60
195
179
95
195
179
95
195
179
95
197
190
100
169
171
97
81
94
43
81
94
43
77
91
40
78
92
42
80
94
44
85
99
46
85
99
46
88
102
50
88
102
50
88
102
50
78
94
49
78
94
49
76
91
47
76
91
47
67
82
42
67
82
42
56
71
34
56
71
34
44
57
27
44
57
27
51
53
47
50
53
47
42
44
39
42
44
39
34
35
30
34
35
30
34
35
30
38
37
29
38
37
29
38
37
29
64
64
55
64
64
55
91
93
84
91
93
84
122
118
106
122
118
106
122
118
106
73
76
64
55
59
34
55
59
34
55
59
34
94
96
54
92
96
48
108
112
54
114
117
49
137
140
87
137
140
87
144
142
65
115
122
63
115
122
63
97
102
44
103
113
59
103
113
59
103
113
59
98
106
52
98
106
52
98
106
52
93
101
46
80
90
39
80
90
39
67
78
34
65
74
31
62
71
29
60
68
27
55
64
27
55
64
27
62
74
29
62
74
29
62
74
29
166
161
87
195
179
95
195
179
95
195
179
95
197
190
100
186
183
97
106
113
62
106
113
62
68
81
36
78
92
42
80
94
44
84
98
46
84
98
46
84
98
46
84
99
50
84
99
50
78
94
49
78
94
49
78
94
49
71
86
44
71
86
44
65
80
40
56
71
34
56
71
34
44
57
27
44
57
27
50
53
47
50
53
47
50
53
47
50
53
47
43
43
39
43
43
39
43
43
39
34
34
26
34
34
26
34
34
26
64
64
55
103
103
87
103
103
87
91
93
84
122
118
106
122
118
106
122
118
106
55
59
34
55
59
34
55
59
34
55
59
34
94
96
54
92
96
48
108
112
54
116
121
60
137
140
87
121
126
84
121
126
84
105
114
77
105
114
77
105
114
77
103
113
59
103
113
59
103
113
59
126
132
92
121
128
83
96
106
56
96
106
56
78
89
43
78
89
43
67
78
34
59
70
29
59
70
29
59
70
29
55
64
27
55
64
27
55
64
27
62
74
29
166
161
87
166
161
87
166
161
87
205
198
113
205
198
113
186
183
97
186
183
97
106
113
62
106
113
62
68
81
36
68
81
36
78
92
44
78
92
44
78
92
44
78
92
44
84
99
50
84
99
50
81
96
50
78
94
49
78
94
49
76
92
48
71
86
44
65
80
40
65
80
40
59
74
36
44
57
27
41
54
26
50
53
47
50
53
47
50
53
47
47
47
42
43
43
39
43
43
39
136
126
116
128
118
107
128
118
107
128
118
107
128
118
107
105
100
89
105
100
89
58
57
42
79
78
52
79
78
52
70
75
39
74
80
40
74
80
40
74
80
40
77
83
41
77
83
41
77
83
41
66
70
43
66
70
43
66
70
43
121
126
84
86
93
66
105
114
77
91
97
91
134
134
114
117
125
79
117
125
79
117
125
79
126
132
92
121
128
83
121
128
83
96
106
56
96
106
56
78
89
43
78
89
43
61
72
32
61
72
32
57
68
31
53
63
28
53
63
28
141
142
82
141
142
82
166
161
87
166
161
87
202
192
88
205
198
113
205
198
113
160
158
91
160
158
91
106
113
62
110
117
86
68
81
36
69
82
38
69
82
38
78
92
44
78
92
44
78
92
44
84
99
50
84
99
50
82
95
49
79
95
49
79
95
49
76
92
48
74
90
46
68
83
42
68
83
42
59
74
36
49
64
29
41
54
26
50
53
47
50
53
47
47
47
42
47
47
42
43
43
39
43
43
39
136
126
116
136
126
116
59
56
49
128
118
107
128
118
107
105
100
89
58
57
42
58
57
42
79
78
52
79
78
52
70
75
39
74
80
40
74
80
40
74
80
40
77
83
41
77
83
41
109
117
61
109
117
61
66
70
43
89
96
58
89
96
58
96
104
74
96
104
74
91
97
91
134
134
114
134
134
114
117
125
79
152
148
129
126
132
92
121
128
83
121
128
83
96
106
56
96
106
56
96
106
56
70
82
43
62
73
36
62
73
36
57
69
33
53
63
28
53
63
28
141
142
82
141
142
82
141
142
82
221
215
119
221
215
119
205
198
113
160
158
91
160
158
91
160
158
91
144
145
101
110
117
86
110
117
86
70
82
38
70
82
38
70
82
38
70
82
38
79
92
47
82
95
48
82
95
48
82
95
49
79
95
49
79
95
49
76
92
48
74
90
46
68
83
42
59
74
36
59
74
36
49
64
29
41
54
26
77
76
67
77
76
67
47
47
42
47
47
42
43
43
39
164
154
146
136
126
116
136
126
116
59
56
49
59
56
49
59
56
49
33
33
25
33
33
25
58
57
42
59
61
33
59
61
33
70
75
39
72
79
38
74
80
40
79
87
42
95
103
51
95
103
51
109
117
61
120
131
71
120
131
71
89
96
58
124
136
76
96
104
74
113
125
73
91
97
91
134
134
114
115
126
81
152
148
129
152
148
129
126
132
92
121
128
83
121
128
83
113
119
82
113
119
82
113
119
82
70
82
43
70
82
43
64
75
39
57
69
33
54
63
32
54
63
32
141
142
82
141
142
82
141
142
82
195
190
85
195
190
85
207
203
107
207
203
107
160
158
91
144
145
101
144
145
101
110
117
86
110
117
86
65
77
35
70
82
38
70
82
38
110
115
79
79
92
47
79
92
47
81
94
48
81
94
48
125
127
91
119
122
91
119
122
91
125
128
95
125
128
95
59
74
36
59
74
36
49
65
28
83
85
62
77
76
67
77
76
67
77
76
67
183
170
161
183
170
161
164
154
146
47
45
40
47
45
40
59
56
49
59
56
49
59
56
49
33
33
25
33
33
25
44
47
27
44
47
27
44
47
27
62
68
34
72
79
38
66
74
34
79
87
42
79
87
42
95
103
51
111
123
69
120
131
71
123
135
75
122
136
76
124
136
76
121
134
76
113
125
73
114
128
74
114
128
74
115
126
81
115
126
81
111
118
83
111
118
83
111
118
83
136
133
112
136
133
112
113
119
82
113
119
82
70
82
43
70
82
43
64
75
39
63
74
38
57
66
35
57
66
35
106
107
51
106
107
51
147
148
58
147
148
58
195
190
85
193
191
90
214
211
112
169
167
76
144
145
101
144
148
129
110
117
86
110
117
86
65
77
35
65
77
35
110
115
79
110
115
79
110
115
79
107
109
79
140
140
112
125
127
91
125
127
91
119
122
91
119
122
91
125
128
95
125
128
95
125
128
95
134
131
111
89
90
70
83
85
62
144
134
124
144
134
124
111
105
94
111
105
94
49
48
44
49
48
44
47
45
40
24
25
20
24
25
20
24
25
20
24
25
20
31
31
22
31
31
22
31
31
22
41
45
26
41
45
26
56
63
31
56
63
31
66
74
34
79
87
42
88
99
52
88
99
52
111
123
69
118
131
75
123
135
75
122
136
76
119
134
76
121
134
76
114
129
74
114
129
74
112
126
72
115
126
81
110
124
72
110
124
72
111
118
83
103
118
70
103
118
70
136
133
112
136
133
112
99
109
76
150
148
130
150
148
130
150
148
130
63
74
38
57
66
35
106
107
51
106
107
51
106
107
51
147
148
58
147
148
58
120
126
51
193
191
90
214
211
112
164
162
92
164
162
92
144
148
129
144
148
129
115
117
94
115
117
94
115
117
94
136
135
115
110
115
79
110
115
79
107
109
79
140
140
112
126
131
100
151
144
132
119
122
91
119
122
91
99
104
76
99
104
76
111
108
85
134
131
111
89
90
70
89
90
70
121
113
104
144
134
124
111
105
94
42
43
38
42
43
38
23
23
22
23
23
22
24
25
20
24
25
20
24
25
20
24
25
20
31
31
22
31
31
22
31
31
22
41
45
26
44
48
26
50
58
27
50
58
27
66
74
34
88
99
52
88
99
52
102
114
65
111
123
69
118
131
75
118
131
75
118
133
76
119
134
76
119
134
76
114
129
74
114
129
74
112
126
72
112
127
74
113
127
75
111
126
75
111
126
75
103
118
70
103
118
70
98
115
71
99
109
76
99
109
76
99
109
76
150
143
129
150
143
129
107
112
86
124
121
103
106
107
51
106
107
51
106
107
51
67
71
46
120
126
51
120
126
51
92
102
20
127
132
36
164
162
92
85
91
31
67
73
42
67
73
42
115
117
94
115
117
94
103
111
79
136
135
115
136
135
115
76
90
45
76
90
45
76
90
45
126
131
100
78
94
48
78
94
48
64
80
38
64
80
38
99
104
76
55
69
32
46
61
27
46
61
27
37
49
23
63
67
51
63
67
51
51
53
41
51
53
41
31
31
28
23
23
22
21
21
18
21
21
18
21
21
17
24
25
20
24
25
20
31
31
22
31
31
22
35
40
23
40
47
25
40
47
25
54
65
29
54
65
29
54
65
29
97
111
62
97
111
62
97
111
62
97
111
62
115
130
73
118
133
76
118
133
76
118
133
76
117
133
76
117
133
76
117
133
76
115
132
77
112
127
74
113
127
75
111
126
75
110
127
78
110
127
78
98
115
71
98
115
71
98
115
71
99
109
76
85
98
61
85
98
61
107
112
86
107
112
86
124
121
103
124
121
103
95
99
72
67
71
46
67
71
46
67
71
46
68
78
13
92
102
20
127
132
36
65
72
29
85
91
31
67
73
42
67
73
42
103
111
79
103
111
79
103
111
79
103
111
79
103
111
79
76
92
46
76
92
46
78
94
47
78
94
47
75
92
45
75
92
45
64
80
38
64
80
38
64
80
38
55
69
32
46
61
27
37
49
23
37
49
23
63
67
51
63
67
51
58
60
46
51
53
41
31
31
28
31
31
28
21
21
18
21
21
17
21
21
17
21
21
17
24
25
19
30
31
22
30
31
22
35
40
23
35
40
23
40
47
25
54
65
29
54
65
29
54
65
29
93
107
59
93
107
59
97
111
62
97
111
62
115
130
73
115
130
73
119
133
75
119
133
75
117
133
76
117
133
76
117
133
76
115
132
77
115
132
77
118
135
81
117
136
82
110
127
78
110
127
78
98
115
71
98
115
71
98
115
71
99
109
76
85
98
61
85
98
61
107
112
86
80
93
58
124
121
103
95
99
72
95
99
72
81
89
83
67
71
46
49
55
27
49
55
27
49
55
27
38
41
15
65
72
29
65
72
29
67
73
42
67
73
42
85
99
59
85
99
59
85
99
59
85
99
59
77
93
48
78
94
49
76
92
46
79
96
47
79
96
47
75
92
45
66
83
38
66
83
38
58
75
34
58
75
34
44
59
25
44
59
25
44
59
25
37
49
23
63
67
51
58
60
46
58
60
46
42
43
34
42
43
34
26
26
22
17
18
15
17
18
15
17
18
15
19
20
16
19
20
16
24
25
19
30
31
22
30
31
22
35
40
23
57
68
32
57
68
32
57
68
32
57
68
32
93
107
59
93
107
59
93
107
59
111
125
71
111
125
71
115
130
73
119
133
75
119
136
76
119
136
76
117
133
76
117
133
76
115
132
77
119
136
81
118
135
81
117
136
82
117
136
82
115
133
83
115
133
83
98
115
71
108
125
78
104
119
74
98
109
68
98
109
68
98
109
68
89
99
63
94
101
63
85
93
60
95
99
72
79
89
54
71
78
50
71
78
50
49
55
27
47
52
35
47
52
35
65
72
29
65
72
29
101
105
75
109
114
84
76
91
50
76
91
50
85
99
59
78
94
52
77
93
48
78
94
49
79
96
47
79
96
47
79
96
47
66
84
37
66
84
37
66
84
37
58
75
32
58
75
32
44
59
25
44
59
25
44
59
25
33
43
20
60
65
47
60
65
47
60
65
47
42
43
34
26
26
22
26
26
22
17
18
15
17
18
15
16
16
14
19
20
16
19
20
16
22
23
18
24
25
19
30
31
22
43
52
24
43
52
24
69
79
37
69
79
37
69
79
37
100
112
61
100
112
61
100
112
61
113
127
68
116
131
73
116
131
73
122
138
75
119
136
76
119
136
76
125
144
82
125
144
82
122
140
82
123
142
83
128
147
87
128
147
87
128
147
87
115
133
83
115
133
83
115
133
83
108
125
78
104
119
74
104
119
74
98
109
68
98
109
68
98
109
68
94
101
63
94
101
63
90
96
60
90
96
60
90
96
60
71
78
50
75
84
51
75
84
51
75
84
51
75
84
51
101
105
75
101
105
75
109
114
84
76
91
50
76
91
50
76
91
50
78
94
52
77
93
48
78
94
49
81
100
51
81
100
51
73
93
45
73
93
45
66
84
37
66
84
37
58
75
32
58
75
32
47
63
25
44
59
25
33
43
20
33
43
20
63
68
46
63
68
46
47
51
35
47
51
35
26
26
22
26
26
22
16
16
14
16
16
14
16
16
14
19
20
16
19
20
16
22
23
18
22
23
18
29
32
20
43
52
24
43
52
24
69
79
37
69
79
37
93
104
53
93
104
53
103
115
61
113
127
68
113
127
68
113
127
68
122
138
75
122
138
75
122
138
75
122
138
75
125
144
82
125
144
82
125
144
82
128
147
87
128
147
87
128
147
87
128
147
87
115
133
83
115
133
83
115
133
83
108
125
78
104
119
74
104
119
74
98
109
68
98
109
68
98
109
68
94
101
63
99
102
63
99
102
63
90
96
60
90
96
60
90
96
60
87
94
56
87
94
56
75
84
51
79
90
51
101
105
75
101
105
75
109
114
84
136
136
110
112
120
85
112
120
85
98
111
71
98
111
71
82
101
54
81
100
52
81
100
52
73
93
45
68
88
41
68
88
41
68
88
41
58
75
32
47
63
25
47
63
25
47
63
25
33
43
20
33
43
20
63
68
46
63
68
46
47
51
35
47
51
35
33
35
24
20
20
16
15
15
13
16
16
14
16
16
14
19
20
16
18
19
15
22
23
18
29
32
20
29
32
20
38
44
21
61
70
30
61
70
30
88
97
47
93
104
53
93
104
53
103
115
61
111
125
65
113
127
68
113
127
68
122
138
75
122
138
75
122
138
75
128
146
78
125
144
82
125
144
82
125
144
82
128
147
87
128
147
87
128
147
87
125
144
86
125
144
86
125
144
86
125
144
86
108
125
78
104
119
74
104
119
74
113
124
72
98
109
68
105
111
68
105
111
68
105
111
68
105
111
68
90
96
60
90
96
60
87
94
56
87
94
56
87
94
56
93
100
59
90
99
58
88
99
56
87
100
56
88
103
57
136
136
110
112
120
85
119
125
95
98
111
71
98
111
71
82
101
54
82
101
54
81
100
52
76
98
51
68
88
41
68
88
41
63
81
35
63
81
35
47
64
25
47
64
25
47
64
25
32
43
18
32
43
18
58
66
41
58
66
41
49
54
33
33
35
24
33
35
24
20
20
16
15
15
13
15
15
13
16
17
14
16
17
14
18
19
15
23
23
17
29
32
20
38
44
21
38
44
21
61
70
30
61
70
30
88
97
47
88
97
47
100
111
54
106
119
59
111
125
65
111
125
65
113
127
68
122
138
75
122
138
75
128
146
78
128
146
78
128
146
78
134
154
86
134
154
86
134
154
86
128
147
87
133
152
88
133
152
88
125
144
86
125
144
86
115
131
76
115
131
76
115
131
76
113
124
72
113
124
72
112
120
71
112
120
71
105
111
68
105
111
68
105
111
68
106
113
66
106
113
66
101
108
63
99
106
61
99
106
61
93
100
59
90
99
58
88
99
56
87
100
56
88
103
57
88
103
57
119
125
95
119
125
95
98
111
71
109
121
81
109
121
81
82
101
54
82
101
54
76
98
51
75
95
48
63
81
35
63
81
35
63
81
35
47
64
25
47
64
25
32
43
18
32
43
18
32
43
18
58
68
36
58
66
41
49
54
33
33
35
24
24
25
18
20
20
16
15
15
13
15
15
13
15
15
13
16
17
14
19
20
14
23
23
17
23
23
17
38
44
21
45
54
24
65
74
31
65
74
31
84
94
42
88
97
47
100
111
54
106
119
59
106
119
59
116
132
65
116
132
65
116
132
65
128
146
78
128
146
78
128
146
78
128
146
78
134
154
86
134
154
86
134
154
86
133
153
83
133
152
88
133
152
88
133
152
88
118
137
76
115
131
76
115
131
76
115
131
76
113
124
72
113
124
72
112
120
71
112
120
71
112
120
69
112
120
69
112
120
69
106
113
66
106
113
66
101
108
63
101
108
63
99
106
61
99
106
61
99
111
61
99
111
61
99
111
61
96
111
59
88
103
57
97
112
67
97
112
67
97
112
67
97
112
67
109
121
81
83
105
54
83
105
54
75
95
48
75
95
48
75
95
48
63
81
35
63
81
35
48
66
24
48
66
24
33
46
18
32
43
18
32
43
18
58
68
36
58
68
36
40
46
27
40
46
27
24
25
18
24
25
18
15
15
13
15
15
13
15
15
13
17
17
13
19
20
14
19
20
14
34
37
20
34
37
20
48
56
23
65
74
31
71
81
33
84
94
42
95
106
48
95
106
48
106
119
59
116
132
65
116
132
65
116
132
65
116
132
65
128
146
78
128
146
78
130
150
76
130
150
76
134
155
81
134
155
81
133
153
83
133
153
83
133
153
83
133
152
88
118
137
76
118
137
76
118
137
76
114
131
70
118
132
72
113
124
72
113
124
72
117
127
72
117
127
72
115
125
71
112
120
69
112
120
69
106
113
66
112
121
66
112
121
66
108
116
65
106
115
63
106
115
63
99
111
61
99
111
61
96
111
59
96
111
59
96
111
59
97
112
67
97
112
67
97
112
67
97
112
67
115
120
80
115
120
80
115
120
80
75
95
48
75
95
48
65
84
38
65
84
38
65
84
38
48
66
24
48
66
24
33
46
18
33
46
18
33
46
18
58
68
36
42
49
24
42
49
24
42
49
24
24
25
18
15
15
11
15
15
11
15
15
13
15
15
13
17
17
13
17
17
13
25
27
17
25
27
17
34
37
20
48
56
23
71
81
33
71
81
33
71
81
33
95
106
48
95
106
48
103
117
52
116
132
65
116
132
65
121
139
65
121
139
65
121
139
65
130
150
76
130
150
76
130
150
76
134
155
81
134
155
81
133
153
80
133
153
83
133
153
83
133
153
83
118
137
76
118
137
76
114
131
70
114
131
70
118
132
72
118
132
72
117
127
72
117
127
72
117
127
72
115
125
71
115
125
71
112
120
69
106
113
66
112
121
66
112
121
66
114
124
66
111
123
63
111
123
63
110
125
64
102
119
62
102
119
62
102
119
62
102
119
62
92
114
58
92
114
58
92
114
58
92
114
58
90
114
55
115
120
80
115
120
80
100
110
68
100
110
68
65
84
38
65
84
38
65
84
38
48
66
24
48
66
24
33
46
18
24
31
14
24
31
14
58
68
36
42
49
24
42
49
24
42
49
24
25
27
16
25
27
16
15
15
11
15
15
11
16
16
14
16
16
14
19
19
16
19
19
16
25
27
17
38
41
20
53
61
24
71
81
33
71
81
33
85
95
39
95
106
48
103
117
52
103
117
52
103
117
52
112
130
58
121
139
65
121
139
65
118
139
59
130
150
76
130
150
76
130
150
76
134
155
81
133
154
77
133
153
80
133
153
80
122
142
70
133
153
83
114
132
69
114
132
69
114
132
69
114
131
70
118
132
72
118
132
72
120
131
71
120
131
71
120
131
71
117
128
69
117
128
69
117
128
69
112
121
66
112
121
66
114
124
66
114
124
66
111
123
63
110
125
64
110
125
64
110
125
64
102
119
62
102
119
62
101
124
60
95
119
58
95
119
58
95
119
58
93
117
57
90
114
55
89
108
54
89
108
54
100
110
68
100
110
68
63
83
37
63
83
37
63
83
37
48
66
24
34
48
18
34
48
18
24
31
14
24
31
14
46
58
22
42
49
24
42
49
24
25
27
16
25
27
16
14
15
11
14
15
11
14
15
11
16
16
14
16
16
14
18
18
16
21
22
17
28
30
18
38
41
20
53
61
24
53
61
24
71
83
31
84
96
38
84
96
38
103
117
52
103
117
52
103
117
52
112
130
58
121
139
65
118
139
59
118
139
59
121
143
63
126
147
70
126
147
70
126
147
70
128
149
73
124
144
71
122
142
70
122
142
70
111
132
62
109
130
62
114
132
69
114
132
69
114
132
69
119
134
71
119
134
71
120
131
71
120
131
71
120
131
71
117
128
69
117
128
69
117
128
69
117
129
65
117
129
64
117
129
64
115
129
65
115
129
65
115
129
65
110
125
64
110
125
64
110
129
63
106
127
61
101
124
60
101
124
60
95
119
58
95
119
58
93
117
57
90
114
55
89
108
54
89
108
54
100
110
68
100
110
68
59
75
34
59
75
34
59
75
34
59
75
34
34
48
18
34
48
18
24
31
14
24
31
14
46
58
22
46
58
22
27
33
16
25
27
16
25
27
16
14
15
11
14
15
11
14
15
11
16
16
14
18
18
14
18
18
14
20
21
16
28
30
18
38
41
20
52
60
22
52
60
22
71
83
31
84
96
38
87
100
40
87
100
40
97
112
45
106
123
52
106
123
52
118
139
59
118
139
59
118
139
59
121
143
63
121
143
63
126
147
70
121
142
65
121
142
65
124
144
71
122
142
70
111
132
62
111
132
62
109
130
62
112
132
64
112
132
64
119
134
71
119
134
71
119
134
71
119
134
71
120
132
69
120
132
69
120
132
69
117
129
65
117
129
65
117
129
62
117
129
64
117
129
64
117
129
64
116
131
64
115
130
63
115
130
63
110
129
63
110
129
63
106
127
61
101
124
60
101
124
60
96
122
57
96
122
57
96
122
57
92
116
55
86
110
51
86
110
51
77
96
46
77
96
46
127
128
100
59
75
34
59
75
34
59
75
34
34
48
18
34
48
18
23
32
13
23
32
13
46
58
22
46
58
22
27
33
16
27
33
16
27
33
16
14
15
11
14
15
11
14
14
12
14
14
12
14
14
12
18
18
14
21
22
17
32
35
18
32
35
18
52
60
22
58
68
24
58
68
24
87
100
40
87
100
40
97
112
45
97
112
45
106
123
52
106
123
52
107
125
50
118
139
59
118
139
59
121
143
63
121
143
63
121
143
63
121
142
65
121
142
65
113
133
62
113
133
62
109
130
61
109
130
61
109
130
62
112
132
64
112
132
64
114
131
64
118
133
68
118
133
68
118
133
68
120
132
69
120
132
69
120
132
69
117
129
65
117
129
65
117
129
62
117
129
62
117
131
62
117
131
62
116
131
64
115
130
63
113
130
61
113
130
61
109
130
61
106
127
61
101
124
60
101
124
60
96
122
57
96
122
57
94
119
54
94
119
54
86
110
51
76
100
42
76
100
42
76
100
42
127
128
100
127
128
100
59
75
34
59
75
34
23
32
13
23
32
13
23
32
13
23
32
13
46
58
22
46
58
22
27
33
16
27
33
16
27
33
16
27
33
16
14
14
12
14
14
12
14
14
12
16
16
14
16
16
14
21
21
16
32
35
18
32
35
18
58
68
24
58
68
24
58
68
24
76
89
32
86
100
38
86
100
38
97
112
45
97
113
44
107
125
50
107
125
50
107
125
50
112
134
53
112
134
53
112
134
53
112
134
53
110
132
58
110
132
58
109
131
58
107
129
57
106
128
57
106
128
57
109
130
62
112
132
64
110
131
61
114
131
64
114
131
64
118
133
68
118
133
68
117
130
63
120
132
69
120
132
69
117
129
65
117
128
58
117
129
62
117
129
62
117
131
62
117
131
62
113
130
58
112
129
57
113
130
61
107
129
59
107
129
59
107
129
59
101
126
58
101
126
58
96
121
54
96
121
54
93
118
52
93
118
52
87
111
48
82
106
46
76
100
42
66
83
37
66
83
37
66
83
37
66
83
37
66
83
37
24
33
12
24
33
12
24
33
12
24
33
12
46
58
22
46
58
22
27
33
16
27
33
16
17
19
13
17
19
13
13
13
11
14
14
12
16
16
14
16
16
14
17
17
15
21
21
16
26
29
17
39
47
20
39
47
20
58
68
24
60
72
24
76
89
32
76
89
32
87
101
38
87
101
38
97
113
44
107
125
50
104
122
46
104
122
46
106
127
47
112
134
53
112
134
53
112
134
53
105
126
52
110
132
58
103
125
53
101
124
52
106
128
57
106
128
57
109
130
62
110
131
61
110
131
61
114
131
64
114
131
64
110
126
56
117
130
63
117
130
63
117
130
63
108
122
52
117
128
58
117
128
58
117
129
62
114
127
56
114
127
56
108
123
51
113
130
58
112
129
57
112
129
57
107
129
59
107
129
59
100
126
56
100
126
56
100
126
56
96
121
54
96
121
54
96
121
54
93
118
52
87
111
48
82
106
46
71
94
37
71
94
37
66
83
37
66
83
37
66
83
37
49
62
27
49
62
27
19
25
10
19
25
10
19
25
10
37
51
17
29
37
15
29
37
15
29
37
15
17
19
13
17
19
13
13
13
11
13
13
11
16
16
14
17
17
15
17
17
15
26
29
17
26
29
17
26
29
17
39
47
20
60
72
24
60
72
24
60
72
24
76
89
32
87
101
38
87
101
38
97
113
44
104
122
46
104
122
46
104
122
46
106
127
47
106
127
47
112
134
53
105
126
52
105
126
52
105
126
52
103
125
53
101
124
52
97
120
49
99
121
51
99
121
51
102
124
55
102
122
52
102
122
52
105
122
52
110
126
56
110
126
56
117
130
63
108
122
51
108
122
52
108
122
52
117
128
58
114
127
56
114
127
56
108
123
51
108
123
51
108
123
51
102
122
50
102
122
50
100
124
52
100
124
52
100
125
55
100
125
55
100
125
55
96
121
54
96
121
54
88
113
49
88
113
49
88
113
49
79
103
44
71
94
37
71
94
37
66
83
37
66
83
37
49
62
27
49
62
27
49
62
27
60
59
47
60
59
47
19
25
10
37
51
17
37
51
17
25
31
15
25
31
15
17
19
13
17
19
13
13
13
11
13
13
11
13
13
11
17
17
15
17
17
15
22
24
16
22
24
16
22
24
16
43
53
20
43
53
20
57
68
23
63
76
27
73
88
30
73
88
30
81
96
33
89
106
38
95
114
42
95
114
42
100
121
45
106
127
47
106
127
47
98
119
43
98
120
45
98
120
45
98
120
45
93
117
44
97
120
49
97
120
49
99
121
51
99
121
51
102
124
55
102
122
52
102
122
52
105
122
52
105
122
52
110
126
56
110
126
56
108
122
51
108
122
52
108
122
52
108
122
52
103
118
45
103
118
45
103
118
45
108
123
51
108
123
51
102
122
50
102
122
50
100
124
52
100
124
52
97
123
52
100
125
55
95
120
52
95
120
52
96
121
54
86
111
47
86
111
47
86
111
47
75
99
40
63
85
30
63
85
30
63
85
30
49
62
27
49
62
27
49
62
27
49
62
27
60
59
47
60
59
47
60
59
47
37
51
17
27
35
15
27
35
15
27
35
15
17
19
13
14
14
12
14
14
12
14
14
12
14
14
12
14
14
12
22
24
16
22
24
16
22
24
16
33
40
19
33
40
19
43
53
20
53
65
23
63
76
27
73
88
30
81
96
33
81
96
33
89
106
38
89
106
38
95
114
42
97
118
43
97
118
43
98
119
43
98
119
43
98
119
43
98
120
45
93
117
44
93
117
44
93
117
44
97
120
49
99
121
51
93
117
47
95
118
47
102
122
52
102
122
52
105
122
52
100
116
46
100
116
46
100
116
46
108
122
51
108
122
52
108
122
52
108
122
52
103
118
45
103
118
45
103
118
45
103
118
45
108
123
51
102
122
50
102
122
50
100
124
52
100
124
52
97
123
52
96
122
51
95
120
52
95
120
52
85
111
45
85
111
45
85
111
45
85
111
45
75
99
40
63
85
30
63
85
30
63
85
30
49
62
27
49
62
27
49
62
27
49
62
27
60
59
47
60
59
47
60
59
47