P3
75 50
255
68
74
46
68
74
46
68
74
46
68
74
46
68
74
46
68
74
46
68
74
46
68
74
46
68
74
46
68
74
46
68
74
46
68
74
46
68
74
46
68
74
46
68
74
46
68
74
46
68
74
46
68
74
46
68
74
46
68
74
46
68
74
46
68
74
46
68
74
46
108
117
57
108
117
57
108
117
57
108
117
57
108
117
57
108
117
57
108
117
57
108
117
57
108
117
57
108
117
57
108
117
57
108
117
57
108
117
57
108
117
57
108
117
57
108
117
57
108
117
57
108
117
57
108
117
57
108
117
57
108
117
57
108
117
57
108
117
57
103
114
55
103
114
55
84
92
42
84
92
42
84
92
42
84
92
42
84
92
42
84
92
42
84
92
42
84
92
42
84
92
42
84
92
42
84
92
42
84
92
42
84
92
42
84
92
42
84
92
42
84
92
42
84
92
42
84
92
42
84
92
42
84
92
42
84
92
42
84
92
42
84
92
42
84
92
42
84
92
42
84
92
42
84
92
42
68
74
46
68
74
46
68
74
46
68
74
46
68
74
46
68
74
46
68
74
46
68
74
46
68
74
46
68
74
46
68
74
46
68
74
46
68
74
46
68
74
46
68
74
46
68
74
46
68
74
46
68
74
46
68
74
46
68
74
46
68
74
46
68
74
46
68
74
46
68
74
46
108
117
57
108
117
57
108
117
57
108
117
57
108
117
57
108
117
57
108
117
57
108
117
57
108
117
57
108
117
57
108
117
57
108
117
57
108
117
57
108
117
57
108
117
57
108
117
57
108
117
57
108
117
57
108
117
57
108
117
57
108
117
57
108
117
57
103
114
55
103
114
55
103
114
55
84
92
42
84
92
42
84
92
42
84
92
42
84
92
42
84
92
42
84
92
42
84
92
42
84
92
42
84
92
42
84
92
42
84
92
42
84
92
42
84
92
42
84
92
42
84
92
42
84
92
42
84
92
42
84
92
42
84
92
42
84
92
42
84
92
42
84
92
42
84
92
42
84
92
42
84
92
42
68
74
46
68
74
46
68
74
46
68
74
46
68
74
46
68
74
46
68
74
46
68
74
46
68
74
46
68
74
46
68
74
46
68
74
46
68
74
46
68
74
46
68
74
46
68
74
46
68
74
46
68
74
46
68
74
46
68
74
46
68
74
46
68
74
46
68
74
46
68
74
46
68
74
46
108
117
57
108
117
57
108
117
57
108
117
57
108
117
57
108
117
57
108
117
57
108
117
57
108
117
57
108
117
57
108
117
57
108
117
57
108
117
57
108
117
57
108
117
57
108
117
57
108
117
57
108
117
57
108
117
57
108
117
57
103
114
55
103
114
55
103
114
55
103
114
55
84
92
42
84
92
42
84
92
42
84
92
42
84
92
42
84
92
42
84
92
42
84
92
42
84
92
42
84
92
42
84
92
42
84
92
42
84
92
42
84
92
42
84
92
42
84
92
42
84
92
42
84
92
42
84
92
42
84
92
42
84
92
42
84
92
42
84
92
42
84
92
42
84
92
42
84
92
42
68
74
46
68
74
46
68
74
46
68
74
46
68
74
46
68
74
46
68
74
46
68
74
46
68
74
46
68
74
46
68
74
46
68
74
46
68
74
46
68
74
46
68
74
46
68
74
46
68
74
46
68
74
46
68
74
46
68
74
46
68
74
46
68
74
46
68
74
46
68
74
46
68
74
46
68
74
46
68
74
46
108
117
57
108
117
57
108
117
57
108
117
57
108
117
57
108
117
57
108
117
57
108
117
57
108
117
57
108
117
57
108
117
57
108
117
57
108
117
57
108
117
57
108
117
57
108
117
57
108
117
57
103
114
55
103
114
55
103
114
55
103
114
55
103
114
55
103
114
55
84
92
42
84
92
42
84
92
42
84
92
42
84
92
42
84
92
42
84
92
42
84
92
42
84
92
42
84
92
42
84
92
42
84
92
42
84
92
42
84
92
42
84
92
42
84
92
42
84
92
42
84
92
42
84
92
42
84
92
42
84
92
42
84
92
42
84
92
42
84
92
42
84
92
42
68
74
46
68
74
46
68
74
46
68
74
46
68
74
46
68
74
46
68
74
46
68
74
46
68
74
46
68
74
46
68
74
46
68
74
46
68
74
46
68
74
46
68
74
46
68
74
46
68
74
46
68
74
46
68
74
46
68
74
46
68
74
46
68
74
46
68
74
46
68
74
46
68
74
46
68
74
46
68
74
46
68
74
46
108
117
57
108
117
57
108
117
57
108
117
57
108
117
57
108
117
57
108
117
57
108
117
57
108
117
57
108
117
57
108
117
57
108
117
57
108
117
57
108
117
57
108
117
57
103
114
55
103
114
55
103
114
55
103
114
55
103
114
55
103
114
55
103
114
55
103
114
55
84
92
42
84
92
42
84
92
42
84
92
42
84
92
42
84
92
42
84
92
42
84
92
42
84
92
42
84
92
42
84
92
42
84
92
42
84
92
42
84
92
42
84
92
42
84
92
42
84
92
42
84
92
42
84
92
42
84
92
42
84
92
42
84
92
42
84
92
42
84
92
42
68
74
46
68
74
46
68
74
46
68
74
46
68
74
46
68
74
46
68
74
46
68
74
46
68
74
46
68
74
46
68
74
46
68
74
46
68
74
46
68
74
46
68
74
46
68
74
46
68
74
46
68
74
46
68
74
46
68
74
46
68
74
46
68
74
46
68
74
46
68
74
46
68
74
46
68
74
46
68
74
46
68
74
46
68
74
46
108
117
57
108
117
57
108
117
57
108
117
57
108
117
57
108
117
57
108
117
57
108
117
57
108
117
57
108
117
57
108
117
57
108
117
57
108
117
57
103
114
55
103
114
55
103
114
55
103
114
55
103
114
55
103
114
55
103
114
55
103
114
55
103
114
55
95
108
49
84
92
42
84
92
42
84
92
42
84
92
42
84
92
42
84
92
42
84
92
42
84
92
42
84
92
42
84
92
42
84
92
42
84
92
42
84
92
42
84
92
42
84
92
42
84
92
42
84
92
42
84
92
42
84
92
42
84
92
42
84
92
42
84
92
42
84
92
42
68
74
46
68
74
46
68
74
46
68
74
46
68
74
46
68
74
46
68
74
46
68
74
46
68
74
46
68
74
46
68
74
46
68
74
46
68
74
46
68
74
46
68
74
46
68
74
46
68
74
46
68
74
46
68
74
46
68
74
46
68
74
46
68
74
46
68
74
46
68
74
46
68
74
46
68
74
46
68
74
46
68
74
46
68
74
46
68
74
46
108
117
57
108
117
57
108
117
57
108
117
57
108
117
57
108
117
57
108
117
57
108
117
57
108
117
57
108
117
57
108
117
57
103
114
55
103
114
55
103
114
55
103
114
55
103
114
55
103
114
55
103
114
55
103
114
55
103
114
55
96
111
47
95
108
49
95
108
49
84
92
42
84
92
42
84
92
42
84
92
42
84
92
42
84
92
42
84
92
42
84
92
42
84
92
42
84
92
42
84
92
42
84
92
42
84
92
42
84
92
42
84
92
42
84
92
42
84
92
42
84
92
42
84
92
42
84
92
42
84
92
42
84
92
42
68
74
46
68
74
46
68
74
46
68
74
46
68
74
46
68
74
46
68
74
46
68
74
46
68
74
46
68
74
46
68
74
46
68
74
46
68
74
46
68
74
46
68
74
46
68
74
46
68
74
46
68
74
46
68
74
46
68
74
46
68
74
46
68
74
46
68
74
46
68
74
46
68
74
46
68
74
46
68
74
46
68
74
46
68
74
46
68
74
46
68
74
46
68
74
46
108
117
57
108
117
57
108
117
57
108
117
57
108
117
57
108
117
57
108
117
57
108
117
57
108
117
57
103
114
55
103
114
55
103
114
55
103
114
55
103
114
55
103
114
55
103
114
55
103
114
55
103
114
55
96
111
47
95
108
49
95
108
49
95
108
49
95
108
49
84
92
42
84
92
42
84
92
42
84
92
42
84
92
42
84
92
42
84
92
42
84
92
42
84
92
42
84
92
42
84
92
42
84
92
42
84
92
42
84
92
42
84
92
42
84
92
42
84
92
42
84
92
42
84
92
42
84
92
42
68
74
46
68
74
46
68
74
46
68
74
46
68
74
46
68
74
46
68
74
46
68
74
46
68
74
46
68
74
46
68
74
46
68
74
46
68
74
46
68
74
46
68
74
46
68
74
46
68
74
46
68
74
46
68
74
46
68
74
46
68
74
46
68
74
46
68
74
46
68
74
46
68
74
46
68
74
46
68
74
46
68
74
46
68
74
46
68
74
46
68
74
46
68
74
46
68
74
46
108
117
57
108
117
57
108
117
57
108
117
57
108
117
57
108
117
57
108
117
57
103
114
55
103
114
55
103
114
55
103
114
55
103
114
55
103
114
55
103
114
55
103
114
55
103
114
55
96
111
47
96
111
47
95
108
49
95
108
49
95
108
49
95
108
49
95
108
49
84
92
42
84
92
42
84
92
42
84
92
42
84
92
42
84
92
42
84
92
42
84
92
42
84
92
42
84
92
42
84
92
42
84
92
42
84
92
42
84
92
42
84
92
42
84
92
42
84
92
42
84
92
42
84
92
42
68
74
46
68
74
46
68
74
46
68
74
46
68
74
46
68
74
46
68
74
46
68
74
46
68
74
46
68
74
46
68
74
46
68
74
46
68
74
46
68
74
46
68
74
46
68
74
46
68
74
46
68
74
46
68
74
46
68
74
46
68
74
46
68
74
46
68
74
46
68
74
46
68
74
46
68
74
46
68
74
46
68
74
46
68
74
46
68
74
46
68
74
46
68
74
46
68
74
46
68
74
46
108
117
57
108
117
57
108
117
57
108
117
57
108
117
57
103
114
55
103
114
55
103
114
55
103
114
55
103
114
55
103
114
55
103
114
55
103
114
55
103
114
55
103
114
55
96
111
47
96
111
47
95
108
49
95
108
49
95
108
49
95
108
49
95
108
49
95
108
49
95
108
49
84
92
42
84
92
42
84
92
42
84
92
42
84
92
42
84
92
42
84
92
42
84
92
42
84
92
42
84
92
42
84
92
42
84
92
42
84
92
42
84
92
42
84
92
42
84
92
42
84
92
42
68
74
46
68
74
46
68
74
46
68
74
46
68
74
46
68
74
46
68
74
46
68
74
46
68
74
46
68
74
46
68
74
46
68
74
46
68
74
46
68
74
46
68
74
46
68
74
46
68
74
46
68
74
46
68
74
46
68
74
46
68
74
46
68
74
46
68
74
46
68
74
46
68
74
46
68
74
46
68
74
46
68
74
46
68
74
46
68
74
46
68
74
46
68
74
46
68
74
46
68
74
46
68
74
46
108
117
57
108
117
57
108
117
57
103
114
55
103
114
55
103
114
55
103
114
55
103
114
55
103
114
55
103
114
55
103
114
55
103
114
55
103
114
55
96
111
47
96
111
47
96
111
47
95
108
49
95
108
49
95
108
49
95
108
49
95
108
49
95
108
49
95
108
49
95
108
49
84
92
42
84
92
42
84
92
42
84
92
42
84
92
42
84
92
42
84
92
42
84
92
42
84
92
42
84
92
42
84
92
42
84
92
42
84
92
42
84
92
42
84
92
42
84
92
42
68
74
46
68
74
46
68
74
46
68
74
46
68
74
46
68
74
46
68
74
46
68
74
46
68
74
46
68
74
46
68
74
46
68
74
46
68
74
46
68
74
46
68
74
46
68
74
46
68
74
46
68
74
46
68
74
46
68
74
46
68
74
46
68
74
46
68
74
46
68
74
46
68
74
46
68
74
46
68
74
46
68
74
46
68
74
46
68
74
46
68
74
46
68
74
46
68
74
46
68
74
46
68
74
46
110
116
67
110
116
67
103
114
55
103
114
55
103
114
55
103
114
55
103
114
55
103
114
55
103
114
55
103
114
55
103
114
55
103
114
55
103
114
55
96
111
47
96
111
47
96
111
47
95
108
49
95
108
49
95
108
49
95
108
49
95
108
49
95
108
49
95
108
49
95
108
49
95
108
49
95
108
49
84
92
42
84
92
42
84
92
42
84
92
42
84
92
42
84
92
42
84
92
42
84
92
42
84
92
42
84
92
42
84
92
42
84
92
42
84
92
42
84
92
42
68
74
46
68
74
46
68
74
46
68
74
46
68
74
46
68
74
46
68
74
46
68
74
46
68
74
46
68
74
46
68
74
46
68
74
46
68
74
46
68
74
46
68
74
46
68
74
46
68
74
46
68
74
46
68
74
46
68
74
46
68
74
46
68
74
46
68
74
46
68
74
46
68
74
46
68
74
46
68
74
46
68
74
46
68
74
46
68
74
46
68
74
46
68
74
46
68
74
46
110
116
67
110
116
67
110
116
67
110
116
67
110
116
67
103
114
55
103
114
55
103
114
55
103
114
55
103
114
55
103
114
55
103
114
55
103
114
55
103
114
55
96
111
47
96
111
47
96
111
47
96
111
47
95
108
49
95
108
49
95
108
49
95
108
49
95
108
49
95
108
49
95
108
49
95
108
49
95
108
49
95
108
49
95
108
49
84
92
42
84
92
42
84
92
42
84
92
42
84
92
42
84
92
42
84
92
42
84
92
42
84
92
42
84
92
42
84
92
42
84
92
42
84
92
42
68
74
46
68
74
46
68
74
46
68
74
46
68
74
46
68
74
46
68
74
46
68
74
46
68
74
46
68
74
46
68
74
46
68
74
46
68
74
46
68
74
46
68
74
46
68
74
46
68
74
46
68
74
46
68
74
46
68
74
46
68
74
46
68
74
46
68
74
46
68
74
46
68
74
46
68
74
46
68
74
46
68
74
46
68
74
46
68
74
46
68
74
46
68
74
46
110
116
67
110
116
67
110
116
67
110
116
67
110
116
67
110
116
67
103
114
55
103
114
55
103
114
55
103
114
55
103
114
55
103
114
55
103
114
55
103
114
55
103
114
55
96
111
47
96
111
47
96
111
47
96
111
47
95
108
49
95
108
49
95
108
49
95
108
49
95
108
49
95
108
49
95
108
49
95
108
49
95
108
49
95
108
49
95
108
49
95
108
49
95
108
49
84
92
42
84
92
42
84
92
42
84
92
42
84
92
42
84
92
42
84
92
42
84
92
42
84
92
42
84
92
42
84
92
42
68
74
46
68
74
46
68
74
46
68
74
46
68
74
46
68
74
46
68
74
46
68
74
46
68
74
46
68
74
46
68
74
46
68
74
46
68
74
46
68
74
46
68
74
46
68
74
46
68
74
46
68
74
46
68
74
46
68
74
46
68
74
46
68
74
46
68
74
46
68
74
46
68
74
46
68
74
46
68
74
46
68
74
46
68
74
46
68
74
46
110
116
67
110
116
67
110
116
67
110
116
67
110
116
67
110
116
67
110
116
67
110
116
67
103
114
55
103
114
55
103
114
55
103
114
55
103
114
55
103
114
55
103
114
55
103
114
55
96
111
47
96
111
47
96
111
47
96
111
47
96
111
47
95
108
49
95
108
49
95
108
49
95
108
49
95
108
49
95
108
49
95
108
49
95
108
49
95
108
49
95
108
49
95
108
49
95
108
49
95
108
49
95
108
49
84
92
42
84
92
42
84
92
42
84
92
42
84
92
42
84
92
42
84
92
42
84
92
42
84
92
42
84
92
42
68
74
46
68
74
46
68
74
46
68
74
46
68
74
46
68
74
46
68
74
46
68
74
46
68
74
46
68
74
46
68
74
46
68
74
46
68
74
46
68
74
46
68
74
46
68
74
46
68
74
46
68
74
46
68
74
46
68
74
46
68
74
46
68
74
46
68
74
46
68
74
46
68
74
46
68
74
46
68
74
46
68
74
46
110
116
67
110
116
67
110
116
67
110
116
67
110
116
67
110
116
67
110
116
67
110
116
67
110
116
67
110
116
67
110
116
67
103
114
55
103
114
55
103
114
55
103
114
55
103
114
55
103
114
55
103
114
55
96
111
47
96
111
47
96
111
47
96
111
47
96
111
47
95
108
49
95
108
49
95
108
49
95
108
49
95
108
49
95
108
49
95
108
49
95
108
49
95
108
49
95
108
49
95
108
49
95
108
49
95
108
49
95
108
49
95
108
49
95
108
49
84
92
42
84
92
42
84
92
42
84
92
42
84
92
42
84
92
42
84
92
42
84
92
42
61
68
38
68
74
46
68
74
46
68
74
46
68
74
46
68
74
46
68
74
46
68
74
46
68
74
46
68
74
46
68
74
46
68
74
46
68
74
46
68
74
46
68
74
46
68
74
46
68
74
46
68
74
46
68
74
46
68
74
46
68
74
46
68
74
46
68
74
46
68
74
46
68
74
46
68
74
46
68
74
46
110
116
67
110
116
67
110
116
67
110
116
67
110
116
67
110
116
67
110
116
67
110
116
67
110
116
67
110
116
67
110
116
67
110
116
67
103
114
55
103
114
55
103
114
55
103
114
55
103
114
55
103
114
55
96
111
47
96
111
47
96
111
47
96
111
47
83
94
51
83
94
51
83
94
51
83
94
51
83
94
51
83
94
51
83
94
51
95
108
49
95
108
49
95
108
49
95
108
49
95
108
49
95
108
49
95
108
49
95
108
49
95
108
49
95
108
49
95
108
49
95
108
49
84
92
42
84
92
42
84
92
42
84
92
42
84
92
42
84
92
42
84
92
42
61
68
38
61
68
38
68
74
46
68
74
46
68
74
46
68
74
46
68
74
46
68
74
46
68
74
46
68
74
46
68
74
46
68
74
46
68
74
46
68
74
46
68
74
46
68
74
46
68
74
46
68
74
46
68
74
46
68
74
46
68
74
46
68
74
46
68
74
46
68
74
46
68
74
46
110
116
67
110
116
67
110
116
67
110
116
67
110
116
67
110
116
67
110
116
67
110
116
67
110
116
67
110
116
67
110
116
67
110
116
67
110
116
67
110
116
67
110
116
67
103
114
55
103
114
55
103
114
55
103
114
55
103
114
55
96
111
47
83
94
51
83
94
51
83
94
51
83
94
51
83
94
51
83
94
51
83
94
51
83
94
51
83
94
51
83
94
51
83
94
51
83
94
51
83
94
51
83
94
51
83
94
51
83
94
51
83
94
51
95
108
49
95
108
49
95
108
49
95
108
49
95
108
49
95
108
49
95
108
49
84
92
42
84
92
42
84
92
42
84
92
42
84
92
42
61
68
38
61
68
38
61
68
38
61
68
38
68
74
46
68
74
46
68
74
46
68
74
46
68
74
46
68
74
46
68
74
46
68
74
46
68
74
46
68
74
46
68
74
46
68
74
46
68
74
46
68
74
46
68
74
46
68
74
46
68
74
46
68
74
46
68
74
46
110
116
67
110
116
67
110
116
67
110
116
67
110
116
67
110
116
67
110
116
67
110
116
67
110
116
67
110
116
67
110
116
67
110
116
67
110
116
67
110
116
67
110
116
67
110
116
67
103
117
61
103
117
61
103
117
61
103
117
61
103
117
61
103
117
61
83
94
51
83
94
51
83
94
51
83
94
51
83
94
51
83
94
51
83
94
51
83
94
51
83
94
51
83
94
51
83
94
51
83
94
51
83
94
51
83
94
51
83
94
51
83
94
51
83
94
51
83
94
51
83
94
51
83
94
51
83
94
51
83
94
51
83
94
51
83
94
51
83
94
51
95
108
49
84
92
42
84
92
42
84
92
42
84
92
42
61
68
38
61
68
38
61
68
38
61
68
38
61
68
38
68
74
46
68
74
46
68
74
46
68
74
46
68
74
46
68
74
46
68
74
46
68
74
46
68
74
46
68
74
46
68
74
46
68
74
46
68
74
46
68
74
46
68
74
46
68
74
46
68
74
46
110
116
67
110
116
67
110
116
67
110
116
67
110
116
67
110
116
67
110
116
67
110
116
67
110
116
67
110
116
67
110
116
67
110
116
67
110
116
67
110
116
67
110
116
67
110
116
67
110
116
67
103
117
61
103
117
61
103
117
61
103
117
61
103
117
61
103
117
61
83
94
51
83
94
51
83
94
51
83
94
51
83
94
51
83
94
51
83
94
51
83
94
51
83
94
51
83
94
51
83
94
51
83
94
51
83
94
51
83
94
51
83
94
51
83
94
51
83
94
51
83
94
51
83
94
51
83
94
51
83
94
51
83
94
51
83
94
51
83
94
51
83
94
51
83
94
51
83
94
51
83
94
51
84
92
42
84
92
42
61
68
38
61
68
38
61
68
38
61
68
38
61
68
38
61
68
38
61
68
38
68
74
46
68
74
46
68
74
46
68
74
46
68
74
46
68
74
46
68
74
46
68
74
46
68
74
46
68
74
46
68
74
46
68
74
46
68
74
46
110
116
67
110
116
67
110
116
67
110
116
67
110
116
67
110
116
67
110
116
67
110
116
67
110
116
67
110
116
67
110
116
67
110
116
67
110
116
67
110
116
67
110
116
67
110
116
67
110
116
67
110
116
67
103
117
61
103
117
61
103
117
61
103
117
61
103
117
61
103
117
61
103
117
61
103
117
61
83
94
51
83
94
51
83
94
51
83
94
51
83
94
51
83
94
51
83
94
51
83
94
51
83
94
51
83
94
51
83
94
51
83
94
51
83
94
51
83
94
51
83
94
51
83
94
51
83
94
51
83
94
51
83
94
51
83
94
51
83
94
51
83
94
51
83
94
51
83
94
51
83
94
51
83
94
51
83
94
51
83
94
51
83
94
51
61
68
38
61
68
38
61
68
38
61
68
38
61
68
38
61
68
38
61
68
38
61
68
38
61
68
38
68
74
46
68
74
46
68
74
46
68
74
46
68
74
46
68
74
46
68
74
46
68
74
46
68
74
46
110
116
67
110
116
67
110
116
67
110
116
67
110
116
67
110
116
67
110
116
67
110
116
67
110
116
67
110
116
67
110
116
67
110
116
67
110
116
67
110
116
67
110
116
67
110
116
67
110
116
67
110
116
67
110
116
67
103
117
61
103
117
61
103
117
61
103
117
61
103
117
61
103
117
61
103
117
61
103
117
61
103
117
61
103
117
61
83
94
51
83
94
51
83
94
51
83
94
51
83
94
51
83
94
51
83
94
51
83
94
51
83
94
51
83
94
51
83
94
51
83
94
51
83
94
51
83
94
51
83
94
51
83
94
51
83
94
51
83
94
51
83
94
51
83
94
51
83
94
51
83
94
51
83
94
51
83
94
51
83
94
51
83
94
51
83
94
51
83
94
51
61
68
38
61
68
38
61
68
38
61
68
38
61
68
38
61
68
38
61
68
38
61
68
38
61
68
38
61
68
38
68
74
46
68
74
46
68
74
46
68
74
46
68
74
46
68
74
46
68
74
46
110
116
67
110
116
67
110
116
67
110
116
67
110
116
67
110
116
67
110
116
67
110
116
67
110
116
67
110
116
67
110
116
67
110
116
67
110
116
67
110
116
67
110
116
67
110
116
67
110
116
67
110
116
67
110
116
67
110
116
67
103
117
61
103
117
61
103
117
61
103
117
61
103
117
61
103
117
61
103
117
61
103
117
61
103
117
61
103
117
61
103
117
61
83
94
51
83
94
51
83
94
51
83
94
51
83
94
51
83
94
51
83
94
51
83
94
51
83
94
51
83
94
51
83
94
51
83
94
51
83
94
51
83
94
51
83
94
51
83
94
51
83
94
51
83
94
51
83
94
51
83
94
51
83
94
51
83
94
51
83
94
51
83
94
51
83
94
51
83
94
51
83
94
51
61
68
38
61
68
38
61
68
38
61
68
38
61
68
38
61
68
38
61
68
38
61
68
38
61
68
38
61
68
38
61
68
38
61
68
38
68
74
46
68
74
46
68
74
46
110
116
67
110
116
67
110
116
67
110
116
67
110
116
67
110
116
67
110
116
67
110
116
67
110
116
67
110
116
67
110
116
67
110
116
67
110
116
67
110
116
67
110
116
67
110
116
67
110
116
67
110
116
67
110
116
67
110
116
67
110
116
67
103
117
61
103
117
61
103
117
61
103
117
61
103
117
61
103
117
61
103
117
61
103
117
61
103
117
61
103
117
61
103
117
61
103
117
61
103
117
61
83
94
51
83
94
51
83
94
51
83
94
51
83
94
51
83
94
51
83
94
51
83
94
51
83
94
51
83
94
51
83
94
51
83
94
51
83
94
51
83
94
51
83
94
51
83
94
51
83
94
51
83
94
51
83
94
51
83
94
51
83
94
51
83
94
51
83
94
51
83
94
51
83
94
51
83
94
51
61
68
38
61
68
38
61
68
38
61
68
38
61
68
38
61
68
38
61
68
38
61
68
38
61
68
38
61
68
38
61
68
38
61
68
38
61
68
38
110
116
67
110
116
67
110
116
67
110
116
67
110
116
67
110
116
67
110
116
67
110
116
67
110
116
67
110
116
67
110
116
67
110
116
67
110
116
67
110
116
67
110
116
67
110
116
67
110
116
67
110
116
67
110
116
67
110
116
67
110
116
67
110
116
67
110
116
67
103
117
61
103
117
61
103
117
61
103
117
61
103
117
61
103
117
61
103
117
61
103
117
61
103
117
61
103
117
61
103
117
61
103
117
61
103
117
61
103
117
61
83
94
51
83
94
51
83
94
51
83
94
51
83
94
51
83
94
51
83
94
51
83
94
51
83
94
51
83
94
51
83
94
51
83
94
51
83
94
51
83
94
51
83
94
51
83
94
51
83
94
51
83
94
51
83
94
51
83
94
51
83
94
51
83
94
51
83
94
51
83
94
51
83
94
51
61
68
38
61
68
38
61
68
38
61
68
38
61
68
38
61
68
38
61
68
38
61
68
38
61
68
38
61
68
38
61
68
38
61
68
38
61
68
38
61
68
38
110
116
67
110
116
67
110
116
67
110
116
67
110
116
67
110
116
67
110
116
67
110
116
67
110
116
67
110
116
67
110
116
67
110
116
67
110
116
67
110
116
67
110
116
67
110
116
67
110
116
67
110
116
67
110
116
67
110
116
67
110
116
67
103
117
61
103
117
61
103
117
61
103
117
61
103
117
61
103
117
61
103
117
61
103
117
61
103
117
61
103
117
61
103
117
61
103
117
61
103
117
61
103
117
61
103
117
61
103
117
61
83
94
51
83
94
51
83
94
51
83
94
51
83
94
51
83
94
51
83
94
51
83
94
51
83
94
51
83
94
51
83
94
51
83
94
51
83
94
51
83
94
51
83
94
51
83
94
51
83
94
51
83
94
51
83
94
51
83
94
51
83
94
51
83
94
51
83
94
51
83
94
51
61
68
38
61
68
38
61
68
38
61
68
38
61
68
38
61
68
38
61
68
38
61
68
38
61
68
38
61
68
38
61
68
38
61
68
38
61
68
38
61
68
38
61
68
38
61
68
38
110
116
67
110
116
67
110
116
67
110
116
67
110
116
67
110
116
67
110
116
67
110
116
67
110
116
67
110
116
67
110
116
67
110
116
67
110
116
67
110
116
67
110
116
67
110
116
67
110
116
67
110
116
67
110
116
67
103
117
61
103
117
61
103
117
61
103
117
61
103
117
61
103
117
61
103
117
61
103
117
61
103
117
61
103
117
61
103
117
61
103
117
61
103
117
61
103
117
61
103
117
61
103
117
61
83
94
51
83
94
51
83
94
51
83
94
51
83
94
51
83
94
51
83
94
51
83
94
51
83
94
51
83
94
51
83
94
51
83
94
51
83
94
51
83
94
51
83
94
51
83
94
51
83
94
51
83
94
51
83
94
51
83
94
51
83
94
51
83
94
51
83
94
51
83
94
51
61
68
38
61
68
38
61
68
38
61
68
38
61
68
38
61
68
38
61
68
38
61
68
38
61
68
38
61
68
38
61
68
38
61
68
38
61
68
38
61
68
38
61
68
38
61
68
38
61
68
38
110
116
67
110
116
67
110
116
67
110
116
67
110
116
67
110
116
67
110
116
67
110
116
67
110
116
67
110
116
67
110
116
67
110
116
67
110
116
67
110
116
67
110
116
67
110
116
67
110
116
67
103
117
61
103
117
61
103
117
61
103
117
61
103
117
61
103
117
61
103
117
61
103
117
61
103
117
61
103
117
61
103
117
61
103
117
61
103
117
61
103
117
61
103
117
61
103
117
61
103
117
61
103
117
61
83
94
51
83
94
51
83
94
51
83
94
51
83
94
51
83
94
51
83
94
51
83
94
51
83
94
51
83
94
51
83
94
51
83
94
51
83
94
51
83
94
51
83
94
51
83
94
51
83
94
51
83
94
51
83
94
51
83
94
51
83
94
51
83
94
51
83
94
51
61
68
38
61
68
38
61
68
38
61
68
38
61
68
38
61
68
38
61
68
38
61
68
38
61
68
38
61
68
38
61
68
38
61
68
38
61
68
38
61
68
38
61
68
38
61
68
38
61
68
38
61
68
38
110
116
67
110
116
67
110
116
67
110
116
67
110
116
67
110
116
67
110
116
67
110
116
67
110
116
67
110
116
67
110
116
67
110
116
67
110
116
67
110
116
67
110
116
67
103
117
61
103
117
61
103
117
61
103
117
61
103
117
61
103
117
61
103
117
61
103
117
61
103
117
61
103
117
61
103
117
61
103
117
61
103
117
61
103
117
61
103
117
61
103
117
61
103
117
61
103
117
61
103
117
61
103
117
61
83
94
51
83
94
51
83
94
51
83
94
51
83
94
51
83
94
51
83
94
51
83
94
51
83
94
51
83
94
51
83
94
51
83
94
51
83
94
51
83
94
51
83
94
51
83
94
51
83
94
51
83
94
51
83
94
51
83
94
51
83
94
51
83
94
51
61
68
38
61
68
38
61
68
38
61
68
38
61
68
38
61
68
38
61
68
38
61
68
38
61
68
38
61
68
38
61
68
38
61
68
38
61
68
38
61
68
38
61
68
38
61
68
38
61
68
38
61
68
38
61
68
38
110
116
67
110
116
67
110
116
67
110
116
67
110
116
67
110
116
67
110
116
67
110
116
67
110
116
67
110
116
67
110
116
67
110
116
67
110
116
67
110
116
67
103
117
61
103
117
61
103
117
61
103
117
61
103
117
61
103
117
61
103
117
61
103
117
61
103
117
61
103
117
61
103
117
61
103
117
61
103
117
61
103
117
61
103
117
61
103
117
61
103
117
61
103
117
61
103
117
61
103
117
61
103
117
61
83
94
51
83
94
51
83
94
51
83
94
51
83
94
51
83
94
51
83
94
51
83
94
51
83
94
51
83
94
51
83
94
51
83
94
51
83
94
51
83
94
51
83
94
51
83
94
51
83
94
51
83
94
51
83
94
51
83
94
51
83
94
51
61
68
38
61
68
38
61
68
38
61
68
38
61
68
38
61
68
38
61
68
38
61
68
38
61
68
38
61
68
38
61
68
38
61
68
38
61
68
38
61
68
38
61
68
38
61
68
38
61
68
38
61
68
38
61
68
38
61
68
38
110
116
67
110
116
67
110
116
67
110
116
67
110
116
67
110
116
67
110
116
67
110
116
67
110
116
67
110
116
67
110
116
67
110
116
67
103
117
61
103
117
61
103
117
61
103
117
61
103
117
61
103
117
61
103
117
61
103
117
61
103
117
61
103
117
61
103
117
61
103
117
61
103
117
61
103
117
61
103
117
61
103
117
61
103
117
61
103
117
61
103
117
61
103
117
61
103
117
61
103
117
61
103
117
61
83
94
51
83
94
51
83
94
51
83
94
51
83
94
51
83
94
51
83
94
51
83
94
51
83
94
51
83
94
51
83
94
51
83
94
51
83
94
51
83
94
51
83
94
51
83
94
51
83
94
51
83
94
51
83
94
51
83
94
51
61
68
38
61
68
38
61
68
38
61
68
38
61
68
38
61
68
38
61
68
38
61
68
38
61
68
38
61
68
38
61
68
38
61
68
38
61
68
38
61
68
38
61
68
38
61
68
38
61
68
38
61
68
38
61
68
38
61
68
38
61
68
38
110
116
67
110
116
67
110
116
67
110
116
67
110
116
67
110
116
67
110
116
67
110
116
67
110
116
67
110
116
67
110
116
67
103
117
61
103
117
61
103
117
61
103
117
61
103
117
61
103
117
61
103
117
61
103
117
61
103
117
61
103
117
61
103
117
61
103
117
61
103
117
61
103
117
61
103
117
61
103
117
61
103
117
61
103
117
61
103
117
61
103
117
61
103
117
61
103
117
61
103
117
61
103
117
61
83
94
51
83
94
51
83
94
51
83
94
51
83
94
51
83
94
51
83
94
51
83
94
51
83
94
51
83
94
51
83
94
51
83
94
51
83
94
51
83
94
51
83
94
51
83
94
51
83
94
51
83
94
51
83
94
51
61
68
38
61
68
38
61
68
38
61
68
38
61
68
38
61
68
38
61
68
38
61
68
38
61
68
38
61
68
38
61
68
38
61
68
38
61
68
38
61
68
38
61
68
38
61
68
38
61
68
38
61
68
38
61
68
38
61
68
38
61
68
38
61
68
38
110
116
67
110
116
67
110
116
67
110
116
67
110
116
67
110
116
67
110
116
67
110
116
67
110
116
67
103
117
61
103
117
61
103
117
61
103
117
61
103
117
61
103
117
61
103
117
61
103
117
61
103
117
61
103
117
61
103
117
61
103
117
61
103
117
61
103
117
61
103
117
61
103
117
61
103
117
61
103
117
61
103
117
61
103
117
61
103
117
61
103
117
61
103
117
61
103
117
61
103
117
61
103
117
61
83
94
51
83
94
51
83
94
51
83
94
51
83
94
51
83
94
51
83
94
51
83
94
51
83
94
51
83
94
51
83
94
51
83
94
51
83
94
51
83
94
51
83
94
51
83
94
51
83
94
51
83
94
51
61
68
38
61
68
38
61
68
38
61
68
38
61
68
38
61
68
38
61
68
38
61
68
38
61
68
38
61
68
38
61
68
38
61
68
38
61
68
38
61
68
38
61
68
38
61
68
38
61
68
38
61
68
38
61
68
38
61
68
38
61
68
38
61
68
38
61
68
38
110
116
67
110
116
67
110
116
67
110
116
67
110
116
67
110
116
67
110
116
67
110
116
67
103
117
61
103
117
61
103
117
61
103
117
61
103
117
61
103
117
61
103
117
61
103
117
61
103
117
61
103
117
61
103
117
61
103
117
61
103
117
61
103
117
61
103
117
61
103
117
61
103
117
61
103
117
61
103
117
61
103
117
61
103
117
61
103
117
61
103
117
61
103
117
61
103
117
61
103
117
61
83
94
51
83
94
51
83
94
51
83
94
51
83
94
51
83
94
51
83
94
51
83
94
51
83
94
51
83
94
51
83
94
51
83
94
51
83
94
51
83
94
51
83
94
51
83
94
51
83
94
51
83
94
51
61
68
38
61
68
38
61
68
38
61
68
38
61
68
38
61
68
38
61
68
38
61
68
38
61
68
38
61
68
38
61
68
38
61
68
38
61
68
38
61
68
38
61
68
38
61
68
38
61
68
38
61
68
38
61
68
38
61
68
38
61
68
38
61
68
38
61
68
38
61
68
38
61
68
38
110
116
67
110
116
67
110
116
67
110
116
67
110
116
67
103
117
61
103
117
61
103
117
61
103
117
61
103
117
61
103
117
61
103
117
61
103
117
61
103
117
61
103
117
61
103
117
61
103
117
61
103
117
61
103
117
61
103
117
61
103
117
61
103
117
61
103
117
61
103
117
61
103
117
61
103
117
61
103
117
61
103
117
61
103
117
61
103
117
61
103
117
61
103
117
61
103
117
61
83
94
51
83
94
51
83
94
51
83
94
51
83
94
51
83
94
51
83
94
51
83
94
51
83
94
51
83
94
51
83
94
51
83
94
51
83
94
51
83
94
51
83
94
51
83
94
51
83
94
51
61
68
38
61
68
38
61
68
38
61
68
38
61
68
38
61
68
38
61
68
38
61
68
38
61
68
38
61
68
38
61
68
38
61
68
38
61
68
38
61
68
38
61
68
38
61
68
38
61
68
38
61
68
38
61
68
38
61
68
38
61
68
38
61
68
38
61
68
38
61
68
38
61
68
38
61
68
38
110
116
67
110
116
67
110
116
67
103
117
61
103
117
61
103
117
61
103
117
61
103
117
61
103
117
61
103
117
61
103
117
61
103
117
61
103
117
61
103
117
61
103
117
61
103
117
61
103
117
61
103
117
61
103
117
61
103
117
61
103
117
61
103
117
61
103
117
61
103
117
61
103
117
61
103
117
61
103
117
61
103
117
61
103
117
61
103
117
61
103
117
61
103
117
61
103
117
61
83
94
51
83
94
51
83
94
51
83
94
51
83
94
51
83
94
51
83
94
51
83
94
51
83
94
51
83
94
51
83
94
51
83
94
51
83
94
51
83
94
51
83
94
51
83
94
51
61
68
38
61
68
38
61
68
38
61
68
38
61
68
38
61
68
38
61
68
38
61
68
38
61
68
38
61
68
38
61
68
38
61
68
38
61
68
38
61
68
38
61
68
38
61
68
38
61
68
38
61
68
38
61
68
38
61
68
38
61
68
38
61
68
38
61
68
38
61
68
38
61
68
38
61
68
38
61
68
38
110
116
67
110
116
67
103
117
61
103
117
61
103
117
61
103
117
61
103
117
61
103
117
61
103
117
61
103
117
61
103
117
61
103
117
61
103
117
61
103
117
61
103
117
61
103
117
61
103
117
61
103
117
61
103
117
61
103
117
61
103
117
61
103
117
61
103
117
61
103
117
61
103
117
61
103
117
61
103
117
61
103
117
61
103
117
61
103
117
61
103
117
61
103
117
61
103
117
61
83
94
51
83
94
51
83
94
51
83
94
51
83
94
51
83
94
51
83
94
51
83
94
51
83
94
51
83
94
51
83
94
51
83
94
51
83
94
51
83
94
51
83
94
51
61
68
38
61
68
38
61
68
38
61
68
38
61
68
38
61
68
38
61
68
38
61
68
38
61
68
38
61
68
38
61
68
38
61
68
38
61
68
38
61
68
38
61
68
38
61
68
38
61
68
38
61
68
38
61
68
38
61
68
38
61
68
38
61
68
38
61
68
38
61
68
38
61
68
38
61
68
38
61
68
38
61
68
38
103
117
61
103
117
61
103
117
61
103
117
61
103
117
61
103
117
61
103
117
61
103
117
61
103
117
61
103
117
61
103
117
61
103
117
61
103
117
61
103
117
61
103
117
61
103
117
61
103
117
61
103
117
61
103
117
61
103
117
61
103
117
61
103
117
61
103
117
61
103
117
61
103
117
61
103
117
61
103
117
61
103
117
61
103
117
61
103
117
61
103
117
61
103
117
61
103
117
61
83
94
51
83
94
51
83
94
51
83
94
51
83
94
51
83
94
51
83
94
51
83
94
51
83
94
51
83
94
51
83
94
51
83
94
51
83
94
51
83
94
51
61
68
38
61
68
38
61
68
38
61
68
38
61
68
38
61
68
38
61
68
38
61
68
38
61
68
38
61
68
38
61
68
38
61
68
38
61
68
38
61
68
38
61
68
38
61
68
38
61
68
38
61
68
38
61
68
38
61
68
38
61
68
38
61
68
38
61
68
38
61
68
38
61
68
38
61
68
38
61
68
38
61
68
38
61
68
38
103
117
61
103
117
61
103
117
61
103
117
61
103
117
61
103
117
61
103
117
61
103
117
61
103
117
61
103
117
61
103
117
61
103
117
61
103
117
61
103
117
61
103
117
61
103
117
61
103
117
61
103
117
61
103
117
61
103
117
61
103
117
61
103
117
61
103
117
61
103
117
61
103
117
61
103
117
61
103
117
61
103
117
61
103
117
61
103
117
61
103
117
61
103
117
61
103
117
61
83
94
51
83
94
51
83
94
51
83
94
51
83
94
51
83
94
51
83
94
51
83
94
51
83
94
51
83
94
51
83
94
51
83
94
51
83
94
51
61
68
38
61
68
38
61
68
38
61
68
38
61
68
38
61
68
38
61
68
38
61
68
38
61
68
38
61
68
38
61
68
38
61
68
38
61
68
38
61
68
38
61
68
38
61
68
38
61
68
38
61
68
38
61
68
38
61
68
38
61
68
38
61
68
38
61
68
38
61
68
38
61
68
38
61
68
38
61
68
38
61
68
38
61
68
38
103
117
61
103
117
61
103
117
61
103
117
61
103
117
61
103
117
61
103
117
61
103
117
61
103
117
61
103
117
61
103
117
61
103
117
61
103
117
61
103
117
61
103
117
61
103
117
61
103
117
61
103
117
61
103
117
61
103
117
61
103
117
61
103
117
61
103
117
61
103
117
61
103
117
61
103
117
61
103
117
61
103
117
61
103
117
61
103
117
61
103
117
61
103
117
61
103
117
61
103
117
61
83
94
51
83
94
51
83
94
51
83
94
51
83
94
51
83
94
51
83
94
51
83
94
51
83
94
51
83
94
51
83
94
51
83
94
51
61
68
38
61
68
38
61
68
38
61
68
38
61
68
38
61
68
38
61
68
38
61
68
38
61
68
38
61
68
38
61
68
38
61
68
38
61
68
38
61
68
38
61
68
38
61
68
38
61
68
38
61
68
38
61
68
38
61
68
38
61
68
38
61
68
38
61
68
38
61
68
38
61
68
38
61
68
38
61
68
38
61
68
38
61
68
38
61
68
38
103
117
61
103
117
61
103
117
61
103
117
61
103
117
61
103
117
61
103
117
61
103
117
61
103
117
61
103
117
61
103
117
61
103
117
61
103
117
61
103
117
61
103
117
61
103
117
61
103
117
61
103
117
61
103
117
61
103
117
61
103
117
61
103
117
61
103
117
61
103
117
61
103
117
61
103
117
61
103
117
61
103
117
61
103
117
61
103
117
61
103
117
61
103
117
61
103
117
61
83
94
51
83
94
51
83
94
51
83
94
51
83
94
51
83
94
51
83
94
51
83
94
51
83
94
51
83
94
51
83
94
51
83
94
51
61
68
38
61
68
38
61
68
38
61
68
38
61
68
38
61
68
38
61
68
38
61
68
38
61
68
38
61
68
38
61
68
38
61
68
38
61
68
38
61
68
38
61
68
38
61
68
38
61
68
38
61
68
38
61
68
38
61
68
38
61
68
38
61
68
38
61
68
38
61
68
38
61
68
38
61
68
38
61
68
38
61
68
38
61
68
38
61
68
38
103
117
61
103
117
61
103
117
61
103
117
61
103
117
61
103
117
61
103
117
61
103
117
61
103
117
61
103
117
61
103
117
61
103
117
61
103
117
61
103
117
61
103
117
61
103
117
61
103
117
61
103
117
61
103
117
61
103
117
61
103
117
61
103
117
61
103
117
61
103
117
61
103
117
61
103
117
61
103
117
61
103
117
61
103
117
61
103
117
61
103
117
61
103
117
61
103
117
61
103
117
61
83
94
51
83
94
51
83
94
51
83
94
51
83
94
51
83
94
51
83
94
51
83
94
51
83
94
51
83
94
51
83
94
51
61
68
38
61
68
38
61
68
38
61
68
38
61
68
38
61
68
38
61
68
38
61
68
38
61
68
38
61
68
38
61
68
38
61
68
38
61
68
38
61
68
38
61
68
38
61
68
38
61
68
38
61
68
38
61
68
38
61
68
38
61
68
38
61
68
38
61
68
38
61
68
38
61
68
38
61
68
38
61
68
38
61
68
38
61
68
38
61
68
38
61
68
38
103
117
61
103
117
61
103
117
61
103
117
61
103
117
61
103
117
61
103
117
61
103
117
61
103
117
61
103
117
61
103
117
61
103
117
61
103
117
61
103
117
61
103
117
61
103
117
61
103
117
61
103
117
61
103
117
61
103
117
61
103
117
61
103
117
61
103
117
61
103
117
61
103
117
61
103
117
61
103
117
61
103
117
61
103
117
61
103
117
61
103
117
61
103
117
61
103
117
61
103
117
61
83
94
51
83
94
51
83
94
51
83
94
51
83
94
51
83
94
51
83
94
51
83
94
51
83
94
51
83
94
51
61
68
38
61
68
38
61
68
38
61
68
38
61
68
38
61
68
38
61
68
38
61
68
38
61
68
38
61
68
38
61
68
38
61
68
38
61
68
38
61
68
38
61
68
38
61
68
38
61
68
38
61
68
38
61
68
38
61
68
38
61
68
38
61
68
38
61
68
38
61
68
38
61
68
38
61
68
38
61
68
38
61
68
38
61
68
38
61
68
38
61
68
38
103
117
61
103
117
61
103
117
61
103
117
61
103
117
61
103
117
61
103
117
61
103
117
61
103
117
61
103
117
61
103
117
61
103
117
61
103
117
61
103
117
61
103
117
61
103
117
61
103
117
61
103
117
61
103
117
61
103
117
61
103
117
61
103
117
61
103
117
61
103
117
61
103
117
61
103
117
61
103
117
61
103
117
61
103
117
61
103
117
61
103
117
61
103
117
61
103
117
61
103
117
61
103
117
61
83
94
51
83
94
51
83
94
51
83
94
51
83
94
51
83
94
51
83
94
51
83
94
51
83
94
51
61
68
38
61
68
38
61
68
38
61
68
38
61
68
38
61
68
38
61
68
38
61
68
38
61
68
38
61
68
38
61
68
38
61
68
38
61
68
38
61
68
38
61
68
38
61
68
38
61
68
38
61
68
38
61
68
38
61
68
38
61
68
38
61
68
38
61
68
38
61
68
38
61
68
38
61
68
38
61
68
38
61
68
38
61
68
38
61
68
38
61
68
38
103
117
61
103
117
61
103
117
61
103
117
61
103
117
61
103
117
61
103
117
61
103
117
61
103
117
61
103
117
61
103
117
61
103
117
61
103
117
61
103
117
61
103
117
61
103
117
61
103
117
61
103
117
61
103
117
61
103
117
61
103
117
61
103
117
61
103
117
61
103
117
61
103
117
61
103
117
61
103
117
61
103
117
61
103
117
61
103
117
61
103
117
61
103
117
61
103
117
61
103
117
61
103
117
61
103
117
61
83
94
51
83
94
51
83
94
51
83
94
51
83
94
51
83
94
51
83
94
51
83
94
51
61
68
38
61
68
38
61
68
38
61
68
38
61
68
38
61
68
38
61
68
38
61
68
38
61
68
38
61
68
38
61
68
38
61
68
38
61
68
38
61
68
38
61
68
38
61
68
38
61
68
38
61
68
38
61
68
38
61
68
38
61
68
38
61
68
38
61
68
38
61
68
38
61
68
38
61
68
38
61
68
38
61
68
38
61
68
38
61
68
38
61
68
38
61
68
38
103
117
61
103
117
61
103
117
61
103
117
61
103
117
61
103
117
61
103
117
61
103
117
61
103
117
61
103
117
61
103
117
61
103
117
61
103
117
61
103
117
61
103
117
61
103
117
61
103
117
61
103
117
61
103
117
61
103
117
61
103
117
61
103
117
61
103
117
61
103
117
61
103
117
61
103
117
61
103
117
61
103
117
61
103
117
61
103
117
61
103
117
61
103
117
61
103
117
61
103
117
61
103
117
61
103
117
61
83
94
51
83
94
51
83
94
51
83
94
51
83
94
51
83
94
51
83
94
51
61
68
38
61
68
38
61
68
38
61
68
38
61
68
38
61
68
38
61
68
38
61
68
38
61
68
38
61
68
38
61
68
38
61
68
38
61
68
38
61
68
38
61
68
38
61
68
38
61
68
38
61
68
38
61
68
38
61
68
38
61
68
38
61
68
38
61
68
38
61
68
38
61
68
38
61
68
38
61
68
38
61
68
38
61
68
38
61
68
38
61
68
38
61
68
38
103
117
61
103
117
61
103
117
61
103
117
61
103
117
61
103
117
61
103
117
61
103
117
61
103
117
61
103
117
61
103
117
61
103
117
61
103
117
61
103
117
61
103
117
61
103
117
61
103
117
61
103
117
61
103
117
61
103
117
61
103
117
61
103
117
61
103
117
61
103
117
61
103
117
61
103
117
61
103
117
61
103
117
61
103
117
61
103
117
61
103
117
61
103
117
61
103
117
61
103
117
61
103
117
61
103
117
61
103
117
61
83
94
51
83
94
51
83
94
51
83
94
51
83
94
51
83
94
51
61
68
38
61
68
38
61
68
38
61
68
38
61
68
38
61
68
38
61
68
38
61
68
38
61
68
38
61
68
38
61
68
38
61
68
38
61
68
38
61
68
38
61
68
38
61
68
38
61
68
38
61
68
38
61
68
38
61
68
38
61
68
38
61
68
38
61
68
38
61
68
38
61
68
38
61
68
38
61
68
38
61
68
38
61
68
38
61
68
38
61
68
38
61
68
38
61
68
38
103
117
61
103
117
61
103
117
61
103
117
61
103
117
61
103
117
61
103
117
61
103
117
61
103
117
61
103
117
61
103
117
61
103
117
61
103
117
61
103
117
61
103
117
61
103
117
61
103
117
61
103
117
61
103
117
61
103
117
61
103
117
61
103
117
61
103
117
61
103
117
61
103
117
61
103
117
61
103
117
61
103
117
61
103
117
61
103
117
61
103
117
61
103
117
61
103
117
61
103
117
61
103
117
61
103
117
61
83
94
51
83
94
51
83
94
51
83
94
51
83
94
51
83
94
51
61
68
38
61
68
38
61
68
38
61
68
38
61
68
38
61
68
38
61
68
38
61
68
38
61
68
38
61
68
38
61
68
38
61
68
38
61
68
38
61
68
38
61
68
38
61
68
38
61
68
38
61
68
38
61
68
38
61
68
38
61
68
38
61
68
38
61
68
38
61
68
38
61
68
38
61
68
38
61
68
38
61
68
38
61
68
38
61
68
38
61
68
38
61
68
38
61
68
38
103
117
61
103
117
61
103
117
61
103
117
61
103
117
61
103
117
61
103
117
61
103
117
61
103
117
61
103
117
61
103
117
61
103
117
61
103
117
61
103
117
61
103
117
61
103
117
61
103
117
61
103
117
61
103
117
61
103
117
61
103
117
61
103
117
61
103
117
61
103
117
61
103
117
61
103
117
61
103
117
61
103
117
61
103
117
61
103
117
61
103
117
61
103
117
61
103
117
61
103
117
61
103
117
61
103
117
61
103
117
61
83
94
51
83
94
51
83
94
51
83
94
51
83
94
51
61
68
38
61
68
38
61
68
38
61
68
38
61
68
38
61
68
38
61
68
38
61
68
38
61
68
38
61
68
38
61
68
38
61
68
38
61
68
38
61
68
38
61
68
38
61
68
38
61
68
38
61
68
38
61
68
38
61
68
38
61
68
38
61
68
38
61
68
38
61
68
38
61
68
38
61
68
38
61
68
38
61
68
38
61
68
38
61
68
38
61
68
38
61
68
38
61
68
38
61
68
38
103
117
61
103
117
61
103
117
61
103
117
61
103
117
61
103
117
61
103
117
61
103
117
61
103
117
61
103
117
61
103
117
61
103
117
61
103
117
61
103
117
61
103
117
61
103
117
61
103
117
61
103
117
61
103
117
61
103
117
61
103
117
61
103
117
61
103
117
61
103
117
61
103
117
61
103
117
61
103
117
61
103
117
61
103
117
61
103
117
61
103
117
61
103
117
61
103
117
61
103
117
61
103
117
61
103
117
61
103
117
61
83
94
51
83
94
51
83
94
51
83
94
51