P3
75 50
255
49
56
55
49
56
55
49
56
55
49
56
55
49
56
55
49
56
55
37
38
29
37
38
29
37
38
29
37
38
29
37
38
29
37
38
29
37
38
29
37
38
29
37
38
29
37
38
29
68
78
40
68
78
40
68
78
40
68
78
40
90
104
46
103
117
55
103
117
55
103
117
55
103
117
55
103
117
55
103
117
55
103
117
55
107
118
56
107
118
56
107
118
56
107
118
56
107
118
56
107
118
56
107
116
59
107
116
59
107
116
59
107
116
59
102
109
56
102
109
56
102
109
56
102
109
56
102
109
56
103
113
55
103
113
55
102
110
49
102
110
49
102
110
49
102
110
49
102
110
49
102
110
49
102
110
49
101
107
44
101
107
44
101
107
44
101
107
44
101
107
44
101
107
44
101
107
44
101
107
44
94
99
43
94
99
43
94
99
43
94
99
43
94
99
43
78
84
37
78
84
37
78
84
37
78
84
37
78
84
37
78
84
37
78
84
37
78
84
37
78
84
37
78
84
37
49
56
55
49
56
55
49
56
55
49
56
55
49
56
55
49
56
55
37
38
29
37
38
29
37
38
29
37
38
29
37
38
29
37
38
29
37
38
29
37
38
29
37
38
29
68
78
40
68
78
40
68
78
40
68
78
40
68
78
40
90
104
46
90
104
46
103
117
55
103
117
55
103
117
55
103
117
55
103
117
55
103
117
55
103
117
55
107
118
56
107
118
56
107
118
56
107
118
56
107
118
56
107
116
59
107
116
59
107
116
59
107
116
59
102
109
56
102
109
56
102
109
56
102
109
56
102
109
56
103
113
55
103
113
55
102
110
49
102
110
49
102
110
49
102
110
49
102
110
49
102
110
49
102
110
49
101
107
44
101
107
44
101
107
44
101
107
44
101
107
44
101
107
44
101
107
44
101
107
44
94
99
43
94
99
43
94
99
43
94
99
43
94
99
43
78
84
37
78
84
37
78
84
37
78
84
37
78
84
37
78
84
37
78
84
37
78
84
37
78
84
37
78
84
37
49
56
55
49
56
55
49
56
55
49
56
55
49
56
55
49
56
55
37
38
29
37
38
29
37
38
29
37
38
29
37
38
29
37
38
29
37
38
29
37
38
29
37
38
29
68
78
40
68
78
40
68
78
40
68
78
40
68
78
40
90
104
46
90
104
46
90
104
46
103
117
55
103
117
55
103
117
55
103
117
55
103
117
55
103
117
55
103
117
55
107
118
56
107
118
56
107
118
56
107
118
56
107
116
59
107
116
59
107
116
59
107
116
59
102
109
56
102
109
56
102
109
56
102
109
56
103
113
55
103
113
55
103
113
55
102
110
49
102
110
49
102
110
49
102
110
49
102
110
49
102
110
49
102
110
49
102
110
49
101
107
44
101
107
44
101
107
44
101
107
44
101
107
44
102
108
48
102
108
48
94
99
43
94
99
43
94
99
43
94
99
43
87
93
46
87
93
46
78
84
37
78
84
37
78
84
37
78
84
37
78
84
37
78
84
37
78
84
37
78
84
37
78
84
37
49
56
55
49
56
55
49
56
55
49
56
55
49
56
55
49
56
55
37
38
29
37
38
29
37
38
29
37
38
29
37
38
29
37
38
29
37
38
29
37
38
29
37
38
29
68
78
40
68
78
40
68
78
40
68
78
40
68
78
40
90
104
46
90
104
46
90
104
46
90
104
46
103
117
55
103
117
55
103
117
55
103
117
55
103
117
55
103
117
55
103
117
55
107
118
56
107
118
56
107
118
56
107
116
59
107
116
59
107
116
59
107
116
59
102
109
56
102
109
56
102
109
56
103
113
55
103
113
55
103
113
55
103
113
55
103
113
55
102
110
49
102
110
49
102
110
49
102
110
49
102
110
49
102
110
49
102
110
49
101
107
44
101
107
44
101
107
44
102
108
48
102
108
48
102
108
48
102
108
48
94
99
43
94
99
43
94
99
43
94
99
43
87
93
46
87
93
46
87
93
46
78
84
37
78
84
37
78
84
37
78
84
37
78
84
37
78
84
37
78
84
37
78
84
37
49
56
55
49
56
55
49
56
55
49
56
55
49
56
55
49
56
55
37
38
29
37
38
29
37
38
29
37
38
29
37
38
29
37
38
29
37
38
29
37
38
29
37
38
29
68
78
40
68
78
40
68
78
40
68
78
40
68
78
40
90
104
46
90
104
46
90
104
46
90
104
46
90
104
46
103
117
55
103
117
55
103
117
55
103
117
55
103
117
55
103
117
55
103
117
55
107
118
56
107
118
56
107
116
59
107
116
59
107
116
59
107
116
59
102
109
56
107
118
60
107
118
60
107
118
60
103
113
55
103
113
55
103
113
55
103
113
55
102
110
49
102
110
49
102
110
49
102
110
49
102
110
49
102
110
49
102
110
49
101
107
44
102
108
48
102
108
48
102
108
48
102
108
48
102
108
48
102
108
48
94
99
43
94
99
43
94
99
43
94
99
43
87
93
46
87
93
46
87
93
46
87
93
46
78
84
37
78
84
37
78
84
37
78
84
37
78
84
37
78
84
37
78
84
37
49
56
55
49
56
55
49
56
55
49
56
55
49
56
55
49
56
55
37
38
29
37
38
29
37
38
29
37
38
29
37
38
29
37
38
29
37
38
29
37
38
29
68
78
40
68
78
40
68
78
40
68
78
40
68
78
40
68
78
40
90
104
46
90
104
46
90
104
46
90
104
46
90
104
46
90
104
46
103
117
55
103
117
55
103
117
55
103
117
55
103
117
55
103
117
55
103
117
55
118
126
55
118
126
55
107
116
59
107
116
59
107
116
59
107
118
60
107
118
60
107
118
60
107
118
60
107
118
60
103
113
55
103
113
55
103
113
55
102
110
49
102
110
49
102
110
49
102
110
49
102
110
49
102
110
49
102
110
49
102
108
48
102
108
48
102
108
48
102
108
48
102
108
48
102
108
48
102
108
48
94
99
43
94
99
43
94
99
43
87
93
46
87
93
46
87
93
46
87
93
46
87
93
46
87
93
46
78
84
37
78
84
37
78
84
37
78
84
37
78
84
37
78
84
37
49
56
55
49
56
55
49
56
55
49
56
55
49
56
55
41
43
36
37
38
29
37
38
29
37
38
29
37
38
29
37
38
29
37
38
29
37
38
29
37
38
29
68
78
40
68
78
40
68
78
40
68
78
40
68
78
40
68
78
40
68
78
40
90
104
46
90
104
46
90
104
46
90
104
46
90
104
46
90
104
46
103
117
55
103
117
55
103
117
55
103
117
55
103
117
55
118
126
55
118
126
55
118
126
55
118
126
55
118
126
55
118
126
55
107
118
60
107
118
60
107
118
60
107
118
60
107
118
60
107
118
60
107
118
60
103
113
55
102
110
49
102
110
49
102
110
49
102
110
49
102
110
49
102
110
49
102
115
50
104
112
53
104
112
53
104
112
53
104
112
53
104
112
53
104
112
53
104
112
53
95
103
51
95
103
51
95
103
51
87
93
46
87
93
46
87
93
46
87
93
46
87
93
46
87
93
46
87
93
46
78
84
37
78
84
37
78
84
37
61
72
36
61
72
36
49
56
55
49
56
55
49
56
55
49
56
55
41
43
36
41
43
36
37
38
29
37
38
29
37
38
29
37
38
29
37
38
29
37
38
29
37
38
29
37
38
29
68
78
40
68
78
40
68
78
40
68
78
40
68
78
40
68
78
40
68
78
40
90
104
46
90
104
46
90
104
46
90
104
46
90
104
46
90
104
46
90
104
46
103
117
55
103
117
55
103
117
55
118
126
55
118
126
55
118
126
55
118
126
55
118
126
55
118
126
55
118
126
55
107
118
60
107
118
60
107
118
60
107
118
60
107
118
60
107
118
60
107
118
60
102
116
54
102
116
54
102
116
54
102
116
54
102
116
54
102
116
52
102
115
50
102
115
50
102
115
50
104
112
53
104
112
53
104
112
53
104
112
53
104
112
53
104
112
53
95
103
51
95
103
51
95
103
51
95
103
51
87
93
46
87
93
46
87
93
46
87
93
46
87
93
46
87
93
46
87
93
46
61
72
36
61
72
36
61
72
36
61
72
36
49
56
55
49
56
55
49
56
55
41
43
36
41
43
36
41
43
36
37
38
29
37
38
29
37
38
29
37
38
29
37
38
29
37
38
29
37
38
29
37
38
29
68
78
40
68
78
40
68
78
40
68
78
40
68
78
40
68
78
40
68
78
40
90
104
46
90
104
46
90
104
46
90
104
46
90
104
46
90
104
46
90
104
46
112
122
69
112
122
69
118
126
55
118
126
55
118
126
55
118
126
55
118
126
55
118
126
55
118
126
55
118
126
55
107
118
60
107
118
60
107
118
60
107
118
60
107
118
60
107
118
60
102
116
54
102
116
54
102
116
54
102
116
54
102
116
54
102
116
52
102
116
52
102
115
50
102
115
50
102
115
50
104
112
53
104
112
53
104
112
53
104
112
53
104
112
53
104
112
53
95
103
51
95
103
51
95
103
51
95
103
51
87
93
46
87
93
46
87
93
46
87
93
46
87
93
46
87
93
46
61
72
36
61
72
36
61
72
36
61
72
36
61
72
36
49
56
55
49
56
55
41
43
36
41
43
36
41
43
36
41
43
36
37
38
29
37
38
29
37
38
29
37
38
29
37
38
29
37
38
29
37
38
29
64
64
44
68
78
40
68
78
40
68
78
40
68
78
40
68
78
40
68
78
40
68
78
40
90
104
46
90
104
46
90
104
46
90
104
46
90
104
46
90
104
46
112
122
69
112
122
69
112
122
69
118
126
55
118
126
55
118
126
55
118
126
55
118
126
55
118
126
55
118
126
55
118
126
55
118
126
55
107
118
60
107
118
60
107
118
60
107
118
60
102
116
54
102
116
54
102
116
54
102
116
54
102
116
54
102
116
54
102
116
52
102
116
52
102
115
50
102
115
50
102
115
50
102
115
50
104
112
53
104
112
53
104
112
53
104
112
53
104
112
53
95
103
51
95
103
51
95
103
51
95
103
51
95
103
51
87
93
46
87
93
46
87
93
46
87
93
46
87
93
46
61
72
36
61
72
36
61
72
36
61
72
36
61
72
36
49
56
55
41
43
36
41
43
36
41
43
36
41
43
36
41
43
36
37
38
29
37
38
29
37
38
29
37
38
29
37
38
29
37
38
29
64
64
44
64
64
44
64
64
44
68
78
40
68
78
40
68
78
40
68
78
40
68
78
40
68
78
40
90
104
46
90
104
46
90
104
46
90
104
46
90
104
46
112
122
69
112
122
69
112
122
69
112
122
69
112
122
69
138
134
58
118
126
55
118
126
55
118
126
55
118
126
55
118
126
55
118
126
55
118
126
55
107
118
60
107
118
60
107
118
60
102
116
54
102
116
54
102
116
54
102
116
54
102
116
54
102
116
54
102
116
52
102
116
52
102
116
52
102
115
50
102
115
50
102
115
50
102
115
50
104
112
53
104
112
53
104
112
53
104
112
53
104
112
53
95
103
51
95
103
51
95
103
51
95
103
51
95
103
51
95
103
51
87
93
46
87
93
46
87
93
46
61
72
36
61
72
36
61
72
36
61
72
36
61
72
36
61
72
36
41
43
36
41
43
36
41
43
36
41
43
36
41
43
36
41
43
36
37
38
29
37
38
29
37
38
29
37
38
29
37
38
29
37
38
29
64
64
44
64
64
44
64
64
44
64
64
44
68
78
40
68
78
40
68
78
40
68
78
40
68
78
40
90
104
46
90
104
46
90
104
46
90
104
46
112
122
69
112
122
69
112
122
69
112
122
69
112
122
69
128
129
83
138
134
58
138
134
58
138
134
58
138
134
58
138
134
58
138
134
58
118
126
55
118
126
55
107
118
60
107
118
60
102
116
54
102
116
54
102
116
54
102
116
54
102
116
54
102
116
54
102
116
54
102
116
52
102
116
52
102
116
52
102
115
50
102
115
50
102
115
50
102
115
50
102
115
50
104
112
53
104
112
53
104
112
53
104
112
53
95
103
51
95
103
51
95
103
51
95
103
51
95
103
51
95
103
51
87
93
46
87
93
46
61
72
36
61
72
36
61
72
36
61
72
36
61
72
36
61
72
36
61
72
36
41
43
36
41
43
36
41
43
36
41
43
36
41
43
36
41
43
36
37
38
29
37
38
29
37
38
29
37
38
29
37
38
29
64
64
44
64
64
44
64
64
44
64
64
44
64
64
44
64
64
44
68
78
40
68
78
40
68
78
40
68
78
40
90
104
46
90
104
46
90
104
46
112
122
69
112
122
69
112
122
69
112
122
69
112
122
69
128
129
83
128
129
83
138
134
58
138
134
58
138
134
58
138
134
58
138
134
58
138
134
58
138
134
58
138
134
58
138
134
58
102
116
54
102
116
54
102
116
54
102
116
54
102
116
54
102
116
54
102
116
54
102
116
52
102
116
52
102
116
52
102
116
52
102
115
50
102
115
50
102
115
50
102
115
50
102
115
50
104
112
53
104
112
53
104
112
53
104
112
53
95
103
51
95
103
51
95
103
51
95
103
51
95
103
51
95
103
51
95
103
51
61
72
36
61
72
36
61
72
36
61
72
36
61
72
36
61
72
36
61
72
36
61
72
36
41
43
36
41
43
36
41
43
36
41
43
36
41
43
36
41
43
36
41
43
36
37
38
29
37
38
29
37
38
29
64
64
44
64
64
44
64
64
44
64
64
44
64
64
44
64
64
44
64
64
44
64
64
44
68
78
40
68
78
40
68
78
40
68
78
40
90
104
46
112
122
69
112
122
69
112
122
69
112
122
69
112
122
69
128
129
83
128
129
83
128
129
83
138
134
58
138
134
58
138
134
58
138
134
58
138
134
58
138
134
58
138
134
58
138
134
58
138
134
58
88
97
42
102
116
54
102
116
54
102
116
54
102
116
54
102
116
54
102
116
54
102
116
52
102
116
52
102
116
52
87
103
41
102
115
50
102
115
50
102
115
50
102
115
50
102
115
50
88
104
43
88
104
43
88
102
48
88
102
48
88
102
48
88
102
48
88
102
48
95
103
51
95
103
51
95
103
51
95
103
51
61
72
36
61
72
36
61
72
36
61
72
36
61
72
36
61
72
36
61
72
36
61
72
36
41
43
36
41
43
36
41
43
36
41
43
36
41
43
36
41
43
36
41
43
36
37
38
29
37
38
29
37
38
29
64
64
44
64
64
44
64
64
44
64
64
44
64
64
44
64
64
44
64
64
44
64
64
44
64
64
44
68
78
40
68
78
40
68
78
40
112
122
69
112
122
69
112
122
69
112
122
69
112
122
69
128
129
83
128
129
83
128
129
83
128
129
83
138
134
58
138
134
58
138
134
58
138
134
58
138
134
58
138
134
58
138
134
58
138
134
58
88
97
42
88
97
42
78
89
35
88
103
40
88
103
40
88
103
40
88
103
40
89
105
41
89
105
41
89
105
41
89
105
41
87
103
41
87
103
41
102
115
50
102
115
50
102
115
50
88
104
43
88
104
43
88
104
43
88
102
48
88
102
48
88
102
48
88
102
48
88
102
48
88
102
48
88
102
48
88
102
48
88
102
48
61
72
36
61
72
36
61
72
36
61
72
36
61
72
36
61
72
36
61
72
36
61
72
36
41
43
36
41
43
36
41
43
36
41
43
36
41
43
36
41
43
36
41
43
36
37
38
29
37
38
29
64
64
44
64
64
44
64
64
44
64
64
44
64
64
44
64
64
44
64
64
44
64
64
44
64
64
44
90
91
62
90
91
62
90
91
62
90
91
62
112
122
69
112
122
69
112
122
69
112
122
69
128
129
83
128
129
83
128
129
83
128
129
83
132
134
122
130
131
71
130
131
71
130
131
71
130
131
71
130
131
71
130
131
71
130
131
71
88
97
42
88
97
42
88
97
42
78
89
35
78
89
35
88
103
40
88
103
40
88
103
40
88
103
40
89
105
41
89
105
41
89
105
41
87
103
41
87
103
41
87
103
41
102
115
50
88
104
43
88
104
43
88
104
43
88
104
43
88
102
48
88
102
48
88
102
48
88
102
48
88
102
48
88
102
48
88
102
48
88
102
48
88
102
48
61
72
36
61
72
36
61
72
36
61
72
36
61
72
36
61
72
36
61
72
36
61
72
36
41
43
36
41
43
36
41
43
36
41
43
36
41
43
36
41
43
36
41
43
36
37
38
29
64
64
44
64
64
44
64
64
44
64
64
44
64
64
44
64
64
44
64
64
44
90
91
62
90
91
62
90
91
62
90
91
62
90
91
62
90
91
62
90
91
62
90
91
62
112
122
69
112
122
69
128
129
83
128
129
83
128
129
83
132
134
122
132
134
122
132
134
122
132
134
122
130
131
71
130
131
71
130
131
71
130
131
71
130
131
71
130
131
71
88
97
42
88
97
42
88
97
42
78
89
35
78
89
35
88
103
40
88
103
40
88
103
40
88
103
40
88
103
40
89
105
41
89
105
41
87
103
41
87
103
41
87
103
41
88
104
43
88
104
43
88
104
43
88
104
43
88
104
43
88
102
48
88
102
48
88
102
48
88
102
48
88
102
48
88
102
48
88
102
48
88
102
48
88
102
48
88
102
48
61
72
36
61
72
36
61
72
36
61
72
36
61
72
36
61
72
36
61
72
36
41
43
36
41
43
36
41
43
36
41
43
36
41
43
36
41
43
36
41
43
36
37
38
29
64
64
44
64
64
44
64
64
44
90
91
62
90
91
62
90
91
62
90
91
62
90
91
62
90
91
62
90
91
62
90
91
62
90
91
62
90
91
62
90
91
62
90
91
62
90
91
62
128
129
83
128
129
83
132
134
122
132
134
122
132
134
122
132
134
122
132
134
122
132
134
122
130
131
71
130
131
71
130
131
71
130
131
71
130
131
71
88
97
42
88
97
42
88
97
42
88
97
42
78
89
35
78
89
35
78
89
35
88
103
40
88
103
40
88
103
40
88
103
40
88
103
40
130
136
78
130
136
78
130
136
78
130
136
78
130
136
78
88
104
43
88
104
43
88
104
43
88
104
43
88
102
48
88
102
48
88
102
48
88
102
48
88
102
48
88
102
48
88
102
48
88
102
48
88
102
48
81
96
49
73
88
47
61
72
36
61
72
36
61
72
36
61
72
36
61
72
36
61
72
36
41
43
36
41
43
36
41
43
36
41
43
36
41
43
36
41
43
36
41
43
36
64
64
44
90
91
62
90
91
62
90
91
62
90
91
62
90
91
62
90
91
62
90
91
62
90
91
62
90
91
62
90
91
62
90
91
62
90
91
62
90
91
62
90
91
62
90
91
62
90
91
62
131
132
68
131
132
68
132
134
122
132
134
122
132
134
122
132
134
122
132
134
122
132
134
122
77
80
39
130
131
71
130
131
71
130
131
71
130
131
71
88
97
42
88
97
42
88
97
42
88
97
42
78
89
35
78
89
35
78
89
35
88
103
40
88
103
40
88
103
40
88
103
40
88
103
40
130
136
78
130
136
78
130
136
78
130
136
78
130
136
78
88
104
43
88
104
43
88
104
43
88
104
43
88
102
48
88
102
48
88
102
48
88
102
48
88
102
48
88
102
48
88
102
48
88
102
48
81
96
49
81
96
49
73
88
47
73
88
47
73
88
47
73
88
47
61
72
36
61
72
36
61
72
36
57
56
49
57
56
49
41
43
36
41
43
36
41
43
36
41
43
36
41
43
36
90
91
62
90
91
62
90
91
62
90
91
62
90
91
62
90
91
62
90
91
62
90
91
62
90
91
62
90
91
62
90
91
62
90
91
62
90
91
62
90
91
62
90
91
62
90
91
62
131
132
68
131
132
68
131
132
68
131
132
68
131
132
68
132
134
122
77
80
39
77
80
39
77
80
39
77
80
39
77
80
39
77
80
39
130
131
71
88
97
42
88
97
42
88
97
42
88
97
42
88
97
42
78
89
35
78
89
35
78
89
35
78
89
35
88
103
40
103
104
46
103
104
46
103
104
46
130
136
78
130
136
78
130
136
78
130
136
78
130
136
78
130
136
78
88
104
43
88
104
43
88
104
43
86
100
47
86
100
47
86
100
47
86
100
47
86
100
47
86
100
47
86
100
47
81
96
49
81
96
49
81
96
49
73
88
47
73
88
47
73
88
47
73
88
47
68
79
46
68
79
46
49
59
34
57
56
49
57
56
49
57
56
49
57
56
49
57
56
49
57
56
49
57
56
49
69
71
53
69
71
53
69
71
53
69
71
53
69
71
53
69
71
53
69
71
53
69
71
53
69
71
53
69
71
53
69
71
53
69
71
53
69
71
53
69
71
53
69
71
53
69
71
53
131
132
68
131
132
68
131
132
68
131
132
68
131
132
68
131
132
68
77
80
39
77
80
39
77
80
39
77
80
39
77
80
39
77
80
39
77
80
39
88
97
42
88
97
42
88
97
42
88
97
42
88
97
42
78
89
35
78
89
35
78
89
35
78
89
35
103
104
46
103
104
46
103
104
46
103
104
46
103
104
46
130
136
78
130
136
78
130
136
78
130
136
78
130
136
78
94
104
50
94
104
50
86
100
47
86
100
47
86
100
47
86
100
47
86
100
47
86
100
47
86
100
47
81
96
49
81
96
49
81
96
49
81
96
49
73
88
47
73
88
47
73
88
47
73
88
47
68
79
46
68
79
46
49
59
34
57
56
49
57
56
49
57
56
49
57
56
49
57
56
49
57
56
49
57
56
49
57
56
49
69
71
53
69
71
53
69
71
53
69
71
53
69
71
53
69
71
53
69
71
53
69
71
53
69
71
53
69
71
53
69
71
53
69
71
53
69
71
53
69
71
53
69
71
53
131
132
68
131
132
68
131
132
68
131
132
68
131
132
68
131
132
68
131
132
68
77
80
39
77
80
39
77
80
39
77
80
39
107
115
65
107
115
65
88
97
42
88
97
42
88
97
42
88
97
42
88
97
42
78
89
35
78
89
35
78
89
35
78
89
35
103
104
46
103
104
46
103
104
46
103
104
46
103
104
46
103
104
46
130
136
78
130
136
78
130
136
78
130
136
78
94
104
50
94
104
50
94
104
50
86
100
47
86
100
47
86
100
47
86
100
47
86
100
47
86
100
47
81
96
49
81
96
49
81
96
49
81
96
49
73
88
47
73
88
47
73
88
47
73
88
47
68
79
46
68
79
46
49
59
34
57
56
49
57
56
49
57
56
49
57
56
49
57
56
49
57
56
49
57
56
49
57
56
49
69
71
53
69
71
53
69
71
53
69
71
53
69
71
53
69
71
53
69
71
53
69
71
53
69
71
53
69
71
53
69
71
53
69
71
53
69
71
53
69
71
53
69
71
53
131
132
68
131
132
68
131
132
68
131
132
68
131
132
68
131
132
68
131
132
68
131
132
68
107
115
65
107
115
65
107
115
65
107
115
65
107
115
65
107
115
65
88
97
42
88
97
42
88
97
42
88
97
42
78
89
35
78
89
35
62
71
32
62
71
32
103
104
46
103
104
46
103
104
46
103
104
46
103
104
46
103
104
46
130
136
78
130
136
78
130
136
78
94
104
50
94
104
50
94
104
50
94
104
50
86
100
47
86
100
47
86
100
47
86
100
47
86
100
47
86
100
47
81
96
49
81
96
49
81
96
49
81
96
49
73
88
47
73
88
47
73
88
47
73
88
47
68
79
46
68
79
46
49
59
34
57
56
49
57
56
49
57
56
49
57
56
49
57
56
49
57
56
49
57
56
49
57
56
49
57
56
49
69
71
53
69
71
53
69
71
53
69
71
53
69
71
53
69
71
53
69
71
53
69
71
53
69
71
53
69
71
53
69
71
53
69
71
53
69
71
53
105
112
72
105
112
72
131
132
68
131
132
68
131
132
68
131
132
68
131
132
68
131
132
68
107
115
65
107
115
65
107
115
65
107
115
65
107
115
65
107
115
65
107
115
65
88
97
42
88
97
42
88
97
42
88
97
42
62
71
32
62
71
32
62
71
32
62
71
32
62
71
32
103
104
46
103
104
46
103
104
46
103
104
46
103
104
46
103
104
46
193
189
97
94
104
50
94
104
50
94
104
50
94
104
50
94
104
50
94
104
50
86
100
47
86
100
47
86
100
47
86
100
47
81
96
49
81
96
49
81
96
49
81
96
49
81
96
49
73
88
47
73
88
47
73
88
47
73
88
47
68
79
46
68
79
46
49
59
34
57
56
49
57
56
49
57
56
49
57
56
49
57
56
49
57
56
49
57
56
49
57
56
49
57
56
49
62
64
43
62
64
43
62
64
43
62
64
43
62
64
43
62
64
43
62
64
43
62
64
43
69
71
53
69
71
53
69
71
53
69
71
53
102
113
61
102
113
61
105
112
72
105
112
72
105
112
72
105
112
72
105
112
72
131
132
68
131
132
68
107
115
65
107
115
65
107
115
65
107
115
65
107
115
65
107
115
65
107
115
65
107
115
65
88
97
42
88
97
42
62
71
32
62
71
32
62
71
32
62
71
32
62
71
32
62
71
32
62
71
32
103
104
46
103
104
46
103
104
46
193
189
97
193
189
97
193
189
97
193
189
97
94
104
50
94
104
50
94
104
50
94
104
50
94
104
50
86
100
47
86
100
47
86
100
47
90
100
58
90
100
58
81
96
49
81
96
49
81
96
49
81
96
49
73
88
47
73
88
47
73
88
47
68
79
46
68
79
46
68
79
46
49
59
34
57
56
49
57
56
49
57
56
49
57
56
49
57
56
49
57
56
49
57
56
49
57
56
49
57
56
49
62
64
43
62
64
43
62
64
43
62
64
43
62
64
43
62
64
43
62
64
43
62
64
43
62
64
43
62
64
43
62
64
43
62
64
43
102
113
61
102
113
61
102
113
61
105
112
72
105
112
72
105
112
72
105
112
72
105
112
72
105
112
72
107
115
65
107
115
65
107
115
65
107
115
65
107
115
65
107
115
65
107
115
65
107
115
65
62
71
32
62
71
32
62
71
32
62
71
32
62
71
32
62
71
32
62
71
32
62
71
32
62
71
32
62
71
32
193
189
97
193
189
97
193
189
97
193
189
97
193
189
97
193
189
97
167
166
91
94
104
50
94
104
50
94
104
50
94
104
50
94
104
50
86
100
47
90
100
58
90
100
58
90
100
58
81
96
49
81
96
49
81
96
49
81
96
49
73
88
47
73
88
47
73
88
47
68
79
46
68
79
46
68
79
46
49
59
34
57
56
49
57
56
49
57
56
49
57
56
49
57
56
49
57
56
49
57
56
49
57
56
49
57
56
49
62
64
43
62
64
43
62
64
43
62
64
43
62
64
43
62
64
43
62
64
43
62
64
43
62
64
43
62
64
43
62
64
43
102
113
61
102
113
61
102
113
61
102
113
61
105
112
72
105
112
72
105
112
72
105
112
72
105
112
72
105
112
72
105
112
72
107
115
65
107
115
65
107
115
65
107
115
65
107
115
65
107
115
65
107
115
65
98
103
65
98
103
65
98
103
65
98
103
65
98
103
65
98
103
65
98
103
65
98
103
65
98
103
65
98
103
65
193
189
97
193
189
97
193
189
97
193
189
97
193
189
97
167
166
91
167
166
91
167
166
91
105
110
77
94
104
50
94
104
50
94
104
50
90
100
58
90
100
58
90
100
58
90
100
58
90
100
58
81
96
49
81
96
49
81
96
49
73
88
47
73
88
47
73
88
47
68
79
46
68
79
46
68
79
46
49
59
34
57
56
49
57
56
49
57
56
49
57
56
49
57
56
49
57
56
49
57
56
49
57
56
49
57
56
49
62
64
43
62
64
43
62
64
43
62
64
43
62
64
43
62
64
43
62
64
43
62
64
43
62
64
43
62
64
43
62
64
43
102
113
61
102
113
61
102
113
61
102
113
61
102
113
61
105
112
72
105
112
72
105
112
72
105
112
72
105
112
72
105
112
72
122
132
87
122
132
87
122
132
87
122
132
87
122
132
87
107
115
65
107
115
65
98
103
65
98
103
65
98
103
65
98
103
65
98
103
65
98
103
65
98
103
65
98
103
65
98
103
65
98
103
65
193
189
97
193
189
97
193
189
97
193
189
97
193
189
97
167
166
91
167
166
91
105
110
77
105
110
77
105
110
77
105
110
77
90
100
58
90
100
58
90
100
58
90
100
58
90
100
58
90
100
58
90
100
58
81
96
49
81
96
49
73
88
47
73
88
47
73
88
47
68
79
46
68
79
46
68
79
46
49
59
34
57
56
49
57
56
49
57
56
49
57
56
49
57
56
49
57
56
49
57
56
49
57
56
49
57
56
49
62
64
43
62
64
43
62
64
43
62
64
43
62
64
43
62
64
43
62
64
43
62
64
43
62
64
43
62
64
43
62
64
43
102
113
61
102
113
61
102
113
61
102
113
61
102
113
61
102
113
61
105
112
72
105
112
72
105
112
72
105
112
72
122
132
87
122
132
87
122
132
87
122
132
87
122
132
87
122
132
87
118
132
83
118
132
83
98
103
65
98
103
65
98
103
65
98
103
65
98
103
65
98
103
65
98
103
65
98
103
65
98
103
65
98
103
65
193
189
97
193
189
97
193
189
97
193
189
97
167
166
91
167
166
91
167
166
91
105
110
77
105
110
77
105
110
77
105
110
77
90
100
58
90
100
58
90
100
58
90
100
58
90
100
58
90
100
58
118
122
91
118
122
91
118
122
91
118
122
91
73
88
47
73
88
47
68
79
46
68
79
46
68
79
46
49
59
34
57
56
49
57
56
49
57
56
49
57
56
49
57
56
49
57
56
49
57
56
49
57
56
49
57
56
49
62
64
43
62
64
43
62
64
43
62
64
43
62
64
43
62
64
43
62
64
43
62
64
43
62
64
43
62
64
43
62
64
43
102
113
61
102
113
61
102
113
61
102
113
61
102
113
61
102
113
61
102
113
61
105
112
72
105
112
72
122
132
87
122
132
87
122
132
87
122
132
87
122
132
87
122
132
87
118
132
83
118
132
83
118
132
83
118
132
83
98
103
65
98
103
65
98
103
65
98
103
65
98
103
65
98
103
65
98
103
65
98
103
65
98
103
65
193
189
97
193
189
97
193
189
97
193
189
97
167
166
91
167
166
91
105
110
77
105
110
77
105
110
77
105
110
77
105
110
77
105
110
77
90
100
58
90
100
58
90
100
58
90
100
58
118
122
91
118
122
91
118
122
91
118
122
91
118
122
91
118
122
91
64
79
40
68
79
46
68
79
46
68
79
46
49
59
34
57
56
49
57
56
49
57
56
49
57
56
49
57
56
49
57
56
49
57
56
49
57
56
49
57
56
49
62
64
43
62
64
43
62
64
43
62
64
43
62
64
43
62
64
43
62
64
43
62
64
43
62
64
43
62
64
43
62
64
43
102
113
61
102
113
61
102
113
61
102
113
61
102
113
61
102
113
61
122
138
77
122
138
77
122
132
87
122
132
87
122
132
87
122
132
87
122
132
87
122
132
87
118
132
83
118
132
83
118
132
83
118
132
83
105
121
75
105
121
75
98
103
65
98
103
65
98
103
65
98
103
65
98
103
65
95
102
68
95
102
68
82
88
57
68
75
32
68
75
32
68
75
32
68
75
32
167
166
91
167
166
91
105
110
77
105
110
77
105
110
77
105
110
77
105
110
77
86
99
58
86
99
58
86
99
58
90
100
58
90
100
58
118
122
91
118
122
91
118
122
91
118
122
91
118
122
91
64
79
40
64
79
40
64
79
40
41
55
23
41
55
23
41
55
23
57
56
49
57
56
49
57
56
49
57
56
49
57
56
49
57
56
49
57
56
49
57
56
49
57
56
49
62
64
43
62
64
43
62
64
43
62
64
43
62
64
43
62
64
43
62
64
43
62
64
43
62
64
43
62
64
43
62
64
43
102
113
61
102
113
61
102
113
61
102
113
61
102
113
61
122
138
77
122
138
77
122
138
77
122
138
77
122
132
87
122
132
87
122
132
87
122
132
87
118
132
83
118
132
83
118
132
83
118
132
83
105
121
75
105
121
75
105
121
75
95
102
68
95
102
68
95
102
68
95
102
68
95
102
68
95
102
68
95
102
68
82
88
57
82
88
57
68
75
32
68
75
32
68
75
32
68
75
32
105
110
77
105
110
77
105
110
77
105
110
77
105
110
77
85
98
59
86
99
58
86
99
58
86
99
58
86
99
58
86
99
58
118
122
91
118
122
91
70
87
42
70
87
42
70
87
42
64
79
40
64
79
40
41
55
23
41
55
23
41
55
23
41
55
23
57
56
49
57
56
49
57
56
49
57
56
49
57
56
49
57
56
49
57
56
49
57
56
49
57
56
49
41
47
23
62
64
43
62
64
43
62
64
43
62
64
43
62
64
43
62
64
43
62
64
43
62
64
43
96
109
54
96
109
54
96
109
54
102
113
61
102
113
61
102
113
61
122
138
77
122
138
77
122
138
77
122
138
77
122
138
77
122
132
87
122
132
87
122
132
87
118
132
83
118
132
83
118
132
83
118
132
83
105
121
75
105
121
75
105
121
75
105
121
75
105
121
75
95
102
68
95
102
68
95
102
68
95
102
68
95
102
68
95
102
68
82
88
57
82
88
57
68
75
32
68
75
32
68
75
32
68
75
32
68
75
32
105
110
77
105
110
77
85
98
59
85
98
59
85
98
59
85
98
59
86
99
58
86
99
58
86
99
58
86
99
58
74
93
45
74
93
45
70
87
42
70
87
42
70
87
42
64
79
40
64
79
40
41
55
23
41
55
23
41
55
23
41
55
23
57
56
49
57
56
49
57
56
49
57
56
49
57
56
49
57
56
49
57
56
49
57
56
49
41
47
23
41
47
23
41
47
23
41
47
23
41
47
23
41
47
23
41
47
23
96
109
54
96
109
54
96
109
54
96
109
54
96
109
54
96
109
54
96
109
54
122
138
77
122
138
77
122
138
77
122
138
77
122
138
77
122
138
77
122
138
77
122
138
77
122
132
87
118
132
83
118
132
83
118
132
83
118
132
83
105
121
75
105
121
75
105
121
75
105
121
75
105
121
75
105
121
75
95
102
68
95
102
68
95
102
68
95
102
68
95
102
68
95
102
68
82
88
57
82
88
57
82
88
57
68
75
32
68
75
32
68
75
32
68
75
32
97
107
65
85
98
59
85
98
59
85
98
59
85
98
59
85
98
59
86
99
58
86
99
58
86
99
58
86
99
58
74
93
45
74
93
45
63
81
35
63
81
35
63
81
35
64
79
40
64
79
40
41
55
23
41
55
23
41
55
23
41
55
23
57
56
49
57
56
49
57
56
49
36
41
23
36
41
23
36
41
23
36
41
23
36
41
23
36
41
23
41
47
23
41
47
23
41
47
23
41
47
23
41
47
23
41
47
23
41
47
23
96
109
54
96
109
54
96
109
54
96
109
54
96
109
54
96
109
54
96
109
54
122
138
77
122
138
77
122
138
77
122
138
77
122
138
77
122
138
77
122
138
77
118
132
83
118
132
83
118
132
83
118
132
83
105
121
75
105
121
75
105
121
75
105
121
75
105
121
75
105
121
75
105
121
75
95
102
68
95
102
68
95
102
68
95
102
68
95
102
68
95
102
68
82
88
57
82
88
57
82
88
57
68
75
32
68
75
32
68
75
32
97
107
65
97
107
65
97
107
65
85
98
59
85
98
59
85
98
59
85
98
59
86
99
58
86
99
58
86
99
58
74
93
45
74
93
45
74
93
45
74
93
45
63
81
35
63
81
35
64
79
40
41
55
23
41
55
23
41
55
23
41
55
23
41
55
23
36
41
23
36
41
23
36
41
23
36
41
23
36
41
23
36
41
23
36
41
23
36
41
23
36
41
23
41
47
23
41
47
23
41
47
23
41
47
23
41
47
23
41
47
23
41
47
23
96
109
54
96
109
54
96
109
54
96
109
54
96
109
54
96
109
54
96
109
54
122
138
77
122
138
77
122
138
77
122
138
77
122
138
77
122
138
77
122
138
77
118
132
83
118
132
83
118
132
83
105
121
75
105
121
75
105
121
75
105
121
75
105
121
75
105
121
75
105
121
75
105
121
75
95
102
68
95
102
68
95
102
68
95
102
68
95
102
68
95
102
68
82
88
57
82
88
57
82
88
57
82
88
57
68
75
32
68
75
32
97
107
65
97
107
65
97
107
65
97
107
65
85
98
59
85
98
59
110
120
83
110
120
83
86
99
58
81
100
53
81
100
53
74
93
45
74
93
45
74
93
45
63
81
35
63
81
35
63
81
35
41
55
23
41
55
23
41
55
23
41
55
23
41
55
23
36
41
23
36
41
23
36
41
23
36
41
23
36
41
23
36
41
23
36
41
23
36
41
23
36
41
23
41
47
23
41
47
23
41
47
23
41
47
23
41
47
23
41
47
23
41
47
23
41
47
23
96
109
54
96
109
54
96
109
54
96
109
54
96
109
54
96
109
54
96
109
54
122
138
77
122
138
77
122
138
77
122
138
77
122
138
77
122
138
77
118
132
83
118
132
83
128
146
85
128
146
85
128
146
85
128
146
85
128
146
85
128
146
85
128
146
85
128
146
85
128
146
85
109
117
68
109
117
68
109
117
68
109
117
68
109
117
68
109
117
68
109
117
68
82
88
57
82
88
57
82
88
57
68
75
32
97
107
65
97
107
65
97
107
65
97
107
65
97
107
65
97
107
65
110
120
83
110
120
83
110
120
83
110
120
83
81
100
53
81
100
53
81
100
53
74
93
45
74
93
45
74
93
45
63
81
35
63
81
35
41
55
23
41
55
23
41
55
23
41
55
23
41
55
23
36
41
23
36
41
23
36
41
23
36
41
23
36
41
23
36
41
23
36
41
23
36
41
23
19
20
14
41
47
23
41
47
23
41
47
23
41
47
23
41
47
23
41
47
23
41
47
23
41
47
23
96
109
54
96
109
54
96
109
54
96
109
54
96
109
54
96
109
54
96
109
54
122
138
77
122
138
77
122
138
77
122
138
77
122
138
77
122
138
77
122
138
77
128
146
85
128
146
85
128
146
85
128
146
85
128
146
85
128
146
85
128
146
85
128
146
85
128
146
85
116
131
72
109
117
68
109
117
68
109
117
68
109
117
68
109
117
68
109
117
68
109
117
68
109
117
68
109
117
68
82
88
57
82
88
57
97
107
65
97
107
65
97
107
65
97
107
65
97
107
65
97
107
65
110
120
83
110
120
83
110
120
83
110
120
83
81
100
53
81
100
53
81
100
53
81
100
53
74
93
45
74
93
45
63
81
35
63
81
35
41
55
23
41
55
23
41
55
23
41
55
23
41
55
23
36
41
23
36
41
23
36
41
23
36
41
23
36
41
23
36
41
23
36
41
23
36
41
23
19
20
14
19
20
14
41
47
23
41
47
23
41
47
23
41
47
23
41
47
23
41
47
23
41
47
23
96
109
54
96
109
54
96
109
54
96
109
54
96
109
54
96
109
54
96
109
54
96
109
54
122
138
77
122
138
77
122
138
77
122
138
77
122
138
77
128
146
85
128
146
85
128
146
85
128
146
85
128
146
85
128
146
85
128
146
85
128
146
85
116
131
72
116
131
72
116
131
72
116
131
72
109
117
68
109
117
68
109
117
68
109
117
68
109
117
68
109
117
68
109
117
68
109
117
68
109
117
68
113
126
63
97
107
65
97
107
65
97
107
65
97
107
65
97
107
65
97
107
65
110
120
83
110
120
83
94
114
59
94
114
59
81
100
53
81
100
53
81
100
53
81
100
53
81
100
53
74
93
45
74
93
45
63
81
35
41
55
23
41
55
23
41
55
23
41
55
23
41
55
23
36
41
23
36
41
23
36
41
23
36
41
23
36
41
23
36
41
23
36
41
23
19
20
14
19
20
14
19
20
14
19
20
14
41
47
23
41
47
23
41
47
23
41
47
23
41
47
23
41
47
23
41
47
23
96
109
54
96
109
54
96
109
54
96
109
54
96
109
54
96
109
54
96
109
54
122
138
77
122
138
77
123
144
66
123
144
66
123
144
66
128
146
85
128
146
85
128
146
85
128
146
85
128
146
85
128
146
85
116
131
72
116
131
72
116
131
72
116
131
72
116
131
72
116
131
72
109
117
68
109
117
68
109
117
68
109
117
68
109
117
68
109
117
68
109
117
68
109
117
68
113
126
63
113
126
63
113
126
63
97
107
65
97
107
65
97
107
65
97
107
65
97
107
65
94
114
59
94
114
59
94
114
59
94
114
59
94
114
59
81
100
53
81
100
53
81
100
53
81
100
53
81
100
53
74
93
45
63
81
35
41
55
23
48
60
29
48
60
29
48
60
29
48
60
29
36
41
23
36
41
23
36
41
23
36
41
23
36
41
23
36
41
23
19
20
14
19
20
14
19
20
14
19
20
14
19
20
14
41
47
23
41
47
23
41
47
23
41
47
23
41
47
23
41
47
23
41
47
23
96
109
54
96
109
54
96
109
54
96
109
54
96
109
54
101
117
49
101
117
49
123
144
66
123
144
66
123
144
66
123
144
66
123
144
66
123
144
66
109
130
59
115
135
67
115
135
67
116
131
72
116
131
72
116
131
72
116
131
72
116
131
72
116
131
72
116
131
72
116
131
72
109
117
68
109
117
68
109
117
68
109
117
68
109
117
68
109
117
68
109
117
68
113
126
63
113
126
63
113
126
63
113
126
63
113
126
63
113
126
63
97
107
65
97
107
65
94
114
59
94
114
59
94
114
59
94
114
59
94
114
59
94
114
59
94
114
59
94
114
59
81
100
53
81
100
53
81
100
53
81
100
53
48
60
29
48
60
29
48
60
29
48
60
29
48
60
29
48
60
29
36
41
23
36
41
23
36
41
23
36
41
23
36
41
23
36
41
23
19
20
14
19
20
14
19
20
14
19
20
14
19
20
14
19
20
14
41
47
23
41
47
23
41
47
23
41
47
23
41
47
23
41
47
23
41
47
23
96
109
54
101
117
49
101
117
49
101
117
49
101
117
49
101
117
49
123
144
66
123
144
66
123
144
66
123
144
66
123
144
66
123
144
66
109
130
59
109
130
59
115
135
67
115
135
67
115
135
67
116
131
72
116
131
72
116
131
72
116
131
72
116
131
72
116
131
72
115
128
62
115
128
62
115
128
62
109
117
68
109
117
68
109
117
68
113
126
63
113
126
63
113
126
63
113
126
63
113
126
63
113
126
63
113
126
63
113
126
63
94
114
59
94
114
59
94
114
59
94
114
59
94
114
59
94
114
59
94
114
59
94
114
59
94
114
59
94
114
59
81
100
53
81
100
53
48
60
29
48
60
29
48
60
29
48
60
29
48
60
29
48
60
29
48
60
29
36
41
23
36
41
23
36
41
23
36
41
23
36
41
23
19
20
14
19
20
14
19
20
14
19
20
14
19
20
14
19
20
14
19
20
14
19
20
14
41
47
23
41
47
23
41
47
23
41
47
23
41
47
23
101
117
49
101
117
49
101
117
49
101
117
49
101
117
49
101
117
49
101
117
49
123
144
66
123
144
66
123
144
66
123
144
66
123
144
66
123
144
66
109
130
59
109
130
59
115
135
67
115
135
67
115
135
67
115
135
67
116
131
72
116
131
72
116
131
72
116
131
72
115
128
62
115
128
62
115
128
62
115
128
62
115
128
62
115
128
62
113
126
63
113
126
63
113
126
63
113
126
63
113
126
63
113
126
63
113
126
63
113
126
63
113
126
63
94
114
59
94
114
59
94
114
59
94
114
59
94
114
59
94
114
59
94
114
59
94
114
59
94
114
59
94
114
59
94
114
59
81
100
53
48
60
29
48
60
29
48
60
29
48
60
29
48
60
29
48
60
29
48
60
29
36
41
23
36
41
23
36
41
23
36
41
23
36
41
23
19
20
14
19
20
14
19
20
14
19
20
14
19
20
14
19
20
14
19
20
14
19
20
14
41
47
23
41
47
23
41
47
23
41
47
23
101
117
49
101
117
49
101
117
49
101
117
49
101
117
49
101
117
49
101
117
49
101
117
49
123
144
66
123
144
66
123
144
66
123
144
66
123
144
66
123
144
66
109
130
59
109
130
59
109
130
59
115
135
67
115
135
67
115
135
67
108
127
58
108
127
58
108
127
58
115
128
62
115
128
62
115
128
62
115
128
62
115
128
62
115
128
62
115
128
62
113
126
63
113
126
63
113
126
63
113
126
63
113
126
63
113
126
63
113
126
63
113
126
63
113
126
63
94
118
51
94
118
51
94
114
59
94
114
59
94
114
59
94
114
59
94
114
59
94
114
59
94
114
59
94
114
59
94
114
59
48
60
29
48
60
29
48
60
29
48
60
29
48
60
29
48
60
29
48
60
29
48
60
29
36
41
23
36
41
23
36
41
23
36
41
23
19
20
14
19
20
14
19
20
14
19
20
14
19
20
14
19
20
14
19
20
14
19
20
14
19
20
14
19
20
14
41
47
23
41
47
23
101
117
49
101
117
49
101
117
49
101
117
49
101
117
49
101
117
49
101
117
49
101
117
49
101
117
49
123
144
66
123
144
66
123
144
66
123
144
66
123
144
66
123
144
66
109
130
59
109
130
59
109
130
59
115
135
67
115
135
67
115
135
67
108
127
58
108
127
58
108
127
58
115
128
62
115
128
62
115
128
62
115
128
62
115
128
62
115
128
62
115
128
62
115
128
62
113
126
63
113
126
63
113
126
63
113
126
63
113
126
63
113
126
63
113
126
63
94
118
51
94
118
51
94
118
51
94
118
51
94
118
51
94
114
59
94
114
59
94
114
59
94
114
59
94
114
59
94
114
59
94
114
59
48
60
29
48
60
29
48
60
29
48
60
29
48
60
29
48
60
29
48
60
29
48
60
29
36
41
23
36
41
23
36
41
23
19
20
14
19
20
14
19
20
14
19
20
14
19
20
14
19
20
14
19
20
14
19
20
14
19
20
14
19
20
14
19
20
14
19
20
14
61
73
26
61
73
26
101
117
49
101
117
49
101
117
49
101
117
49
101
117
49
101
117
49
101
117
49
101
117
49
123
144
66
123
144
66
123
144
66
123
144
66
123
144
66
123
144
66
109
130
59
109
130
59
109
130
59
109
130
59
115
135
67
108
127
58
108
127
58
108
127
58
108
127
58
108
127
58
115
128
62
115
128
62
115
128
62
115
128
62
115
128
62
115
128
62
108
124
52
108
124
52
108
124
52
108
124
52
113
126
63
113
126
63
113
126
63
113
126
63
94
118
51
94
118
51
94
118
51
94
118
51
94
118
51
94
118
51
94
118
51
94
118
51
94
114
59
94
114
59
94
114
59
94
114
59
48
60
29
48
60
29
48
60
29
48
60
29
48
60
29
48
60
29
48
60
29
48
60
29
36
41
23
36
41
23
36
41
23
19
20
14
19
20
14
19
20
14
19
20
14
19
20
14
19
20
14
19
20
14
19
20
14
19
20
14
19
20
14
19
20
14
61
73
26
61
73
26
61
73
26
61
73
26
61
73
26
101
117
49
101
117
49
101
117
49
101
117
49
101
117
49
104
125
46
104
125
46
123
144
66
123
144
66
123
144
66
99
121
47
99
121
47
109
130
59
109
130
59
109
130
59
109
130
59
115
135
67
108
127
58
108
127
58
108
127
58
108
127
58
108
127
58
115
128
62
115
128
62
115
128
62
115
128
62
115
128
62
115
128
62
108
124
52
108
124
52
108
124
52
108
124
52
108
124
52
108
124
52
108
124
52
94
118
51
94
118
51
94
118
51
94
118
51
94
118
51
94
118
51
94
118
51
94
118
51
94
118
51
94
118
51
94
118
51
94
114
59
48
60
29
48
60
29
48
60
29
48
60
29
48
60
29
48
60
29
48
60
29
48
60
29
48
60
29
36
41
23
36
41
23
19
20
14
19
20
14
19
20
14
19
20
14
19
20
14
19
20
14
19
20
14
19
20
14
19
20
14
19
20
14
19
20
14
19
20
14
61
73
26
61
73
26
61
73
26
61
73
26
61
73
26
61
73
26
61
73
26
101
117
49
96
115
42
96
115
42
104
125
46
104
125
46
104
125
46
123
144
66
99
121
47
99
121
47
99
121
47
99
121
47
109
130
59
109
130
59
109
130
59
109
130
59
108
127
58
108
127
58
108
127
58
108
127
58
108
127
58
115
128
62
115
128
62
115
128
62
115
128
62
115
128
62
108
124
52
108
124
52
108
124
52
108
124
52
108
124
52
108
124
52
108
124
52
108
124
52
94
118
51
94
118
51
94
118
51
94
118
51
94
118
51
94
118
51
94
118
51
94
118
51
94
118
51
94
118
51
94
118
51
94
118
51
48
60
29
48
60
29
48
60
29
48
60
29
48
60
29
48
60
29
48
60
29
48
60
29
48
60
29
36
41
23
36
41
23
19
20
14
19
20
14
19
20
14
19
20
14
19
20
14
19
20
14
19
20
14
19
20
14
19
20
14
19
20
14
19
20
14
61
73
26
61
73
26
61
73
26
61
73
26
61
73
26
61
73
26
61
73
26
61
73
26
61
73
26
96
115
42
96
115
42
96
115
42
104
125
46
104
125
46
99
121
47
99
121
47
99
121
47
99
121
47
99
121
47
99
121
47
109
130
59
109
130
59
109
130
59
108
127
58
108
127
58
108
127
58
108
127
58
108
127
58
115
128
62
115
128
62
115
128
62
115
128
62
115
128
62
108
124
52
108
124
52
108
124
52
108
124
52
108
124
52
108
124
52
108
124
52
108
124
52
94
118
51
94
118
51
94
118
51
94
118
51
94
118
51
94
118
51
94
118
51
94
118
51
94
118
51
94
118
51
94
118
51
94
118
51
48
60
29
48
60
29
48
60
29
48
60
29
48
60
29
48
60
29
48
60
29
48
60
29
48
60
29
36
41
23
19
20
14
19
20
14
19
20
14
19
20
14
19
20
14
19
20
14
19
20
14
19
20
14
19
20
14
19
20
14
19
20
14
61
73
26
61
73
26
61
73
26
61
73
26
61
73
26
61
73
26
61
73
26
61
73
26
61
73
26
61
73
26
96
115
42
96
115
42
96
115
42
104
125
46
104
125
46
99
121
47
99
121
47
99
121
47
99
121
47
99
121
47
99
121
47
109
130
59
109
130
59
109
130
59
108
127
58
108
127
58
108
127
58
108
127
58
108
127
58
115
128
62
115
128
62
115
128
62
115
128
62
115
128
62
108
124
52
108
124
52
108
124
52
108
124
52
108
124
52
108
124
52
108
124
52
108
124
52
94
118
51
94
118
51
94
118
51
94
118
51
94
118
51
94
118
51
94
118
51
94
118
51
94
118
51
94
118
51
94
118
51
94
118
51
94
118
51
48
60
29
48
60
29
48
60
29
48
60
29
48
60
29
48
60
29
48
60
29
48
60
29