P3
# Created by GIMP version 2.10.22 PNM plug-in
75 50
255
67
75
78
62
70
72
57
65
66
52
60
59
47
52
54
42
46
45
37
40
36
30
32
28
26
27
24
24
24
23
21
22
18
20
21
16
24
25
18
30
32
20
38
43
21
49
55
24
58
65
29
66
74
33
70
80
37
77
86
37
82
91
40
88
98
44
94
105
47
100
110
50
104
115
54
106
118
54
107
119
54
106
118
53
105
117
52
107
116
52
105
116
53
106
116
53
107
115
53
106
114
54
105
113
53
104
111
55
103
110
56
102
109
55
101
108
54
100
107
52
99
106
51
97
105
48
97
105
47
96
104
47
98
106
46
98
106
47
98
106
46
97
106
45
97
106
45
98
106
44
98
106
43
98
106
42
99
107
42
101
107
43
102
108
44
101
107
43
102
108
42
101
108
42
100
107
41
99
105
41
95
103
40
92
99
40
89
98
38
88
96
38
89
94
37
89
94
39
88
93
38
89
94
39
88
93
39
86
91
39
83
88
37
80
84
36
74
80
34
70
76
33
65
70
30
65
73
76
60
68
70
54
63
64
49
57
56
45
50
49
40
44
42
35
38
34
29
31
27
25
26
24
24
24
22
21
22
18
21
22
17
25
26
19
33
35
21
40
46
21
48
57
25
57
66
29
65
74
33
70
81
38
75
86
39
80
92
41
86
99
45
93
105
50
97
111
52
102
114
54
105
117
55
107
118
56
107
118
56
105
118
56
107
118
56
107
119
57
107
118
57
107
117
57
107
116
58
105
114
57
106
115
59
106
113
61
105
112
61
104
111
59
102
108
57
101
107
56
100
107
53
98
105
51
99
106
51
100
107
49
100
108
50
99
106
49
100
105
47
101
106
47
101
106
46
100
105
46
99
107
45
100
108
44
102
108
44
103
109
46
102
108
46
103
109
46
103
109
46
102
108
45
100
106
45
97
102
43
94
98
42
92
97
41
90
95
41
90
95
40
90
95
42
90
95
42
90
94
43
89
93
42
86
92
41
82
90
38
79
86
37
76
80
35
70
75
34
65
69
31
63
71
73
57
65
67
52
60
62
46
55
54
43
48
46
38
43
40
33
37
33
28
30
26
25
26
23
23
24
20
21
22
17
23
24
20
27
29
22
35
37
23
42
48
24
52
58
26
57
67
30
64
75
34
69
80
37
74
86
40
80
92
41
86
99
45
92
105
49
96
110
51
100
113
53
103
116
54
105
117
55
107
118
56
106
119
57
108
118
57
108
120
57
107
119
59
108
120
58
108
118
59
107
117
59
108
117
61
108
117
62
107
115
62
105
112
60
103
110
60
102
109
58
102
109
57
101
109
55
102
109
54
102
110
52
103
109
53
102
108
51
102
108
50
102
106
48
100
105
47
100
105
46
99
106
46
99
107
46
101
107
46
101
109
46
103
109
46
103
109
46
103
109
48
102
108
48
101
106
46
98
103
45
95
100
43
93
98
42
91
95
42
91
95
42
90
95
44
91
96
45
91
95
45
89
95
44
85
93
41
82
89
39
79
85
38
75
81
36
70
76
33
65
70
30
61
69
71
55
63
65
50
58
57
45
52
49
41
46
43
38
42
38
33
36
32
29
30
26
25
27
23
23
24
20
23
24
18
25
26
20
29
31
22
37
40
24
44
50
25
52
59
27
57
68
31
64
75
36
70
81
39
75
86
42
80
92
44
85
97
46
91
104
50
95
109
51
99
114
53
103
118
55
104
119
56
105
119
58
105
120
58
107
120
58
107
120
57
108
120
59
108
120
59
109
119
61
110
120
60
110
120
61
110
119
62
108
117
61
107
116
62
106
114
62
104
113
61
104
113
60
103
112
58
104
113
58
104
114
56
105
114
54
104
113
54
104
112
52
104
110
52
103
108
50
101
107
48
100
107
46
97
106
46
98
106
46
98
107
46
102
108
48
103
109
48
103
108
49
102
106
48
102
105
48
100
104
48
96
101
47
94
99
44
92
97
44
91
95
44
90
96
46
88
96
45
90
96
46
90
96
46
86
93
42
82
88
40
78
85
37
73
80
35
68
74
33
64
68
30
57
67
69
53
61
62
49
56
56
45
50
49
41
45
43
39
41
37
34
36
32
30
31
27
27
28
23
24
25
20
25
26
20
28
29
22
33
35
23
40
44
27
47
53
28
53
61
31
59
70
34
64
75
37
69
80
39
75
86
43
79
91
44
85
97
45
89
102
47
94
107
49
98
112
51
102
117
54
104
120
57
105
119
58
105
119
58
106
120
58
107
121
59
107
121
59
109
121
59
109
121
61
110
120
61
111
120
61
111
121
62
110
120
61
109
118
62
108
117
63
107
116
62
107
116
61
105
114
59
105
115
58
107
117
58
108
118
56
108
118
56
108
116
56
107
115
54
104
113
52
103
111
51
101
111
47
100
108
48
99
107
47
100
109
47
103
110
48
104
110
49
104
107
49
102
106
48
101
104
48
101
104
48
98
103
49
96
100
46
94
98
46
92
97
46
88
95
44
88
95
44
88
94
45
87
94
45
85
91
42
80
86
39
76
82
37
72
78
35
67
73
32
62
66
29
56
65
67
53
60
60
48
56
54
44
50
49
41
45
43
40
42
38
37
39
33
31
33
27
28
29
24
26
27
22
28
29
23
31
32
24
37
39
27
44
47
29
50
56
31
58
64
35
61
71
37
65
75
39
70
80
42
74
86
44
79
91
43
83
97
44
87
101
46
92
106
48
96
111
50
99
115
53
102
117
55
104
118
57
105
119
58
106
119
58
106
120
58
107
121
59
111
122
60
111
122
61
109
122
61
111
122
61
111
123
62
112
123
62
112
122
63
111
120
64
109
118
62
108
117
60
108
118
60
107
117
58
108
120
58
110
120
57
110
120
57
110
120
57
109
119
56
107
117
54
106
116
53
104
114
50
102
112
50
101
110
49
102
110
48
104
111
49
104
111
50
105
110
51
104
109
50
104
107
51
102
106
50
100
105
51
97
102
49
95
99
49
91
97
46
88
95
45
87
93
45
86
93
46
85
93
46
83
90
43
79
85
40
74
80
37
69
76
34
64
71
32
60
65
30
55
64
65
52
58
57
48
54
51
45
49
47
42
46
42
41
43
38
38
40
35
35
36
30
30
31
26
30
31
25
32
33
25
35
37
26
41
43
30
47
50
32
52
57
33
57
64
35
61
71
38
66
76
41
69
80
42
72
85
42
77
91
41
82
96
42
86
101
45
90
105
47
94
109
50
97
113
52
101
116
54
103
118
56
104
120
58
106
119
58
105
119
57
105
119
57
108
122
58
111
123
61
110
123
61
111
122
62
112
123
62
112
124
63
111
122
62
110
121
63
109
119
61
108
119
61
107
118
60
108
119
59
109
121
59
110
122
59
110
121
57
111
121
56
110
120
56
108
119
55
107
118
53
106
116
52
105
116
50
103
113
48
103
111
48
104
111
51
104
111
51
106
111
52
106
111
52
106
109
53
104
109
52
102
107
53
99
104
50
96
100
49
92
98
47
89
96
46
88
94
47
86
93
46
84
92
46
82
89
43
77
84
40
72
79
37
67
74
33
62
68
30
57
63
28
55
62
62
51
57
55
48
53
50
47
51
45
44
46
42
42
44
38
40
43
36
38
39
33
33
34
27
33
34
27
37
37
28
39
41
29
44
46
32
50
52
34
53
59
36
58
65
38
61
71
39
66
76
42
70
81
42
73
85
42
75
90
40
81
95
41
86
101
45
90
105
46
93
108
48
97
113
51
100
116
54
103
119
57
103
120
58
105
119
58
106
120
57
106
121
57
108
123
58
110
124
61
112
125
62
112
123
61
112
124
61
112
124
62
111
122
62
110
121
61
109
120
60
107
119
60
106
118
60
108
118
58
109
120
58
110
121
60
110
122
57
110
122
56
111
122
56
110
121
55
108
120
54
106
118
52
105
116
50
105
115
49
104
112
50
103
111
51
103
111
51
106
111
52
106
111
53
107
111
55
105
110
52
103
110
54
101
106
52
99
102
52
94
99
48
90
96
47
88
95
46
85
93
46
83
91
45
80
88
44
76
84
41
70
77
37
65
71
33
59
65
30
55
61
27
54
60
59
50
56
53
47
52
49
47
50
45
45
48
42
44
46
39
43
45
37
38
39
33
36
37
29
38
38
29
41
41
31
43
45
33
47
49
35
52
55
37
55
60
39
59
66
41
61
71
40
66
77
42
70
82
43
73
86
42
75
90
41
81
96
41
87
102
44
91
106
45
94
110
48
97
113
50
100
116
53
102
118
55
102
118
56
104
118
57
104
118
57
105
119
57
107
121
59
109
123
61
112
123
61
111
123
60
110
122
60
110
121
60
109
120
60
109
120
61
108
119
59
105
119
60
105
117
59
106
118
58
107
119
56
109
121
59
108
122
57
108
122
56
110
122
56
110
123
57
109
122
56
108
120
54
106
119
52
105
117
51
105
115
51
105
114
53
104
113
53
105
112
54
105
111
53
105
112
55
104
109
53
101
109
54
100
106
53
98
104
53
95
101
51
91
98
48
87
95
45
85
93
46
83
90
46
79
87
45
75
83
42
69
77
38
62
70
33
57
64
29
52
59
26
52
57
54
49
54
50
47
52
47
48
50
44
45
48
41
45
47
40
42
43
36
40
41
32
39
40
30
41
42
31
45
46
34
47
48
36
51
52
38
55
57
41
58
62
43
60
65
42
63
72
42
67
77
43
70
82
43
72
85
42
73
89
40
78
94
40
84
101
41
89
106
44
94
111
48
97
113
50
100
118
53
104
120
54
104
119
55
104
119
55
105
118
58
104
118
57
105
118
56
106
112
46
107
108
36
131
131
51
123
126
53
107
117
57
106
117
58
107
118
59
107
118
59
104
118
59
104
117
57
103
117
57
104
118
56
105
119
58
106
120
56
106
121
54
108
122
55
108
123
56
108
122
55
108
121
53
106
119
52
105
118
52
106
117
51
107
117
55
107
116
55
106
114
55
103
112
52
104
112
54
103
109
53
100
108
54
97
106
54
96
104
53
95
102
51
90
98
47
87
95
47
85
92
47
82
90
47
78
86
44
74
82
42
68
76
37
60
69
32
56
63
29
51
58
26
50
55
50
47
52
47
47
50
45
47
50
43
45
47
41
43
44
37
42
44
34
42
43
32
42
42
32
45
45
34
48
49
36
51
51
39
54
55
40
57
58
43
59
62
44
63
66
43
66
72
44
69
77
46
72
82
46
72
84
42
72
86
38
78
92
38
85
101
41
92
108
45
96
112
47
98
114
50
99
115
53
104
118
54
105
120
55
105
120
55
104
119
56
102
109
50
108
106
26
130
122
28
123
118
32
174
166
62
191
176
52
178
171
64
116
122
60
105
117
58
105
116
58
103
117
58
102
116
56
102
116
55
102
116
54
101
115
54
103
117
54
104
119
55
106
121
54
106
122
56
107
121
55
107
119
53
105
117
51
105
117
52
105
117
51
106
118
55
106
116
55
105
114
55
105
113
54
103
111
55
100
108
54
99
107
54
97
105
53
94
102
52
91
100
50
89
98
48
87
95
48
84
91
48
81
90
47
77
86
45
72
81
42
65
74
38
58
68
34
53
63
30
48
57
27
46
52
46
46
49
44
44
46
41
41
44
37
40
42
36
43
44
36
44
46
35
44
45
34
45
45
34
48
48
36
52
53
39
54
55
41
55
56
42
58
59
43
60
62
45
63
67
44
67
71
46
72
79
47
74
84
47
75
86
45
77
89
42
81
94
41
88
102
43
93
108
46
96
112
48
96
112
48
97
112
49
99
113
50
102
115
51
105
118
55
99
106
45
109
105
26
131
126
31
178
169
49
192
182
72
116
113
97
157
145
51
177
159
38
162
157
70
105
116
58
104
115
58
101
115
57
101
115
54
100
114
54
98
114
52
98
112
52
99
113
51
101
115
54
102
117
53
103
118
53
103
117
52
104
116
50
104
115
50
104
116
51
105
117
53
105
117
55
106
117
55
107
116
56
104
113
54
101
110
54
99
108
54
96
104
53
95
103
51
92
101
50
90
100
49
88
97
50
86
94
49
84
92
49
82
90
48
76
86
46
70
81
43
64
74
37
58
68
33
52
62
29
46
55
27
39
42
37
39
41
36
38
40
35
39
42
35
40
42
36
43
44
36
46
47
37
46
47
35
48
48
35
51
51
38
54
55
40
57
56
42
58
57
44
59
59
45
61
64
45
65
68
45
71
75
45
77
82
48
79
87
48
83
91
48
86
96
47
88
100
45
92
105
45
97
110
49
100
115
49
99
114
49
97
111
45
105
115
55
118
124
67
117
119
62
124
120
38
142
134
32
142
136
59
162
152
45
195
182
54
181
169
59
182
171
73
139
142
122
143
149
153
106
117
109
102
113
58
102
115
57
100
114
54
100
114
53
98
114
52
97
111
51
97
111
49
97
111
49
98
113
50
99
113
51
99
113
51
100
113
50
102
114
51
103
115
52
104
116
54
105
117
55
103
117
54
104
115
54
102
113
54
99
109
53
96
107
52
93
103
50
92
102
50
90
101
49
89
99
49
89
98
50
87
96
50
83
92
49
79
89
47
75
86
46
69
81
42
63
75
37
58
69
34
50
61
28
44
54
25
36
38
33
36
38
33
37
39
33
38
41
34
40
42
36
44
45
36
48
48
37
48
49
37
50
50
38
55
53
40
56
56
42
56
57
44
60
57
44
60
60
44
64
66
45
68
72
47
74
79
48
79
85
49
84
91
50
88
95
52
91
100
50
93
104
49
96
107
50
98
112
48
107
118
57
125
133
75
124
129
67
143
144
85
146
147
80
152
149
74
148
144
61
161
152
51
171
161
54
139
131
37
150
139
31
143
135
34
144
131
32
89
92
42
105
112
104
133
142
143
125
128
115
105
116
65
98
112
51
98
112
51
97
111
50
96
110
49
95
111
47
95
109
48
94
109
47
95
109
47
94
108
46
96
110
46
98
111
46
99
112
48
101
113
50
102
114
52
100
114
50
99
113
51
98
112
51
96
109
50
95
106
50
92
103
50
91
101
49
90
100
49
87
99
48
86
97
49
85
95
49
82
92
49
79
90
47
75
86
46
69
81
42
61
75
38
56
69
34
51
63
28
43
54
24
36
38
33
36
38
33
37
40
34
38
41
34
41
42
34
44
45
35
48
48
37
49
50
37
53
52
39
56
54
41
56
57
43
58
59
44
61
58
43
63
62
44
70
70
47
75
77
50
79
82
50
84
88
51
89
94
53
93
99
53
95
102
51
96
105
51
99
109
55
113
121
84
142
145
112
142
145
87
143
144
84
145
146
80
149
149
83
148
148
77
147
145
66
148
144
60
153
145
47
181
167
48
125
115
29
60
60
7
89
99
41
100
112
53
97
111
51
94
109
54
86
93
48
102
113
66
96
110
49
95
109
48
94
108
47
94
108
47
93
109
45
91
109
45
90
108
44
89
105
42
90
105
43
92
106
44
93
108
45
94
109
46
95
110
47
95
110
48
95
110
48
95
111
50
94
110
49
93
108
49
92
106
49
91
104
50
89
101
48
87
99
49
85
97
48
84
96
49
82
95
48
80
92
48
79
92
49
75
88
47
67
82
42
60
74
37
54
68
33
48
62
28
41
54
26
36
41
35
37
39
34
38
40
34
39
42
35
41
43
35
45
45
35
48
49
37
51
50
39
54
52
40
57
55
42
59
57
44
60
58
45
61
60
43
66
65
46
74
74
48
80
81
50
85
86
53
89
92
54
92
97
54
96
100
53
95
103
51
111
118
83
114
118
109
106
107
97
142
143
123
111
112
93
83
88
85
95
99
75
110
110
73
107
107
69
128
128
78
122
121
70
134
132
69
165
156
61
205
195
65
93
92
32
98
112
50
99
110
50
97
108
49
95
107
47
93
106
45
94
107
46
94
107
46
93
106
45
91
107
45
92
106
44
90
106
43
91
107
42
89
105
40
86
102
39
86
102
40
87
102
40
88
104
41
90
106
43
91
107
43
92
107
43
92
108
45
92
108
46
93
109
47
92
107
48
92
106
48
90
105
49
88
102
48
86
99
47
84
96
47
83
95
47
82
95
49
80
94
49
78
91
48
73
88
46
67
82
43
60
74
38
52
67
33
46
60
27
40
53
25
38
42
36
39
40
35
38
41
35
39
42
35
41
42
35
44
45
35
46
47
35
51
50
38
55
53
40
57
55
41
58
56
43
61
59
45
63
62
45
70
69
48
77
78
49
84
85
52
89
91
55
92
95
55
93
99
53
97
103
52
120
123
100
109
110
98
125
126
111
147
150
121
153
154
138
154
154
131
129
131
116
121
123
123
144
145
144
165
167
162
98
99
94
131
133
131
109
113
106
113
114
91
179
169
68
173
167
67
97
108
46
96
107
45
94
106
44
92
103
42
91
102
41
92
103
41
93
104
41
91
105
42
89
105
41
90
104
41
88
104
41
89
105
40
88
104
39
86
102
39
84
101
39
83
100
39
85
101
40
87
103
41
87
104
41
87
104
42
88
104
44
90
105
45
91
107
45
92
107
48
90
107
49
89
105
49
88
103
49
86
99
47
83
97
47
83
96
47
82
96
48
80
95
50
76
93
49
73
89
45
67
83
41
62
76
37
53
68
32
44
58
27
38
51
25
39
43
38
40
41
36
39
41
36
40
43
36
41
42
36
43
44
35
44
45
34
48
49
36
52
53
38
57
56
42
59
57
44
59
59
46
65
63
46
72
72
49
81
80
51
87
87
54
91
93
54
94
96
53
97
101
58
122
126
109
99
98
85
119
121
90
115
116
84
108
108
92
147
148
134
124
127
109
116
118
100
139
141
134
167
169
170
198
202
203
218
222
223
222
226
227
222
226
228
179
180
181
162
154
65
161
155
60
93
102
41
92
101
41
90
100
39
88
98
36
85
96
36
85
97
36
88
100
37
89
101
38
87
102
37
86
101
37
85
101
37
86
102
38
86
102
38
87
103
38
83
100
40
84
100
38
83
99
37
82
99
37
83
100
38
81
99
39
85
101
41
89
104
44
91
109
48
94
109
49
93
108
50
91
106
50
89
104
49
86
100
48
85
99
48
84
98
49
82
97
49
80
96
50
78
93
49
73
88
45
67
83
40
61
77
36
53
68
32
45
59
27
37
49
23
41
45
39
41
42
37
40
42
36
40
42
35
41
42
36
41
42
35
42
42
33
46
46
35
50
50
38
55
54
41
58
56
43
59
59
45
66
64
47
74
73
48
84
82
52
89
89
53
91
93
53
100
102
63
106
109
94
102
104
92
119
119
88
135
134
76
147
146
75
133
133
72
113
113
79
152
153
144
126
127
95
108
109
84
86
87
68
84
85
68
88
91
75
102
104
100
87
90
90
74
74
56
135
130
54
102
105
45
91
100
41
91
99
40
88
96
37
84
94
35
81
91
34
80
91
33
82
93
33
83
95
34
83
98
35
83
97
36
82
98
35
83
99
36
84
100
39
137
146
118
86
102
46
83
99
38
79
98
35
79
98
36
78
96
36
79
96
38
84
99
43
89
104
47
92
108
50
96
109
53
94
109
50
92
107
50
90
105
48
88
103
48
87
101
48
85
99
49
82
97
49
79
95
49
77
93
47
73
88
44
66
82
40
60
75
35
53
67
31
44
57
27
37
49
24
42
46
41
41
43
38
40
42
37
41
42
36
41
42
36
39
40
34
39
40
31
44
44
33
49
48
36
54
52
39
56
54
41
58
56
42
64
63
44
73
73
48
84
84
51
89
89
51
91
93
53
87
88
67
111
111
98
130
132
93
111
110
63
87
85
45
93
93
63
89
90
62
109
110
73
100
98
63
96
95
59
107
106
67
72
70
48
53
54
41
74
76
65
56
57
46
51
52
37
59
57
23
74
78
32
94
102
45
92
100
42
91
99
40
87
96
38
83
92
35
79
88
33
76
85
32
76
86
32
78
88
33
77
90
31
78
92
34
79
93
32
79
95
34
81
97
34
107
116
77
170
164
132
171
172
105
141
146
88
105
117
59
74
93
36
80
95
38
84
98
42
87
102
46
91
105
49
92
107
50
93
108
51
93
108
52
91
106
50
88
103
49
87
101
49
84
98
49
81
96
49
78
94
48
76
92
46
72
87
43
64
80
39
58
73
36
52
66
31
44
57
26
36
49
23
45
48
43
43
45
40
42
44
38
41
42
37
39
40
35
37
38
32
37
37
30
41
41
31
48
46
34
53
50
38
54
52
39
55
54
41
62
62
42
72
72
45
85
84
50
90
90
53
89
92
62
68
69
60
82
83
78
67
70
64
69
72
70
68
69
61
130
130
84
155
152
70
157
151
62
183
177
81
203
198
105
202
194
88
178
171
61
140
138
45
53
54
5
49
49
7
55
58
18
85
91
41
97
105
46
95
102
44
93
101
44
93
100
42
89
97
41
83
92
37
78
87
34
73
81
30
71
80
30
71
80
29
71
83
30
72
84
31
73
87
31
82
91
36
80
91
32
80
97
35
154
145
114
190
185
129
214
209
134
169
168
98
93
106
48
78
93
39
81
95
40
84
99
44
87
101
47
89
102
48
90
105
50
91
106
50
91
106
51
89
103
50
87
101
50
85
99
49
80
95
47
77
93
48
74
90
46
70
85
44
64
79
40
59
73
36
53
67
31
45
58
27
37
50
24
48
50
45
45
47
42
42
44
39
40
42
37
38
39
34
35
36
31
34
34
28
38
38
29
45
44
33
48
47
36
50
49
37
53
51
38
60
59
39
70
70
46
75
79
58
69
72
65
70
74
77
55
58
61
62
64
58
79
82
68
112
114
75
149
150
92
167
167
95
192
191
109
162
160
68
129
128
51
121
120
53
138
135
56
120
119
45
97
98
34
68
71
23
89
94
43
101
108
51
101
108
51
98
106
49
95
103
47
93
101
45
92
100
43
90
97
43
83
91
38
76
85
33
70
79
30
68
75
29
65
72
28
65
74
29
67
77
28
67
81
28
131
128
71
153
134
63
165
138
70
148
124
85
123
118
94
129
128
89
189
186
99
160
163
94
73
88
36
76
90
38
79
93
41
82
96
44
84
98
46
87
102
49
89
104
49
91
106
52
90
104
52
88
102
51
85
99
51
80
96
50
76
92
48
73
89
45
70
85
43
64
79
40
59
74
35
54
68
32
46
59
28
38
51
25
50
52
46
47
49
44
43
45
40
40
42
37
37
38
33
34
34
30
32
32
27
35
34
27
40
40
30
44
44
33
45
47
34
49
52
42
59
62
54
65
68
63
77
80
84
78
81
82
56
58
62
83
87
74
98
101
66
78
85
36
64
71
28
87
92
45
121
125
73
151
157
95
89
95
38
81
86
32
139
138
66
140
135
48
99
100
41
100
107
49
111
118
59
105
113
55
101
111
55
102
110
54
100
107
54
97
105
52
95
104
49
95
103
47
91
98
45
81
90
38
72
81
33
67
75
31
64
72
30
61
69
28
60
69
27
62
71
27
63
75
28
67
81
30
86
90
38
159
128
59
190
169
95
195
187
110
195
187
107
202
195
110
179
179
101
104
113
63
71
85
35
75
89
39
79
93
43
82
96
45
84
98
46
87
101
47
89
104
49
89
103
51
86
102
51
83
98
52
79
95
50
76
91
47
73
88
45
69
84
43
65
80
41
59
74
36
54
68
32
47
60
29
39
51
26
52
55
48
49
51
46
44
46
41
40
42
37
37
38
33
32
33
28
30
30
26
32
32
25
37
37
28
40
40
31
52
53
46
70
71
66
75
78
66
95
99
94
94
98
96
75
77
70
87
89
62
85
90
48
87
90
49
86
91
46
33
35
24
92
96
50
107
113
53
110
116
53
113
120
56
125
131
76
164
162
112
153
154
82
115
121
62
115
124
64
112
122
63
106
115
59
103
112
59
101
110
58
100
108
57
99
107
55
99
108
54
98
106
51
91
100
47
79
89
39
69
79
35
64
74
31
61
70
29
59
67
26
57
65
27
58
65
26
58
69
27
63
74
29
66
80
32
152
139
65
198
178
81
191
172
76
203
186
104
201
191
91
168
167
84
124
129
75
67
80
34
71
84
37
75
88
41
78
92
43
81
95
45
84
98
45
87
101
48
87
102
51
84
100
51
81
97
50
78
94
48
76
91
48
73
88
45
70
85
42
66
81
41
60
75
36
55
69
33
48
61
29
40
53
26
54
57
50
49
52
46
46
49
43
42
44
39
37
38
33
31
32
28
29
29
26
32
31
25
34
34
27
38
37
28
90
85
75
98
94
81
109
112
93
130
130
114
171
163
149
200
185
169
106
100
92
29
30
26
26
29
22
21
23
19
20
22
18
48
49
30
77
80
43
106
109
56
116
121
60
122
128
75
143
144
92
125
131
100
114
125
94
115
125
75
114
125
70
108
118
64
104
113
60
101
110
58
99
109
57
100
109
57
102
111
58
100
108
56
93
102
49
77
88
42
66
77
34
62
73
30
59
70
29
58
67
28
56
63
28
54
63
27
54
65
27
60
70
31
70
78
39
153
147
72
220
209
97
215
203
118
216
209
113
209
202
110
182
180
99
139
142
85
65
78
35
67
80
36
71
84
39
75
89
41
78
91
44
81
95
44
83
97
46
86
100
50
84
98
51
81
96
50
78
94
49
77
93
49
75
90
48
72
87
45
67
82
41
62
77
38
56
71
34
49
63
29
41
54
26
56
59
52
52
55
48
48
51
44
43
44
40
38
38
36
30
30
28
29
28
25
32
30
24
93
85
75
165
151
137
204
189
175
171
161
150
91
89
75
105
101
87
97
90
75
81
80
62
63
68
39
73
77
40
77
83
40
56
61
35
68
74
39
76
80
41
61
65
36
30
33
20
57
59
39
87
92
56
95
103
61
86
93
66
78
84
72
80
86
88
94
102
85
108
118
68
104
115
63
100
111
62
98
110
59
102
112
60
105
115
60
103
113
60
93
103
54
77
89
45
66
78
36
63
74
33
60
70
32
57
68
31
55
65
30
52
62
25
57
65
37
86
88
59
206
203
141
199
192
108
202
192
88
194
186
103
182
175
89
175
172
102
162
161
99
135
140
82
62
76
32
64
77
34
68
81
38
71
84
39
75
88
43
78
92
44
81
95
46
84
98
48
83
97
49
82
96
50
80
96
49
79
95
49
77
93
49
74
89
46
70
85
44
63
78
39
58
72
36
50
64
30
41
54
26
58
60
54
54
56
50
50
51
45
45
45
40
38
37
35
30
30
28
114
106
95
180
165
148
159
145
129
161
148
134
117
109
101
55
52
44
39
39
27
49
49
31
66
66
35
72
76
39
76
81
41
80
84
43
80
86
42
80
87
42
86
94
42
98
105
47
108
115
57
111
119
64
90
96
58
64
68
46
80
86
54
75
80
53
92
98
95
109
113
119
161
149
141
176
171
150
156
157
126
123
129
90
101
112
67
103
115
62
106
118
64
105
115
62
93
105
57
77
90
46
68
80
40
64
76
37
60
71
35
56
68
32
54
65
30
51
61
28
87
89
69
174
171
106
217
215
123
223
217
118
219
214
120
220
218
145
184
180
97
155
154
91
138
139
84
152
154
93
115
122
80
61
74
33
64
75
34
69
82
38
73
86
41
77
90
43
79
92
47
82
95
48
82
95
49
82
95
49
81
95
49
79
95
49
78
94
49
75
91
46
71
86
43
64
80
39
58
73
36
49
64
28
42
55
27
60
63
54
56
58
51
51
52
46
46
47
41
117
110
105
183
173
167
194
180
170
163
154
143
96
94
84
44
42
36
33
31
26
33
33
25
36
36
26
40
42
26
54
55
32
65
68
35
73
78
38
76
83
40
78
85
40
79
87
42
86
94
43
98
107
51
109
118
63
118
128
68
122
134
73
124
136
75
125
137
76
123
134
75
108
119
71
86
93
67
107
114
80
132
132
114
153
145
135
182
171
162
207
197
186
186
181
161
151
152
122
115
121
77
92
103
57
79
92
48
72
84
44
67
79
40
63
74
38
58
70
34
55
65
31
53
62
34
128
128
84
188
184
87
198
196
94
202
196
85
212
206
104
209
206
104
206
201
110
147
144
73
131
130
80
155
157
121
160
162
136
117
124
106
65
76
34
67
80
36
71
84
41
74
87
43
78
91
47
81
94
47
81
94
48
82
94
48
81
95
48
79
95
49
78
94
49
74
90
45
70
85
42
63
80
38
56
72
34
49
65
28
43
55
27
63
65
54
71
68
58
137
128
120
178
165
153
189
176
169
145
136
126
89
84
76
30
30
24
27
28
23
29
29
24
30
29
24
31
31
24
35
35
25
37
39
25
43
46
27
53
57
31
62
68
34
69
75
37
73
80
37
77
84
39
89
97
46
101
110
59
112
123
66
121
132
73
124
135
75
124
136
76
124
136
76
123
135
77
118
132
75
117
130
76
112
127
72
110
124
71
109
122
70
105
116
70
105
112
80
128
125
109
175
166
157
175
161
146
159
155
131
123
127
99
76
88
47
69
83
44
66
77
41
62
72
37
57
66
34
54
62
33
116
115
51
153
151
52
168
166
67
186
185
83
171
169
67
203
200
99
213
210
110
169
167
76
141
140
113
138
140
117
135
137
112
124
127
104
65
76
36
67
79
36
71
82
40
73
87
43
80
91
44
88
97
54
99
107
66
128
129
95
167
158
131
126
126
93
142
142
113
155
154
127
157
151
127
171
162
138
165
157
137
137
129
108
123
115
97
155
145
135
190
176
165
158
146
136
122
112
102
73
69
65
26
27
24
23
23
20
23
24
20
25
26
21
27
27
23
28
27
23
30
29
24
34
34
25
36
37
25
40
43
26
45
50
29
52
59
30
60
67
33
65
73
35
74
82
41
88
97
52
102
114
61
111
124
71
119
131
74
122
136
76
121
136
77
121
136
77
119
133
76
116
130
74
113
128
73
112
127
72
111
126
72
110
124
71
110
124
73
108
122
73
106
119
70
101
117
68
88
99
61
109
109
86
167
159
148
183
177
165
163
158
142
105
109
84
64
76
40
60
71
39
58
69
36
97
99
36
106
106
29
115
116
36
121
126
49
163
165
78
183
182
82
216
212
115
202
198
115
108
107
82
126
128
115
170
176
155
125
128
110
69
79
43
124
125
97
169
165
144
184
176
154
182
171
150
126
121
104
181
173
158
173
167
152
151
144
132
164
156
144
125
121
101
121
121
98
116
115
94
111
108
85
104
105
85
68
74
53
64
68
49
121
113
104
87
82
73
55
57
46
49
50
44
36
37
33
25
25
25
21
21
18
21
22
17
23
24
19
25
26
20
26
27
21
27
28
21
31
33
23
35
37
23
38
42
25
44
48
26
48
55
27
53
61
27
60
70
31
73
85
42
89
100
56
102
114
65
111
124
71
116
130
75
119
134
77
120
135
78
119
134
77
118
133
76
116
131
76
114
128
75
113
126
73
113
126
73
113
126
75
112
125
75
109
123
74
104
120
73
101
117
70
95
111
66
88
103
61
83
97
60
80
90
59
121
119
102
179
168
157
189
177
164
173
163
151
142
138
119
109
110
73
70
75
16
73
78
19
87
97
29
111
117
48
110
117
24
167
167
60
183
183
81
95
98
49
59
63
58
63
68
55
85
86
72
175
168
151
180
171
159
140
136
121
99
105
81
74
85
44
77
92
45
77
93
48
79
95
49
79
95
48
77
93
48
71
86
43
65
81
39
60
76
36
56
70
33
49
64
28
44
58
26
38
51
25
64
68
53
62
64
50
57
59
45
48
50
41
36
36
32
24
24
24
20
20
18
20
21
16
22
23
18
23
24
19
24
25
20
25
26
20
30
31
22
34
36
22
38
43
25
42
48
26
45
55
26
50
61
26
62
74
33
77
90
47
91
104
59
101
115
65
108
123
69
112
129
73
116
132
74
118
133
76
119
134
77
118
133
77
117
132
75
116
131
76
113
129
75
112
129
75
113
129
75
113
130
76
111
127
77
106
124
76
101
119
72
96
113
69
90
107
66
87
102
65
85
98
61
81
94
57
75
89
55
83
89
65
106
104
88
141
130
121
152
139
128
101
99
89
42
46
43
58
64
17
68
78
13
75
87
16
88
97
12
107
114
29
76
85
13
59
65
23
49
52
34
138
144
119
87
96
66
71
85
42
72
87
43
75
88
45
76
91
46
76
93
45
78
94
47
78
95
47
77
94
47
73
90
45
66
83
39
62
79
36
57
74
34
54
68
31
47
62
27
41
55
25
35
47
23
65
69
53
62
64
50
56
58
45
48
50
39
35
35
31
23
23
23
23
23
22
19
19
16
21
22
17
22
23
18
23
24
19
25
26
21
29
30
22
34
37
23
37
44
24
42
50
25
45
56
26
53
65
27
69
82
39
84
97
53
94
107
61
102
116
65
108
122
69
114
129
74
117
132
74
119
134
75
120
133
77
119
134
78
118
133
76
117
132
77
116
133
77
115
132
78
116
133
79
115
133
81
114
131
81
110
127
79
105
123
77
100
117
73
95
112
70
91
108
67
89
104
66
85
99
62
83
96
60
80
93
58
79
90
55
76
87
52
73
82
51
81
89
83
61
68
66
37
39
28
46
52
23
50
58
17
38
41
15
43
49
13
66
76
18
79
91
28
93
104
58
126
136
104
81
95
56
72
88
44
73
88
46
75
91
46
76
92
47
78
94
47
79
95
47
79
96
46
75
93
45
69
86
41
64
81
36
60
77
35
56
73
33
51
67
30
46
61
26
39
53
23
35
45
22
66
71
52
62
65
49
56
59
44
47
49
37
34
35
30
23
23
21
18
18
17
18
18
16
19
20
16
21
22
17
21
22
17
23
24
20
28
29
21
34
37
23
38
46
24
43
53
25
48
59
25
61
73
32
77
90
47
88
102
56
97
111
62
103
118
66
109
123
70
113
128
73
117
132
74
119
134
75
119
135
76
118
136
76
118
136
76
117
135
78
118
136
78
119
136
81
120
137
83
119
138
84
118
137
83
114
132
82
110
128
80
106
123
77
102
118
74
98
115
71
94
109
68
92
105
67
91
102
64
89
99
63
86
97
61
85
93
60
81
91
57
79
89
54
66
73
48
68
75
48
64
71
43
54
61
40
41
44
31
45
47
43
68
77
45
72
85
45
71
84
46
72
87
47
75
90
49
76
92
49
77
93
50
77
93
48
78
94
49
79
97
49
80
98
49
78
97
45
72
91
40
67
85
38
64
81
36
61
78
35
56
73
32
50
66
29
44
59
25
38
51
24
33
42
21
66
71
51
61
66
49
54
58
41
46
47
36
33
34
29
22
22
19
17
17
15
17
17
15
18
18
16
20
20
16
20
21
16
22
23
19
27
28
20
34
37
23
39
47
24
45
55
25
54
65
26
70
81
39
83
95
50
93
106
56
101
113
62
106
119
66
110
125
70
115
129
72
118
133
74
121
136
76
120
138
76
120
138
79
120
138
78
121
139
81
122
140
82
123
142
83
124
143
85
124
142
87
122
141
87
119
137
85
115
133
83
111
128
81
108
123
79
103
119
75
100
114
73
98
111
71
96
107
68
96
106
67
96
102
64
92
99
61
89
95
60
87
93
58
83
91
57
80
87
55
76
86
52
77
87
52
73
82
50
70
76
53
131
126
105
138
134
112
87
98
64
76
93
49
79
93
53
79
94
53
79
96
54
79
96
52
80
97
53
81
101
52
81
100
50
76
95
46
70
90
41
67
85
38
63
80
35
60
77
33
54
71
29
49
65
27
42
56
24
36
48
21
32
41
20
67
71
49
60
65
45
53
57
39
44
46
35
31
33
26
22
22
19
16
16
14
16
16
14
17
17
15
18
19
16
19
20
16
21
22
18
26
28
19
34
37
22
41
48
24
48
58
24
61
70
29
78
87
41
89
99
51
96
108
56
102
114
61
108
120
65
112
126
68
117
131
71
120
134
74
122
138
76
123
140
77
123
141
79
124
142
80
125
144
83
125
145
83
127
146
85
129
147
87
129
147
89
127
146
89
123
141
86
119
137
85
115
133
83
111
128
81
107
123
77
106
119
75
104
115
73
103
112
70
102
110
68
102
108
67
101
104
65
98
101
62
94
99
61
91
97
62
86
93
58
82
90
54
81
90
52
81
90
52
79
90
51
80
89
51
87
94
64
171
162
142
138
139
113
81
97
55
83
97
55
83
98
56
82
99
55
82
100
55
82
102
53
81
99
52
75
94
48
71
91
45
68
87
39
63
81
36
59
76
32
53
70
28
48
64
26
41
54
22
34
46
20
31
39
19
65
71
47
60
65
44
52
57
36
41
45
31
29
31
24
21
21
17
16
16
14
15
15
13
17
17
15
18
18
17
19
19
16
21
21
17
25
28
20
33
37
21
41
49
22
51
61
26
68
76
34
82
91
44
91
101
50
99
110
57
105
116
61
109
122
64
114
128
68
117
132
69
122
136
73
124
140
76
127
142
77
126
143
80
127
146
82
129
149
85
129
149
85
132
150
87
132
151
88
133
151
90
132
150
89
128
146
89
122
141
86
118
136
82
114
131
79
111
126
77
109
121
76
107
117
72
107
115
70
106
114
69
106
111
70
105
109
68
102
106
65
98
103
64
96
102
64
93
99
61
91
97
57
89
97
57
90
97
58
87
96
56
85
96
54
85
97
54
86
98
56
135
133
107
173
168
145
114
121
88
84
102
58
84
101
56
84
101
56
82
102
54
80
101
52
76
97
50
73
93
47
69
88
42
64
83
37
59
77
31
53
70
27
47
63
25
40
54
22
34
46
20
30
38
19
63
72
45
57
64
40
51
55
34
39
42
27
28
30
22
21
21
17
15
15
13
15
15
13
16
16
14
17
18
15
18
19
15
21
21
17
26
28
20
34
37
21
43
51
23
56
64
27
71
79
36
83
92
43
93
102
51
101
111
56
106
117
60
110
124
64
114
129
67
118
133
69
122
138
72
125
141
76
128
143
77
129
146
81
131
150
83
132
152
85
133
154
86
135
154
88
136
155
89
136
155
92
134
153
91
129
148
88
124
143
86
119
137
82
115
131
77
113
127
73
112
123
72
112
122
72
112
120
72
110
118
71
109
115
70
107
113
68
106
111
68
104
109
68
100
107
65
98
105
63
97
104
62
96
103
61
96
103
61
93
103
60
91
102
59
90
103
59
88
103
58
88
104
57
96
108
71
149
148
126
161
158
134
125
133
100
84
105
55
84
103
56
80
102
52
77
99
52
74
95
49
70
88
43
64
83
37
60
78
33
53
70
27
46
63
25
40
54
22
33
46
19
29
38
17
62
71
42
55
64
38
47
54
32
37
40
26
27
28
21
20
20
16
15
15
13
15
15
13
16
16
14
17
18
14
18
19
14
21
22
16
27
28
18
36
40
21
45
54
24
60
69
29
72
82
37
84
94
43
94
103
50
100
111
53
105
117
58
110
124
63
115
130
66
119
135
68
122
139
70
126
143
75
129
145
77
130
149
80
132
152
82
134
154
84
135
155
85
137
157
88
138
158
89
138
157
91
135
154
89
128
147
85
122
141
82
117
134
78
114
130
74
114
128
72
114
126
73
115
125
72
115
123
73
113
121
71
113
119
70
111
118
69
110
116
70
107
113
67
105
113
66
103
111
64
103
110
64
102
109
62
101
109
62
99
110
62
97
109
60
95
108
60
93
108
59
91
107
58
90
108
59
88
108
59
86
101
60
148
143
126
120
127
89
85
106
56
81
104
53
78
100
52
75
95
48
70
88
43
65
84
38
59
78
32
52
71
27
45
63
24
39
54
21
32
45
18
28
36
15
60
70
38
54
63
35
45
53
30
36
40
25
26
28
20
19
20
16
14
15
12
15
15
13
16
16
14
17
17
14
18
19
14
21
22
16
27
29
17
37
41
22
47
55
24
63
71
29
74
83
35
84
94
42
93
103
49
100
111
53
104
118
57
110
125
61
115
131
64
119
136
67
123
140
70
126
144
73
128
147
75
130
150
79
133
153
82
135
155
83
136
156
84
138
158
87
139
159
87
137
157
88
132
151
85
124
143
80
118
137
77
114
132
73
114
129
71
116
130
73
117
129
74
117
128
73
117
126
73
116
124
72
115
123
71
114
123
71
113
121
70
111
118
68
109
117
66
108
116
66
108
116
65
107
116
63
106
115
63
105
116
64
102
114
62
100
114
61
98
113
60
96
112
59
93
111
58
92
111
58
92
110
58
90
107
60
121
122
88
130
131
91
83
105
53
79
100
51
74
95
48
70
89
43
66
85
39
60
79
33
52
70
27
44
62
23
38
53
19
31
43
18
25
33
15
58
70
34
52
61
31
43
51
26
35
38
22
25
27
17
19
20
14
14
14
11
15
15
13
16
16
14
16
17
13
18
19
14
21
22
16
27
29
17
38
41
21
49
57
23
62
72
29
74
84
35
84
94
40
93
103
46
99
111
52
104
118
55
109
125
58
114
131
62
119
136
65
124
141
69
127
146
71
128
149
74
130
151
76
133
153
80
134
155
81
135
156
82
136
156
83
137
157
85
133
153
83
125
145
77
118
137
73
115
133
72
113
132
70
115
131
70
117
132
73
119
132
73
119
131
72
119
129
73
117
128
72
116
127
71
116
126
71
114
125
69
113
122
67
112
121
66
112
122
66
112
122
66
111
122
63
109
121
64
107
121
64
105
120
64
103
119
64
101
118
62
97
117
60
96
116
60
92
115
59
92
114
58
91
113
57
89
112
57
106
110
73
139
132
97
82
103
51
74
96
47
70
89
42
66
85
39
59
78
32
51
69
26
43
60
22
36
50
19
29
39
17
24
30
15
57
68
32
50
59
28
40
49
24
33
37
21
25
27
16
18
18
14
13
14
11
14
14
11
16
16
14
17
17
14
18
18
16
21
21
17
28
30
18
38
42
21
49
57
22
62
73
28
75
84
33
85
95
39
93
103
44
100
111
50
105
118
54
109
124
57
114
130
60
119
135
63
122
141
65
125
146
68
127
148
71
128
149
74
131
152
75
132
153
78
133
154
77
132
153
79
132
152
80
126
146
75
118
137
70
113
132
68
114
131
69
114
131
70
116
132
70
119
133
72
120
134
73
121
132
72
121
130
73
119
130
72
118
129
71
116
127
69
116
127
69
116
125
67
115
126
66
115
126
66
115
126
67
115
126
64
113
126
65
110
125
64
109
124
63
106
123
63
103
122
61
100
121
61
98
120
60
94
119
60
93
117
57
92
116
57
90
114
54
87
110
52
99
107
61
149
139
110
80
97
50
68
89
42
64
84
38
58
77
31
49
67
24
41
58
21
33
46
18
27
36
15
22
27
12
55
66
28
46
57
24
38
47
23
32
35
20
24
26
15
17
18
13
13
13
10
14
14
12
16
16
14
17
17
15
18
18
16
21
22
17
28
30
18
38
41
21
49
57
22
63
71
28
73
84
32
82
94
38
90
103
42
98
111
47
102
117
50
108
123
54
111
130
57
115
135
58
119
140
60
123
144
64
125
146
67
126
147
70
128
149
71
128
149
74
128
149
73
127
148
74
125
145
73
119
139
68
113
133
63
111
131
64
112
133
67
115
133
70
117
133
70
119
134
71
121
135
72
121
134
72
120
132
71
120
131
71
119
130
71
117
129
68
117
128
67
117
128
67
117
129
65
116
128
66
117
129
67
116
130
64
114
129
66
113
128
65
111
128
63
108
128
64
105
126
61
102
124
61
100
123
59
96
121
59
95
119
56
94
118
58
92
116
56
87
111
54
83
107
51
75
95
49
142
133
104
79
94
52
63
83
37
56
74
29
46
64
24
38
54
20
30
43
17
24
33
14
20
24
12
53
65
26
45
56
22
37
46
21
30
34
18
22
26
14
16
18
11
13
13
10
14
14
13
15
15
13
17
17
14
18
19
15
20
21
16
28
30
18
38
42
20
48
56
21
61
70
26
70
83
31
80
93
36
89
102
40
97
109
46
101
116
48
106
122
52
111
127
55
114
133
56
117
139
58
121
143
60
123
145
63
123
144
66
124
145
66
124
145
68
124
145
69
122
141
69
118
138
67
112
133
63
110
131
62
111
132
65
112
132
65
115
134
68
117
135
70
119
135
72
119
134
72
120
134
72
122
134
72
121
133
71
119
131
69
118
129
68
117
129
66
118
130
66
117
129
64
118
130
65
118
131
64
117
132
66
116
131
64
114
130
64
113
131
63
109
130
63
106
128
62
103
126
61
100
125
60
98
123
58
96
121
56
95
119
57
92
116
55
88
112
53
84
107
50
78
100
45
76
92
47
151
147
122
74
87
45
53
71
28
44
61
23
36
51
18
28
40
15
23
31
13
19
22
11
51
63
24
43
54
21
35
44
21
29
33
18
22
25
15
16
17
13
13
13
11
14
14
12
16
16
14
17
18
14
19
19
15
21
22
17
28
30
18
38
41
20
48
56
20
59
68
24
68
81
29
77
90
35
86
99
39
93
108
44
98
115
47
103
119
49
107
124
52
111
130
54
114
135
55
117
139
57
119
141
59
119
141
62
120
141
62
119
140
63
118
139
63
116
135
64
111
131
60
109
130
61
109
130
62
109
130
63
111
132
63
113
133
65
116
134
67
118
134
68
119
134
69
120
134
70
122
134
71
121
133
69
120
132
68
118
130
66
117
129
63
117
129
64
118
130
62
118
131
63
118
132
63
116
131
63
115
130
62
114
131
61
113
131
61
109
130
61
107
129
60
103
127
60
100
127
60
98
125
58
97
123
56
95
121
56
93
117
53
88
112
51
83
107
48
77
100
44
71
93
37
83
95
57
149
143
123
79
88
52
42
59
21
34
49
17
27
39
16
21
30
12
18
22
10
49
61
21
42
52
21
33
42
18
25
31
16
21
23
14
16
17
13
13
13
11
14
14
12
15
15
14
18
18
15
18
18
16
21
21
17
27
29
18
36
41
19
47
54
20
57
66
23
66
79
27
75
88
34
83
97
36
90
104
41
96
111
44
101
117
46
104
122
49
109
127
50
111
131
53
114
136
54
115
137
55
115
137
57
115
136
58
114
135
60
111
134
58
109
131
58
107
129
57
106
128
59
108
129
60
109
131
62
110
132
63
112
132
64
114
132
65
116
133
67
118
133
68
119
134
68
121
133
67
121
133
67
119
131
66
119
130
63
119
130
61
118
130
61
118
131
62
118
131
62
116
132
61
115
131
61
115
131
60
114
130
61
111
130
62
108
129
60
105
128
58
102
127
58
101
126
59
100
125
59
98
123
56
96
121
55
93
118
52
88
112
49
83
107
47
76
100
42
69
92
37
63
85
33
56
77
31
105
101
76
93
94
71
34
48
17
26
39
12
21
28
12
18
20
10
44
59
21
37
49
19
30
40
17
24
29
15
20
23
14
16
17
13
13
13
11
14
14
12
15
15
13
17
17
15
18
18
16
21
21
16
27
29
18
35
40
21
44
51
20
54
63
22
62
75
25
72
85
30
80
94
33
86
100
37
92
107
42
98
114
45
101
119
46
106
124
47
108
128
49
110
132
51
112
134
51
112
133
53
111
132
55
109
130
57
107
128
56
105
127
55
103
126
54
104
127
56
106
128
56
107
130
58
109
131
59
110
131
60
112
130
61
114
130
62
116
131
64
116
131
64
119
131
63
119
131
63
119
131
63
118
129
60
118
130
59
117
129
60
116
129
59
116
129
58
114
129
56
112
129
56
111
129
56
110
129
57
108
130
58
106
129
57
103
128
57
100
127
57
99
125
56
98
123
56
97
122
55
94
120
54
91
116
50
86
111
48
81
105
46
75
99
41
69
92
36
63
84
30
56
76
26
47
66
21
90
89
69
75
79
58
26
36
13
20
27
11
17
20
9
41
55
19
34
48
17
29
37
15
24
28
14
19
22
14
15
16
12
13
13
11
14
14
12
16
16
14
17
17
15
18
18
16
20
21
15
25
28
17
33
38
20
40
50
20
50
61
21
60
72
24
69
82
27
77
90
31
83
97
36
88
103
38
93
110
41
98
115
43
103
120
45
106
125
46
108
128
47
108
130
48
107
128
48
106
127
49
104
126
52
103
123
51
101
123
51
100
123
51
101
123
53
103
125
53
104
126
55
105
127
58
106
127
58
108
127
57
110
127
58
112
126
58
111
127
59
113
127
58
115
128
58
114
127
58
114
127
57
113
126
55
113
126
55
112
125
54
112
125
53
111
125
54
109
126
55
107
125
54
106
127
55
105
127
55
103
127
56
103
127
57
100
127
56
99
124
55
97
122
56
95
120
52
92
119
52
89
114
49
84
108
46
79
103
44
73
96
40
67
90
34
61
83
29
54
74
25
45
64
20
37
54
17
80
80
61
86
83
70
20
26
11
15
19
9
39
53
18
33
45
17
27
35
15
23
27
15
19
22
14
15
16
12
13
13
11
14
14
12
15
16
13
16
17
14
17
17
15
20
21
15
24
27
16
31
36
20
38
47
20
48
58
21
57
68
23
65
78
27
72
86
29
80
94
33
86
101
37
90
107
40
94
112
42
97
117
44
100
121
45
103
124
47
104
125
46
102
123
46
102
122
47
100
122
46
98
120
47
96
120
47
97
121
48
97
120
50
98
121
50
99
121
51
100
122
52
102
123
52
104
123
52
105
123
52
106
122
52
107
123
52
108
123
51
108
123
51
107
123
51
109
122
53
109
121
50
108
122
48
107
121
47
106
121
46
107
122
48
105
122
50
104
122
50
102
124
51
101
124
52
99
125
53
99
124
54
98
125
54
97
122
54
95
120
54
93
118
51
90
117
50
87
112
47
82
106
44
77
101
42
71
94
37
65
87
32
58
80
27
52
72
23
43
62
18
36
51
15
29
42
14
97
91
79
87
81
73
16
19
11
37
51
17
33
43
17
26
35
14
23
27
15
19
22
13
14
15
12
13
13
11
14
14
13
15
15
12
16
17
14
18
18
16
20
21
16
24
26
16
30
34
19
36
46
19
45
55
21
53
65
23
61
75
27
69
84
28
76
90
30
82
97
34
86
103
36
91
108
38
94
113
40
96
117
43
98
119
43
98
119
42
97
118
43
96
117
42
93
116
43
94
116
43
92
117
43
93
116
44
93
116
46
93
116
46
93
117
47
95
118
47
97
118
48
98
118
47
99
117
47
100
116
47
101
117
47
101
117
46
101
117
46
101
117
46
101
117
46
102
116
46
101
116
44
101
117
42
100
116
43
100
117
45
100
117
45
99
119
45
98
120
47
98
120
48
96
121
48
96
122
51
96
122
51
95
121
50
93
118
50
91
117
50
88
114
48
85
110
44
79
103
41
74
98
38
68
91
34
63
84
29
56
77
25
48
69
19
41
58
17
34
49
14
28
40
13
23
30
12
80
75
66
73
67
59
