P3
# Created by GIMP version 2.10.22 PNM plug-in
75 50
255
183
188
201
183
190
204
185
191
205
186
192
207
186
192
208
187
193
209
188
194
209
189
195
209
190
196
210
193
199
211
196
200
214
195
201
215
196
202
215
194
202
215
193
201
213
190
198
212
189
196
213
187
195
212
183
193
211
182
194
212
180
193
213
178
191
212
176
189
212
174
189
210
172
188
209
170
186
208
170
187
208
174
189
209
176
191
210
177
192
212
178
192
212
178
192
212
178
190
212
177
190
210
175
190
208
175
190
205
172
188
201
162
181
188
143
170
167
113
152
129
87
133
77
83
125
49
91
131
44
97
135
45
102
137
46
103
138
50
106
140
51
113
147
52
122
159
59
135
173
62
150
184
65
159
188
66
165
190
74
171
193
82
178
198
94
184
202
113
188
206
132
194
209
150
198
211
162
198
211
166
194
209
159
191
207
143
188
207
129
188
206
122
189
207
131
194
209
156
198
209
181
196
207
200
192
202
205
190
200
203
189
200
201
187
199
199
186
196
198
184
191
199
181
189
198
170
175
193
171
178
196
175
181
199
178
184
202
179
185
203
180
186
204
181
187
204
182
187
204
183
189
204
183
190
204
184
190
206
183
190
206
184
190
206
183
190
207
182
189
207
182
189
206
182
189
207
180
190
206
179
189
206
178
189
206
177
189
207
177
188
207
173
188
208
171
187
206
169
185
204
169
183
204
170
185
204
173
186
205
176
188
206
178
190
208
178
190
208
177
189
208
177
188
208
176
187
206
175
188
205
176
189
205
173
187
198
163
180
185
145
170
165
117
151
130
87
129
80
76
118
48
85
127
43
93
132
45
99
136
45
106
143
50
113
149
52
121
155
52
123
160
57
132
169
61
146
180
62
155
187
63
160
188
68
164
190
70
170
193
77
175
197
92
178
199
108
182
201
123
186
205
133
185
205
135
182
202
127
179
199
111
178
199
100
180
200
96
183
201
111
189
205
140
193
206
164
191
203
182
185
198
189
182
195
187
182
195
184
180
195
181
179
192
181
175
186
183
173
181
187
155
157
178
157
163
181
163
171
187
171
177
192
174
180
196
176
182
198
177
182
198
178
183
199
177
183
199
175
181
198
173
179
196
169
176
193
166
173
192
164
172
191
163
171
193
166
174
194
170
179
196
175
183
199
177
186
202
180
187
204
178
189
205
177
187
204
173
187
205
171
185
204
169
183
203
170
182
201
173
184
201
176
187
203
178
188
205
180
191
207
181
191
207
180
191
207
180
189
206
179
188
205
177
189
205
178
188
204
175
188
199
166
183
187
148
172
168
123
155
135
95
135
87
76
117
51
81
122
43
91
129
43
97
134
44
104
141
47
112
150
51
119
155
53
122
160
55
130
166
56
141
175
58
151
184
62
156
186
64
159
187
62
162
190
64
165
191
73
166
192
81
167
192
89
169
194
96
167
193
97
164
191
88
162
189
78
165
191
73
171
194
74
176
197
94
183
201
123
186
202
145
183
198
160
176
192
163
172
188
158
172
188
152
172
188
148
171
187
147
171
184
155
171
180
167
159
161
153
161
163
165
166
170
177
170
176
188
175
181
193
178
183
195
178
185
197
179
187
199
180
189
201
179
187
201
174
182
197
168
177
191
160
168
184
151
160
177
150
158
174
157
163
177
166
173
184
175
181
193
182
187
200
188
191
206
188
194
210
189
194
211
183
194
209
179
190
207
175
186
203
176
185
200
177
187
200
178
189
200
181
188
201
181
189
202
181
191
202
182
190
201
181
189
201
179
187
200
178
187
199
181
189
199
180
191
197
172
186
188
158
176
170
134
161
139
101
138
93
78
117
55
80
118
42
89
127
42
98
135
45
102
138
45
105
140
45
109
144
47
117
152
49
126
161
52
135
169
55
143
177
60
150
183
63
154
185
63
155
186
61
155
186
61
154
184
63
151
184
65
151
183
67
149
181
67
146
179
61
147
180
58
155
184
57
163
189
63
173
194
84
181
199
112
184
201
130
181
197
140
173
189
139
166
184
126
165
183
111
166
185
106
166
185
108
170
184
120
175
184
140
168
169
132
168
171
151
173
176
170
175
180
185
179
186
194
182
189
198
184
193
202
189
198
209
190
201
213
190
201
215
188
200
213
178
192
207
164
177
193
150
161
177
147
156
166
152
158
166
165
171
178
176
182
192
187
189
202
195
194
210
197
199
216
194
199
217
189
196
214
186
194
211
183
192
206
181
190
201
181
189
199
181
190
199
182
190
199
182
190
198
180
188
197
181
189
196
180
188
196
179
187
196
180
189
196
183
192
197
184
193
197
177
189
190
164
180
173
139
165
144
104
141
100
78
120
58
80
121
45
91
129
44
100
136
46
103
139
45
99
134
42
101
134
43
110
147
46
124
160
50
134
168
55
139
173
60
144
178
64
147
182
64
147
181
62
143
179
58
139
174
54
135
171
52
132
168
50
128
165
49
126
163
47
130
167
48
141
176
51
154
185
62
169
193
83
179
199
105
182
200
121
177
196
130
168
187
125
156
180
104
150
175
80
153
178
73
156
180
75
163
183
94
171
185
120
177
176
118
174
178
147
176
181
172
175
183
187
180
188
197
184
192
204
190
200
212
196
207
219
197
211
224
198
212
226
197
211
227
185
200
221
166
183
204
146
164
185
137
154
171
139
153
168
155
164
180
172
179
193
184
188
202
193
195
212
194
199
217
193
198
218
190
196
216
186
193
212
182
193
210
180
191
206
178
189
202
179
189
201
179
190
201
177
188
200
175
186
197
175
186
197
175
185
196
175
185
197
177
188
199
182
192
201
183
194
201
176
190
193
163
182
177
139
166
147
106
144
106
83
125
61
82
126
46
91
132
45
100
137
47
103
138
46
98
133
42
98
132
41
108
144
44
122
157
49
132
166
56
138
172
59
142
177
63
143
178
64
140
176
62
134
172
60
128
165
55
118
158
50
110
151
46
109
149
45
112
151
45
120
158
47
133
169
51
149
181
63
164
190
82
176
198
103
179
199
119
173
193
128
161
184
123
144
173
99
134
166
67
138
169
57
147
175
59
155
180
78
166
184
107
187
186
108
183
186
146
179
186
177
173
186
193
173
187
203
180
192
210
187
201
220
194
207
227
196
211
230
197
212
231
196
211
232
181
199
224
162
182
209
140
163
192
126
151
180
124
147
175
142
158
181
162
173
195
177
183
205
186
190
213
188
194
219
187
194
220
183
192
218
179
190
215
175
189
212
172
187
208
171
185
204
172
185
204
170
184
204
168
181
203
164
179
201
163
179
201
163
179
201
164
180
202
168
184
203
173
188
205
175
191
203
169
187
194
158
180
178
136
165
147
106
144
103
86
129
61
85
128
45
91
132
45
97
134
46
99
133
44
98
132
41
98
132
41
106
142
45
120
156
50
129
164
57
134
169
59
136
173
63
136
173
65
131
170
65
126
165
65
117
159
60
106
150
54
97
141
47
97
140
45
102
145
46
113
153
47
128
165
51
145
179
61
160
189
78
171
196
101
173
197
115
167
191
123
154
183
121
138
170
99
128
162
69
129
164
55
141
172
55
152
180
69
162
184
93
198
195
114
193
194
148
185
190
177
172
185
195
168
183
205
174
186
210
181
195
219
189
203
227
193
209
229
196
212
231
195
212
231
184
201
225
167
184
212
147
168
198
131
157
189
122
149
182
138
157
185
157
169
194
171
177
203
180
183
211
182
188
218
181
189
219
177
186
216
172
185
213
169
184
210
165
181
205
164
179
203
165
178
204
164
179
204
162
177
203
159
174
201
159
174
203
158
176
204
159
177
205
165
182
207
170
186
207
172
188
203
166
185
193
151
177
177
125
162
142
100
142
94
86
131
58
88
131
46
98
133
50
104
131
54
91
126
45
89
125
43
94
130
42
105
143
46
118
153
51
128
162
56
131
168
59
130
168
62
130
168
65
124
165
66
119
161
66
112
154
63
101
146
58
93
138
51
90
134
46
97
139
48
109
148
48
124
161
51
140
175
58
157
185
75
167
192
96
170
195
109
164
190
116
151
181
114
137
170
97
126
161
70
125
162
57
134
167
54
148
177
65
160
183
86
202
199
126
197
197
152
187
191
176
173
183
192
165
180
203
168
181
206
174
187
212
181
195
219
188
201
225
192
207
228
194
209
229
186
200
225
171
187
214
156
173
202
140
161
192
133
156
187
142
161
189
154
168
195
165
174
201
175
178
207
178
181
210
176
182
211
174
181
211
169
181
208
166
179
205
164
178
203
166
179
202
167
179
203
166
180
205
164
177
201
155
158
169
163
176
195
165
181
206
166
183
207
171
187
210
174
190
209
175
192
205
170
189
194
152
179
173
124
161
137
95
140
85
86
129
53
98
129
53
101
120
52
92
106
41
88
118
44
86
123
42
96
132
43
108
145
47
119
155
51
127
163
56
126
165
60
125
163
63
124
163
66
119
160
67
117
159
68
112
154
64
103
148
59
95
141
53
91
135
48
96
138
48
106
146
48
119
157
52
135
170
57
151
182
70
161
187
87
163
189
99
159
186
104
149
179
102
138
172
88
130
165
66
128
163
56
134
168
55
145
176
63
157
180
81
201
200
141
196
196
159
186
190
178
174
182
192
167
178
200
167
178
202
169
180
205
173
186
208
178
190
213
184
194
217
186
195
219
181
192
216
171
184
209
161
175
201
150
166
193
149
166
191
155
170
194
160
174
197
166
177
198
171
178
201
173
179
202
172
179
202
171
179
203
169
180
202
169
180
202
170
181
203
172
183
203
174
185
206
175
187
207
175
188
207
173
184
198
159
171
181
177
192
212
182
196
216
188
199
218
198
196
214
197
192
205
196
201
206
160
184
173
125
159
129
95
137
78
90
123
53
91
126
50
94
130
47
92
127
42
87
125
43
88
125
41
99
135
42
110
148
46
122
159
51
129
166
55
127
165
58
123
160
61
119
160
65
117
160
68
115
158
68
111
154
65
103
148
61
97
143
55
95
139
51
100
141
51
108
148
52
117
156
56
132
168
60
144
179
66
151
182
76
152
183
84
152
182
87
146
177
86
139
172
75
136
170
60
137
171
57
142
174
58
149
179
64
158
179
80
198
197
155
193
193
168
185
188
182
176
184
192
172
180
198
171
179
198
171
180
198
173
182
198
175
184
200
177
185
202
178
185
203
177
185
203
173
183
203
169
180
199
164
177
196
165
178
195
170
181
197
173
184
199
176
186
201
179
187
201
181
188
201
181
186
199
174
176
190
179
182
199
180
186
202
179
187
204
182
191
205
187
194
208
189
197
211
190
200
214
191
200
215
172
180
186
197
205
220
207
209
225
205
194
214
168
150
163
122
105
113
133
119
125
170
163
164
137
163
133
101
135
76
82
120
50
80
122
44
86
128
43
89
130
43
89
129
42
96
134
42
105
143
43
114
151
46
124
162
51
130
166
58
128
164
62
124
160
63
120
159
67
118
158
66
113
154
64
107
150
65
101
146
63
98
143
56
100
143
53
105
146
53
112
151
59
120
159
65
130
166
68
136
172
68
139
174
69
142
176
72
144
177
74
143
176
72
142
175
65
144
177
59
147
179
59
150
180
61
156
181
67
161
180
82
192
194
169
189
191
178
185
188
187
180
185
192
179
183
195
178
184
195
177
185
195
178
187
196
180
188
197
181
188
199
183
189
199
182
190
199
182
190
200
182
189
201
180
189
199
181
190
200
182
191
201
182
192
202
184
193
202
187
194
203
188
193
201
177
177
182
188
190
198
187
190
200
185
184
189
169
164
161
179
181
176
186
188
186
189
193
195
194
197
201
196
197
203
178
176
179
175
163
177
134
121
133
126
105
118
138
110
120
141
113
120
70
44
50
106
87
89
137
135
116
99
133
73
75
118
51
74
117
45
80
123
45
86
128
43
91
131
42
102
140
43
113
151
45
124
159
50
130
166
54
134
169
61
132
165
67
134
161
67
127
162
68
122
159
66
114
153
64
108
148
63
102
144
61
100
141
55
103
143
53
106
147
55
114
154
63
121
161
68
129
164
69
132
167
69
133
170
67
138
172
67
140
174
66
140
173
63
146
178
60
151
182
57
154
184
58
156
184
61
161
185
68
164
183
80
185
189
183
184
188
184
184
188
190
185
188
193
185
189
194
184
189
195
183
190
196
183
192
197
184
192
198
186
193
199
187
193
199
186
194
199
187
194
200
187
194
201
187
194
199
187
194
200
187
195
203
188
195
204
190
196
202
185
186
193
168
165
163
188
191
194
196
203
208
196
201
208
190
177
188
175
155
158
187
173
175
212
206
210
212
213
218
193
184
193
174
162
169
134
113
118
103
78
87
52
17
26
44
0
3
85
54
59
122
75
83
94
51
58
63
35
27
120
116
85
102
140
78
128
149
118
143
158
132
111
143
88
93
136
49
98
138
44
109
146
43
119
156
46
129
166
52
137
170
67
132
158
70
127
153
65
139
164
65
137
169
68
129
165
64
119
157
62
111
150
58
102
142
56
98
138
52
100
139
51
106
145
55
116
154
62
123
160
68
126
163
69
127
164
70
130
167
67
133
169
65
134
169
61
135
170
57
144
177
56
152
184
54
156
186
56
160
186
59
163
187
67
166
185
76
185
191
199
183
188
196
184
190
197
186
193
198
186
193
198
185
192
199
184
192
200
183
192
200
182
190
201
181
190
200
181
189
198
179
189
198
179
189
198
181
190
199
180
189
197
182
191
198
185
194
202
188
196
205
190
199
207
190
195
204
185
187
190
190
194
200
194
196
201
195
181
197
145
114
134
109
87
94
115
96
101
150
130
136
181
159
171
126
106
114
107
87
89
83
41
46
61
8
10
44
3
5
40
2
3
48
0
0
85
21
27
116
52
59
73
47
34
127
134
92
156
140
120
169
117
119
167
108
106
177
142
134
142
156
108
111
151
56
115
153
51
126
157
67
127
155
67
130
158
65
139
170
65
145
174
65
148
179
66
145
179
67
136
172
64
124
162
61
111
151
58
99
139
53
93
132
50
98
136
52
107
145
57
117
153
63
124
159
68
126
163
69
126
162
70
126
164
65
127
163
60
124
161
54
128
165
52
141
175
53
150
182
53
157
186
55
164
188
58
166
188
64
168
188
74
183
193
207
182
190
205
180
190
204
181
193
206
183
194
206
182
192
206
181
192
205
178
189
204
172
184
203
169
182
201
167
180
198
164
179
197
163
178
196
164
178
197
165
179
197
168
182
198
173
187
201
180
192
205
183
192
200
177
182
186
184
190
192
196
200
207
194
185
194
142
109
124
81
36
55
39
0
0
35
0
0
68
22
28
116
67
78
74
13
16
67
40
29
67
26
24
67
16
17
53
8
9
44
3
4
44
6
7
66
14
17
102
37
41
98
65
54
121
117
82
130
83
78
134
50
63
129
27
40
154
82
87
165
128
109
134
154
90
125
153
72
125
155
61
125
158
58
128
162
54
139
174
58
152
183
63
155
187
66
152
185
66
142
178
63
130
167
61
113
152
57
97
138
54
89
129
52
96
135
54
108
145
59
119
152
62
124
159
64
127
162
66
125
160
65
120
158
61
119
156
55
116
155
49
122
161
50
134
171
50
146
178
51
154
183
54
164
188
57
167
190
62
168
189
69
177
189
207
175
188
206
172
188
205
176
191
207
179
193
209
180
191
209
177
190
208
173
187
207
165
179
202
157
172
197
150
168
194
145
164
192
144
163
191
148
164
192
152
169
196
159
175
199
166
177
197
156
158
171
168
172
170
187
193
199
197
201
209
206
205
215
169
143
156
83
41
48
60
12
12
44
6
7
36
4
6
45
7
8
64
0
1
66
10
8
65
43
30
64
33
31
59
14
15
47
8
8
39
6
7
32
4
6
64
36
38
148
118
124
166
138
142
106
80
66
83
7
0
81
1
0
82
4
0
99
8
4
135
69
62
147
138
86
130
159
63
125
161
49
125
161
47
127
162
48
134
168
52
148
181
59
156
187
64
154
187
61
145
182
60
133
169
58
113
152
54
97
138
53
90
130
54
98
136
55
111
147
55
120
155
58
127
161
59
127
162
59
121
157
57
112
150
52
105
147
48
107
148
46
114
155
47
125
163
48
136
172
48
148
180
51
159
186
54
164
188
59
167
188
67
164
176
202
163
177
203
165
180
203
172
187
205
178
192
209
179
190
208
175
189
208
170
185
206
161
176
200
152
167
194
145
161
191
138
157
187
140
157
186
146
161
189
155
168
195
164
175
199
171
176
197
165
165
175
185
188
195
202
204
214
208
209
218
211
208
216
167
140
153
73
41
46
68
18
19
54
10
11
40
6
6
42
9
11
55
24
25
90
61
62
133
112
118
86
57
61
48
12
14
29
4
5
25
6
6
33
14
16
50
25
27
115
88
93
154
127
133
148
121
129
130
102
111
81
46
53
64
9
9
80
8
5
106
32
16
140
108
58
127
159
49
122
160
46
122
158
45
122
156
47
129
163
48
142
176
53
153
185
58
156
188
57
148
184
58
135
171
56
113
152
53
98
138
53
95
133
54
105
143
54
119
155
53
127
163
56
131
166
55
129
165
54
122
158
51
108
146
47
96
140
43
97
140
44
105
147
45
117
156
47
129
165
48
142
175
53
153
182
57
160
185
63
164
184
69
143
158
191
147
162
194
157
172
199
171
184
203
180
191
207
183
192
209
181
190
208
176
186
205
170
179
200
163
172
196
158
167
193
155
164
190
157
164
189
163
170
193
171
176
198
180
182
201
185
186
204
190
191
203
201
201
213
207
206
215
210
208
214
186
178
178
189
171
175
117
74
81
77
23
31
57
10
15
42
8
9
35
8
8
59
28
26
97
55
57
114
83
89
73
38
42
47
8
8
25
4
3
16
5
4
36
18
19
44
12
12
52
6
9
90
60
65
116
87
94
116
77
85
102
50
57
68
20
20
86
32
25
107
36
20
133
108
49
120
154
45
115
153
43
113
149
41
113
149
43
122
157
46
139
172
50
151
183
55
155
186
56
148
183
57
135
171
56
115
153
53
100
139
52
101
139
52
113
150
53
126
163
54
136
171
55
137
171
53
134
169
53
124
161
48
108
146
45
92
135
42
90
134
43
98
140
47
112
150
50
128
159
55
142
169
60
152
176
64
159
179
71
163
178
77
129
144
178
144
156
186
159
170
194
176
183
200
187
192
206
192
196
210
193
196
210
190
193
208
186
189
205
181
184
202
179
181
200
179
181
198
182
182
198
187
186
202
192
190
205
196
193
207
199
197
210
204
202
212
208
205
212
211
207
212
214
209
212
200
193
192
195
187
186
158
144
150
117
102
98
84
66
65
45
27
27
36
14
9
64
26
22
91
30
30
71
2
4
51
0
1
44
3
4
33
6
4
18
3
3
28
9
10
49
14
16
49
6
7
47
0
0
63
0
0
88
6
6
106
38
42
72
21
18
108
70
62
152
108
115
152
153
110
118
155
54
110
148
41
105
142
39
102
138
39
113
149
43
133
167
48
148
180
53
151
183
55
142
179
55
130
167
54
116
152
51
106
144
51
109
146
51
121
157
51
133
169
54
143
177
55
141
174
52
135
171
51
125
162
48
108
146
46
91
132
46
89
129
48
100
135
55
116
146
61
134
157
68
148
166
73
156
170
79
160
172
85
163
169
93
148
154
176
162
165
184
175
177
191
186
186
197
195
194
202
201
200
207
202
202
210
202
201
210
200
199
208
198
197
206
197
196
205
199
198
205
201
200
206
204
201
207
207
203
209
209
204
210
210
205
211
212
207
212
213
208
211
215
209
210
217
211
211
218
213
213
212
208
209
213
212
218
192
188
195
147
132
138
105
88
92
99
76
81
110
63
67
124
59
64
106
38
45
75
29
33
64
23
26
59
20
22
42
19
22
42
27
28
65
36
40
75
34
41
88
42
47
118
67
74
132
78
88
135
92
107
128
100
114
159
138
150
188
172
188
177
187
164
124
159
67
112
150
42
104
141
39
99
135
38
106
144
40
128
163
47
143
177
51
146
179
55
139
175
53
127
163
51
115
152
47
111
148
48
115
152
48
125
161
49
138
173
52
147
180
53
143
176
49
132
169
49
123
159
49
110
145
51
98
130
53
101
128
61
114
135
71
128
145
78
142
153
86
153
159
92
159
160
97
161
161
105
163
158
113
173
173
182
181
180
188
189
188
193
196
194
198
203
200
201
208
203
205
209
206
209
208
206
210
208
207
209
209
207
209
209
206
208
211
207
208
213
208
209
215
209
210
216
210
211
216
210
212
216
210
212
215
209
212
215
209
211
215
209
210
216
210
209
217
211
211
215
210
211
215
212
216
216
214
229
176
166
186
121
98
110
100
71
81
114
63
70
138
65
74
139
63
74
88
32
37
74
23
26
70
22
25
51
21
24
43
26
27
64
35
40
84
39
48
99
44
51
133
70
76
139
79
94
131
88
107
128
96
114
163
144
162
185
183
198
169
183
159
123
158
65
114
152
42
107
145
39
103
141
39
109
148
40
128
165
47
144
178
53
147
182
56
140
176
54
128
165
51
117
155
47
116
151
47
118
155
48
127
162
49
139
174
52
147
180
53
142
174
51
131
164
53
124
154
56
118
143
61
113
132
68
119
133
79
131
138
89
141
144
97
150
148
106
157
151
111
161
151
117
163
150
123
162
146
127
190
189
193
196
193
196
201
198
200
206
202
203
211
205
205
213
207
208
213
209
210
212
210
211
213
211
212
214
212
212
215
212
212
216
212
213
217
211
211
218
212
212
219
212
213
218
212
213
217
211
212
217
211
211
216
210
211
215
209
210
216
209
209
216
210
210
210
205
208
206
206
217
209
208
228
183
179
208
147
127
144
93
66
81
76
41
48
111
57
66
136
73
87
77
24
30
65
12
15
55
12
13
38
10
13
25
8
10
42
18
20
68
28
36
86
34
40
124
62
62
115
58
69
99
50
65
100
58
71
134
111
124
171
170
180
152
170
133
115
153
52
111
152
39
111
149
41
111
149
42
116
154
43
129
167
48
145
180
54
150
185
57
143
178
56
130
166
53
119
157
50
118
153
48
118
156
48
128
163
51
136
171
54
142
176
57
139
169
59
134
160
64
131
151
69
129
142
78
129
135
89
137
137
101
146
141
111
154
144
117
159
145
123
162
145
127
165
143
130
164
142
132
161
140
133
204
202
204
207
203
205
210
205
206
212
207
208
214
209
210
215
210
211
215
211
212
215
212
213
216
212
213
217
213
214
217
213
214
218
213
214
218
212
212
218
212
212
218
212
212
218
212
212
218
212
212
217
211
212
217
211
211
216
210
210
217
210
210
217
210
210
211
206
211
212
216
233
206
206
227
190
187
217
162
144
164
81
62
75
43
29
33
77
56
67
107
75
93
53
24
30
44
12
13
32
7
7
28
8
10
23
9
8
36
24
22
67
46
48
76
39
40
115
66
61
98
50
56
91
41
52
101
56
66
121
99
105
171
169
180
174
183
162
149
171
120
118
155
61
113
151
40
116
152
43
122
158
44
130
168
48
143
179
55
149
184
58
143
178
57
130
165
54
118
156
51
117
153
50
121
156
52
130
162
58
136
166
62
142
169
69
142
165
74
142
158
81
141
149
88
140
140
99
142
137
111
150
140
121
156
143
127
161
144
131
164
143
133
165
142
134
165
141
135
164
140
135
161
140
135
212
208
209
213
208
209
214
209
209
214
209
210
215
209
210
215
210
210
215
211
211
216
211
213
216
212
213
216
212
213
216
212
213
216
212
213
217
211
211
217
211
211
218
212
212
218
212
212
218
212
212
218
212
212
218
212
212
218
212
212
217
211
211
217
210
210
212
205
210
211
213
231
205
206
224
188
181
210
126
107
126
46
31
38
45
28
30
72
56
68
98
78
96
38
26
31
30
21
16
30
20
13
39
21
17
40
22
19
56
37
37
74
52
55
73
48
42
110
72
61
98
61
54
97
40
52
110
64
73
147
139
144
183
182
196
193
190
191
173
174
163
159
166
138
135
159
100
117
153
49
124
160
45
132
168
49
142
177
56
147
182
59
141
177
58
130
166
58
122
156
58
119
152
59
126
154
63
136
161
72
143
163
78
148
163
86
150
160
92
151
155
101
150
147
109
151
140
120
154
140
128
159
142
132
163
143
135
164
142
135
165
141
136
165
141
136
164
141
135
164
141
135
161
141
134
214
208
210
214
209
210
215
209
209
215
209
209
215
209
209
215
209
209
215
209
209
215
210
210
214
210
211
215
211
212
215
211
212
215
211
212
216
209
210
217
210
210
218
210
211
217
211
211
217
212
211
217
212
212
217
212
212
217
211
211
217
210
211
218
210
210
213
206
210
209
211
229
206
205
225
179
170
199
77
58
73
36
14
18
52
30
31
78
55
64
112
81
96
47
28
32
30
20
14
31
18
13
39
19
15
44
21
20
65
37
42
70
43
48
70
46
42
110
68
60
103
74
57
108
64
69
153
133
139
193
189
197
199
197
211
216
213
218
215
212
214
202
198
197
169
172
155
139
161
102
126
161
52
132
167
49
141
175
55
144
178
59
141
175
61
134
167
65
129
157
68
128
151
72
135
152
79
146
159
88
152
161
96
156
159
103
158
156
112
159
151
122
158
144
126
159
141
133
161
142
136
164
142
137
164
142
137
164
141
136
165
140
136
164
140
135
163
140
134
163
141
134
163
140
134
214
208
210
214
208
209
214
208
208
215
209
209
215
209
209
215
209
209
215
208
208
213
209
209
213
209
211
213
209
211
214
210
211
213
209
210
215
209
209
216
209
209
217
209
209
217
209
210
217
210
210
217
210
210
217
210
210
217
209
210
217
209
210
216
209
210
214
208
211
207
210
228
208
207
228
185
181
214
118
101
125
67
35
46
62
27
31
87
52
60
118
77
90
57
28
32
31
8
8
23
4
6
27
4
6
35
10
12
64
31
38
67
42
47
83
57
62
105
61
60
100
75
63
136
105
111
201
192
192
204
200
208
197
194
207
184
191
183
197
203
194
216
217
215
204
201
200
172
174
153
133
162
80
131
166
52
138
171
55
141
173
61
142
171
69
140
164
75
138
155
81
138
149
88
145
149
96
155
154
106
161
156
116
164
155
125
165
152
131
164
147
135
162
143
136
164
142
138
163
142
138
164
141
138
163
141
137
162
140
136
162
139
135
163
139
134
163
140
133
164
141
133
166
141
133
213
207
209
213
207
208
214
208
208
215
209
209
215
209
209
215
209
209
215
208
208
213
208
209
213
208
210
212
208
210
212
208
209
212
209
209
213
209
209
215
208
209
215
208
209
216
208
209
216
208
209
216
208
209
216
208
209
216
208
209
215
208
208
214
208
208
214
208
211
208
211
227
209
209
228
194
195
228
177
167
200
108
74
93
85
41
45
96
48
57
120
71
82
62
25
29
41
9
11
34
5
6
35
6
7
50
11
15
77
29
35
72
46
51
86
61
67
99
65
65
88
70
64
130
102
111
192
180
181
188
185
194
186
182
193
90
122
81
99
126
83
175
183
171
219
218
223
193
190
192
151
168
127
130
161
65
138
166
62
145
168
72
147
164
81
148
158
89
148
152
97
149
147
107
155
147
116
162
149
124
166
150
131
168
150
137
167
148
139
166
145
138
165
142
138
165
142
139
164
141
137
164
140
137
163
139
136
161
139
134
161
139
134
163
139
134
163
140
133
165
141
131
166
141
131
213
207
208
214
208
208
214
208
208
214
208
208
214
208
208
214
208
208
214
208
208
214
208
209
213
208
209
212
208
209
212
208
209
212
208
209
212
208
209
213
207
207
213
207
208
213
207
207
213
207
207
214
206
208
214
206
208
213
205
206
211
203
205
210
202
203
209
202
205
208
211
227
209
209
227
195
196
225
202
201
236
152
125
145
108
59
65
112
53
62
130
74
84
67
24
28
42
12
12
43
8
9
53
17
15
81
50
42
90
53
47
78
49
50
73
46
51
96
64
63
81
65
58
87
59
68
140
115
125
178
173
185
183
180
188
84
114
73
73
112
39
103
129
82
194
198
201
201
201
212
177
183
169
136
156
83
142
159
75
151
163
86
153
158
95
156
154
105
158
148
116
160
145
125
164
145
131
167
146
135
167
146
137
168
145
139
168
145
139
167
144
138
166
142
138
164
140
139
163
139
136
163
139
134
162
139
134
163
139
133
163
139
134
164
140
133
164
140
131
165
140
131
166
141
132
213
208
207
214
208
208
213
207
207
213
207
207
213
207
207
214
208
208
214
208
209
214
208
209
213
208
209
212
208
209
212
208
209
212
208
209
212
207
208
213
205
206
213
205
206
211
204
204
210
203
204
209
201
204
208
200
202
206
197
199
203
194
197
199
190
194
197
190
195
209
212
227
214
214
229
199
198
226
191
183
212
160
132
149
106
54
61
111
52
61
131
76
86
64
24
28
35
10
7
42
14
13
77
49
51
124
101
103
92
72
68
79
45
46
78
46
52
96
65
66
83
62
56
79
46
53
116
88
96
170
162
172
178
176
179
86
114
70
79
113
45
99
126
70
163
171
165
199
200
211
197
198
192
147
155
104
149
154
93
156
156
103
159
153
114
162
149
123
164
145
131
165
144
135
167
144
137
169
143
139
168
144
139
169
144
139
168
144
139
166
142
137
165
141
137
164
139
138
164
139
136
163
140
134
163
140
133
164
139
133
165
140
134
166
140
134
166
141
132
168
140
134
169
140
135
214
207
208
214
208
208
214
208
208
214
208
208
214
208
208
215
209
208
215
209
210
214
209
210
213
209
210
212
208
209
211
208
209
210
206
208
210
204
206
210
201
203
209
199
201
205
197
199
202
195
197
198
192
194
196
189
191
194
184
188
189
179
185
183
172
180
181
172
181
211
213
225
219
217
227
194
181
203
147
118
136
112
74
86
81
30
34
92
48
56
116
71
83
62
34
36
54
25
26
51
28
25
77
54
58
118
98
107
80
58
64
76
36
45
76
46
58
94
65
76
89
58
65
86
48
59
121
89
100
172
160
169
170
161
157
95
115
69
97
116
56
114
128
77
159
161
151
191
190
197
198
196
193
157
155
123
157
150
113
161
150
121
163
147
129
166
144
134
167
143
137
167
143
138
169
143
139
170
144
140
170
143
139
169
142
139
167
141
138
166
140
137
165
140
138
164
140
136
164
139
136
164
140
134
164
140
134
166
140
134
168
140
134
168
141
135
169
142
135
168
141
134
167
140
134
212
205
205
214
207
207
215
208
207
216
209
206
215
208
206
215
209
206
215
208
207
213
206
207
210
206
208
210
205
206
207
203
205
204
199
201
202
196
198
200
192
194
197
188
191
193
184
188
189
181
185
184
176
181
179
171
176
170
158
165
166
154
163
159
146
161
157
146
161
209
207
216
215
209
213
170
130
141
93
36
39
73
10
7
75
23
26
96
54
68
107
70
90
62
39
43
66
35
37
55
34
31
56
38
36
44
21
22
56
34
37
68
33
43
96
70
88
95
68
89
100
59
86
101
56
79
143
109
132
179
171
183
168
158
156
105
114
72
115
116
67
129
126
86
161
154
146
185
178
181
192
185
184
163
151
135
163
146
128
165
145
133
165
143
137
168
143
138
168
142
140
169
142
140
170
143
140
170
143
140
170
143
140
169
142
139
167
140
138
167
141
138
166
140
138
165
141
136
165
139
136
165
140
135
166
140
135
168
140
135
169
141
136
169
141
135
168
141
134
166
140
132
165
140
133
207
200
197
210
204
198
213
206
199
216
208
198
215
208
198
215
207
199
213
204
198
209
201
198
204
200
201
201
196
197
197
191
195
192
187
191
188
181
185
184
174
180
179
168
176
174
162
172
168
156
167
161
149
162
152
141
155
134
120
131
126
118
126
122
112
134
121
113
136
195
183
192
211
196
197
155
97
98
94
29
29
91
23
25
91
35
45
115
71
95
97
63
89
46
21
30
54
27
29
53
30
35
71
56
55
61
42
43
56
39
42
63
35
42
114
88
104
97
70
91
111
71
103
145
110
133
179
154
180
187
185
201
171
171
170
111
115
77
122
115
72
140
125
99
184
173
176
208
200
203
206
198
201
166
144
140
165
139
133
167
140
136
168
141
139
168
142
139
168
142
141
168
142
140
170
143
140
169
143
139
159
134
130
170
143
140
169
142
139
167
141
138
167
141
137
166
141
136
165
140
135
165
141
136
167
141
136
167
140
136
168
141
136
168
140
134
167
141
134
165
141
133
163
140
135
199
194
184
205
200
183
210
203
182
213
205
182
212
206
181
211
203
183
207
199
182
201
195
183
194
189
187
187
182
185
180
175
182
175
167
178
168
158
171
160
148
161
152
139
154
144
131
150
137
124
145
128
118
140
118
111
136
107
103
125
86
89
99
86
87
116
102
92
112
174
145
157
209
185
186
174
110
117
130
48
54
121
40
47
109
48
62
127
82
111
82
39
55
43
12
17
44
22
28
55
34
43
66
51
53
80
57
55
66
45
47
57
30
34
88
63
73
81
51
66
115
78
108
180
150
170
202
188
208
196
192
208
163
167
161
111
114
74
122
113
73
157
140
135
209
200
210
225
222
225
213
205
210
167
139
135
165
134
128
167
136
131
169
137
135
169
138
136
169
140
137
169
142
138
169
144
138
164
139
132
132
106
104
162
136
132
163
136
134
168
141
139
167
143
138
166
141
137
164
139
135
164
140
136
165
141
135
165
140
135
166
141
136
166
141
136
165
140
134
163
139
133
160
138
134
194
189
166
199
194
163
204
197
157
207
198
155
206
199
153
203
196
154
197
191
154
191
186
160
183
179
169
172
168
170
160
158
167
153
147
162
143
135
154
131
121
143
122
115
138
117
112
139
116
114
142
116
117
146
115
120
149
112
119
147
97
106
118
104
115
144
118
119
133
155
136
140
200
175
177
198
143
158
175
85
101
146
52
65
120
53
67
124
77
106
89
38
52
50
15
19
42
21
25
51
31
38
54
35
34
93
67
61
73
50
52
54
28
29
52
23
29
72
32
46
111
64
97
163
124
145
206
186
204
207
200
214
142
150
137
102
107
65
133
125
108
189
182
191
220
217
225
191
188
189
174
162
162
157
131
115
161
132
117
165
137
124
169
139
131
171
139
135
171
138
136
170
139
136
170
141
136
155
131
120
139
109
103
149
123
112
157
130
126
167
142
139
166
143
138
166
140
137
166
139
136
164
139
137
162
140
135
162
139
135
161
139
135
162
139
135
161
138
134
159
137
134
157
136
135
185
181
134
191
185
129
195
189
122
198
190
118
197
191
115
194
189
113
187
184
114
181
179
126
174
173
143
162
160
150
147
146
152
138
137
152
131
131
152
125
125
152
126
132
160
133
140
168
140
149
176
147
157
183
153
165
191
154
167
192
135
146
159
146
163
186
140
156
180
136
137
145
191
170
170
202
170
182
202
145
157
161
87
102
125
59
71
122
72
97
96
44
62
61
19
30
42
18
22
44
23
26
65
48
35
84
61
54
61
38
43
58
27
33
58
19
24
88
34
47
121
58
88
141
75
95
201
165
183
220
213
223
135
144
135
140
143
132
185
182
187
223
224
234
236
237
241
158
156
157
123
106
82
146
124
90
157
133
106
165
141
120
172
146
131
174
149
139
174
147
140
174
145
139
172
143
137
144
126
106
155
130
116
150
124
108
168
140
134
167
142
138
167
141
138
166
140
137
165
139
137
162
139
137
159
139
135
159
138
134
158
137
135
159
137
135
158
137
135
157
136
134
157
135
135
175
173
96
181
177
89
186
181
83
188
185
78
188
187
75
186
186
75
181
181
77
175
176
93
170
173
116
160
163
132
148
149
143
144
147
158
148
154
173
154
163
184
164
176
197
174
186
206
179
192
210
184
197
215
187
200
218
174
187
203
149
157
162
174
188
199
174
188
207
149
156
172
189
175
178
200
178
193
206
184
188
163
112
127
118
60
74
116
58
84
101
47
71
69
24
39
43
14
19
47
29
22
78
58
40
84
59
48
62
36
41
63
29
37
66
19
23
99
35
47
123
51
77
132
50
64
188
139
156
220
217
227
174
175
182
207
206
212
238
238
244
246
246
248
218
221
225
159
162
152
114
111
69
133
123
73
154
142
96
167
151
117
175
158
136
179
162
146
182
163
150
182
160
149
177
155
144
143
129
111
158
138
122
167
141
131
172
143
137
170
141
136
168
139
136
165
139
134
162
138
134
160
138
135
159
137
135
158
138
135
159
138
136
159
137
136
156
136
134
156
135
134
156
134
133
171
170
74
173
172
64
177
177
58
179
182
55
181
184
54
182
186
56
180
184
61
177
182
81
180
182
125
177
176
148
174
173
161
178
180
189
177
184
200
184
195
210
195
207
221
204
215
229
207
219
231
210
222
234
208
219
232
168
173
180
136
137
132
183
191
190
189
200
211
165
174
186
200
194
202
213
188
210
194
160
169
122
63
69
80
22
29
95
44
60
97
46
71
76
34
46
56
34
31
53
40
27
61
42
27
71
55
40
53
32
35
51
20
25
65
17
21
93
27
40
111
34
56
120
48
54
195
159
165
229
227
232
226
223
231
229
228
235
230
231
234
219
221
219
159
169
155
105
124
65
111
125
50
114
121
60
148
145
94
171
167
128
182
175
151
187
178
166
189
179
169
188
176
165
175
164
149
163
148
135
160
146
129
183
160
151
187
161
157
183
158
155
175
147
142
169
141
136
165
137
133
163
136
132
161
135
133
157
135
129
147
127
121
154
129
128
158
135
135
158
135
134
158
133
131
163
166
62
163
166
53
166
170
49
169
173
49
172
177
49
177
185
52
180
189
61
183
186
92
185
170
144
180
163
160
193
179
175
204
195
204
205
206
221
208
216
229
215
224
236
222
231
242
225
235
244
227
236
246
225
234
246
203
210
220
179
186
188
205
214
225
194
203
210
169
173
181
207
206
215
223
206
224
189
146
165
104
46
54
66
9
11
54
22
28
87
51
66
84
48
52
68
50
40
47
33
24
39
21
18
58
47
33
52
36
35
43
18
22
65
21
26
89
40
51
129
92
104
143
114
125
199
189
187
216
217
214
220
222
222
213
216
213
182
188
182
116
134
113
75
108
52
86
119
42
104
131
52
133
144
98
146
141
117
180
175
157
189
180
171
193
186
184
200
193
189
197
192
185
166
163
151
189
180
169
178
169
159
193
172
168
191
168
171
190
170
174
187
163
162
182
157
152
177
150
144
174
143
141
172
142
141
156
134
120
114
98
79
145
116
110
158
133
128
158
134
126
158
132
122
150
156
52
153
161
66
157
164
73
157
164
59
161
171
47
170
181
51
179
188
63
183
171
95
130
75
73
115
68
66
169
130
119
186
142
146
219
203
211
221
222
231
228
236
245
233
242
251
236
244
251
237
246
253
237
245
253
226
234
240
201
206
208
226
234
243
219
230
241
181
186
196
204
208
216
225
214
230
198
160
180
111
53
65
89
39
52
76
42
57
72
42
48
80
48
49
49
19
18
38
7
7
41
14
14
53
32
25
63
47
38
57
32
32
70
25
29
113
69
81
200
179
193
221
204
222
230
225
231
138
143
137
128
134
122
99
116
93
74
103
68
63
97
50
72
105
46
87
120
44
111
135
65
172
151
147
169
141
147
183
159
167
193
168
178
195
174
182
194
179
184
197
191
188
173
170
164
199
194
187
194
178
179
181
153
158
135
98
104
139
113
119
170
148
153
190
167
163
195
173
169
199
177
181
198
176
180
166
152
140
144
128
112
162
140
123
158
137
118
156
136
116
155
135
115
150
157
99
162
167
122
174
177
140
177
180
135
167
173
100
168
180
64
176
186
60
174
158
79
130
64
62
147
87
102
182
128
136
176
123
133
180
137
140
202
183
182
231
231
234
238
243
250
233
234
241
226
228
233
227
227
232
196
190
197
193
174
177
218
206
210
208
206
214
203
209
217
209
215
228
220
209
220
224
206
223
155
117
134
132
88
113
108
66
92
65
25
35
69
31
34
71
31
36
51
12
16
48
12
16
53
23
23
64
44
36
77
54
48
75
36
33
121
87
93
212
199
207
222
215
221
216
215
216
146
139
136
160
150
152
140
134
127
123
124
110
111
107
85
127
131
110
128
144
102
138
149
100
188
136
151
171
131
149
160
137
146
195
171
177
195
157
166
152
100
107
156
134
131
185
181
179
182
178
171
148
115
115
105
83
67
90
74
64
90
71
74
98
72
77
171
140
143
203
184
191
210
200
204
201
193
190
153
151
133
160
144
134
169
150
138
174
154
137
172
150
134
167
149
132
160
154
152
159
151
152
180
172
168
210
199
196
181
169
155
173
178
104
183
192
99
193
188
120
173
112
123
167
80
101
107
28
36
83
12
15
85
18
20
128
77
80
204
179
180
218
209
216
189
167
180
144
115
121
157
133
132
145
109
115
146
95
101
156
117
124
148
116
123
205
209
214
225
234
242
219
214
221
236
232
240
206
187
206
137
105
132
62
31
46
40
8
12
67
34
43
100
53
67
69
19
25
60
8
8
67
27
26
79
52
54
93
65
68
107
77
81
165
141
150
186
173
178
127
117
118
150
127
130
101
63
62
92
51
48
103
53
54
148
113
109
159
103
105
187
159
162
178
167
161
179
167
158
202
162
180
163
123
140
119
89
95
126
88
91
165
104
110
174
100
106
145
119
114
198
192
197
140
125
117
94
66
51
103
86
88
122
110
115
135
119
129
134
114
122
155
114
124
169
141
150
122
104
87
116
109
79
82
59
44
110
75
82
165
143
147
188
172
164
185
170
161
181
168
159
61
32
38
52
25
28
61
34
36
113
73
79
110
64
57
178
163
136
215
217
187
223
222
197
212
177
189
151
62
77
96
18
24
102
62
66
114
87
90
164
128
135
175
128
135
139
108
106
142
115
119
140
101
106
125
96
97
160
118
124
171
104
112
104
37
40
78
31
32
119
103
103
212
211
210
231
230
237
220
216
221
182
164
178
89
57
67
45
10
14
41
14
19
93
53
68
93
48
65
75
29
43
81
40
54
82
33
42
126
84
93
143
103
119
171
138
158
207
192
205
210
203
211
166
154
162
82
52
55
48
9
12
54
8
9
103
23
22
94
26
24
97
32
32
85
27
27
103
49
51
169
130
137
180
147
159
161
127
135
163
138
140
176
151
153
186
165
168
181
151
162
157
129
135
188
175
179
145
125
117
133
116
110
175
163
174
179
170
175
135
120
118
125
98
100
155
118
125
146
120
106
119
114
79
61
51
32
45
14
13
55
19
31
111
82
101
214
202
209
218
211
213
215
209
212
46
9
15
54
13
18
50
7
12
60
17
19
91
61
54
174
162
152
240
242
239
247
246
245
237
223
231
167
99
124
132
79
90
156
126
134
176
156
161
194
170
173
172
145
152
106
74
72
120
83
87
181
148
154
180
151
155
163
134
132
154
110
113
96
36
39
72
16
19
75
37
37
143
126
127
227
224
228
193
183
196
119
88
97
62
29
29
43
19
15
47
21
18
96
45
47
74
31
36
113
63
86
134
84
109
105
47
67
113
67
73
175
147
158
205
187
200
228
217
228
226
219
231
175
160
177
76
57
59
56
36
24
74
46
33
115
60
54
92
32
29
82
16
17
85
39
45
97
55
60
112
55
61
107
53
56
65
25
27
59
23
24
70
26
28
90
44
47
143
96
106
99
50
57
110
71
78
160
122
136
177
159
172
180
170
176
142
129
127
91
70
67
79
52
42
113
76
59
135
101
81
75
48
35
48
13
16
47
11
17
54
22
36
121
101
120
239
235
239
253
253
253
254
254
254
63
15
29
59
14
22
62
11
17
69
17
25
96
68
71
187
179
177
227
228
228
230
232
230
232
226
228
198
156
184
177
141
157
124
88
101
80
40
45
74
37
38
75
41
43
92
42
49
148
78
94
118
52
61
99
35
37
86
28
29
71
22
23
80
20
22
77
24
29
63
15
17
93
66
70
180
175
181
160
152
159
104
83
84
64
44
34
53
41
28
54
40
26
81
44
36
93
54
52
125
69
81
105
51
58
90
36
43
61
13
16
81
48
50
158
135
138
217
215
221
217
215
228
196
188
201
119
108
104
87
77
56
106
90
66
141
114
100
109
67
57
106
54
58
137
104
112
156
126
131
149
110
114
123
84
83
60
24
25
45
2
4
56
4
6
73
15
18
105
41
50
110
57
65
158
125
137
185
152
161
151
124
120
129
93
86
148
114
106
157
118
112
123
97
76
115
82
61
125
67
79
55
23
38
24
3
18
29
11
24
88
73
88
187
174
191
248
248
248
255
255
255
255
255
255
84
63
76
47
17
24
60
26
27
117
84
88
170
146
152
240
235
235
253
253
253
251
251
250
228
225
234
197
176
192
125
84
97
68
26
32
49
6
9
41
7
8
46
9
12
66
23
26
101
50
52
77
26
26
66
14
14
72
15
16
63
8
9
76
18
19
75
27
30
55
12
15
73
56
57
177
171
170
169
163
164
121
101
117
55
33
41
28
7
7
31
13
14
65
44
44
76
47
40
73
37
30
54
21
18
68
13
15
64
5
6
74
14
16
99
55
58
150
139
142
196
193
200
200
201
200
185
177
182
101
87
95
55
31
32
92
58
54
146
91
82
162
98
103
167
136
135
162
139
127
180
156
146
164
140
131
82
49
48
51
5
8
63
7
8
84
17
19
100
28
34
119
56
61
161
114
120
93
52
56
62
25
25
63
16
15
88
26
26
125
43
44
108
55
51
104
57
72
154
114
146
106
96
124
89
87
111
98
94
115
164
154
174
237
233
239
253
253
252
255
255
255
255
255
255
154
143
166
79
67
83
94
79
87
187
175
175
238
234
235
251
252
252
254
254
255
251
251
253
232
232
244
166
144
169
82
47
58
53
10
13
35
8
9
34
24
17
53
42
32
53
35
29
80
59
49
69
48
39
40
20
16
45
9
10
62
10
14
70
14
18
63
18
24
52
20
25
104
76
82
175
150
151
164
135
136
180
149
173
114
85
95
58
40
48
52
41
47
110
99
102
92
71
73
84
46
48
61
20
23
64
10
12
75
12
12
83
17
19
101
49
55
120
95
101
170
159
165
176
174
159
212
203
201
156
143
151
104
79
92
135
91
105
168
90
101
103
36
40
74
31
32
71
32
29
96
44
43
136
74
78
107
48
57
63
15
19
69
11
13
91
23
30
114
45
57
133
57
64
109
46
50
56
12
14
44
2
4
55
3
6
75
9
14
106
25
30
124
69
80
157
129
152
212
204
230
208
208
237
202
204
232
208
208
232
218
217
238
237
238
248
252
253
253
255
255
255
255
255
255
159
153
187
155
147
175
165
154
179
189
179
196
225
222
227
246
247
248
252
252
254
252
252
254
244
245
249
193
181
201
94
68
84
47
14
22
46
28
21
67
60
44
108
101
76
89
76
60
85
66
56
48
24
20
36
9
10
39
9
10
49
11
13
63
27
32
52
18
23
85
52
58
190
140
152
205
134
140
187
105
109
207
148
156
192
143
146
137
100
118
101
81
107
135
122
133
128
102
113
126
100
110
67
36
49
54
12
23
57
12
16
82
40
49
142
108
122
150
131
139
149
143
135
157
150
136
189
180
193
187
175
194
182
165
186
161
133
151
130
62
70
77
17
20
47
3
4
51
3
5
71
11
14
95
27
31
111
42
50
56
13
18
55
14
19
100
54
67
153
105
124
126
59
66
78
21
23
46
5
7
44
6
8
60
9
13
79
14
20
111
39
52
154
114
133
211
202
214
241
240
246
242
244
251
242
244
251
242
243
250
240
244
251
243
247
252
251
253
253
253
254
255
253
254
255
224
227
242
225
226
242
227
229
243
231
231
245
235
238
247
244
246
251
250
251
253
251
251
253
249
248
253
233
230
239
144
132
154
67
55
57
88
70
50
89
77
62
74
58
51
70
36
42
65
27
34
47
16
22
31
10
14
29
10
13
47
25
28
94
67
76
78
46
53
129
68
74
174
85
91
171
109
116
127
52
58
110
42
44
121
52
55
163
102
121
126
103
160
112
101
163
111
97
154
104
86
140
86
66
109
73
55
85
75
57
81
112
86
110
162
136
163
172
152
173
144
131
135
119
108
109
198
193
201
218
215
225
226
224
232
222
215
225
153
118
125
86
34
38
55
8
11
50
8
10
60
10
12
86
24
30
121
61
76
82
57
73
86
65
81
146
117
135
199
177
196
142
106
114
78
35
39
49
10
13
43
9
11
54
10
16
85
37
47
142
97
118
184
163
191
199
188
209
228
226
239
241
242
250
242
244
251
242
244
251
243
244
249
244
246
251
245
249
253
247
250
253
248
250
253
237
240
248
238
240
249
239
241
249
241
242
250
241
243
250
244
247
252
248
249
252
248
249
253
246
248
252
234
236
245
188
187
201
121
118
106
85
82
66
59
48
52
83
56
72
86
58
77
85
60
77
79
58
74
68
54
71
66
53
70
74
56
73
86
65
82
101
77
96
139
74
95
132
39
42
113
37
36
77
13
13
64
3
4
81
14
14
126
53
66
150
120
167
138
135
195
135
134
192
134
130
186
136
129
181
140
133
180
149
140
183
163
150
190
173
163
196
172
165
191
164
155
177
164
155
175
208
204
217
225
224
234
234
235
243
237
236
245
208
192
202
121
91
98
64
30
35
46
9
11
60
16
20
104
62
72
172
134
158
175
156
185
182
165
193
201
184
208
222
210
229
206
190
197
112
91
96
46
24
28
33
8
12
54
25
32
131
99
114
220
200
214
235
233
241
237
234
241
241
240
246
243
244
250
243
245
250
244
246
250
245
246
249
245
246
250
244
249
252
245
249
252
246
250
253
238
241
250
240
241
250
239
242
249
240
242
250
239
242
251
241
243
250
243
245
251
242
244
251
237
239
249
205
203
223
110
105
113
112
101
115
105
93
120
101
89
113
116
101
122
138
121
146
149
134
165
148
137
172
144
135
173
143
132
173
146
132
174
156
142
183
173
160
198
173
138
171
123
50
60
95
20
18
61
5
5
52
3
4
70
11
12
112
53
65
180
156
190
177
172
216
176
175
217
178
177
217
179
179
216
182
180
215
183
180
214
187
184
215
189
185
213
189
185
212
185
182
207
196
195
213
214
213
226
226
225
237
234
236
246
242
242
251
243
241
247
208
196
203
113
90
98
43
20
25
67
42
48
176
143
157
232
219
233
235
231
242
236
232
243
240
237
246
245
243
248
229
228
231
176
168
172
78
62
66
46
23
28
74
50
57
173
151
160
231
225
228
247
245
247
245
244
249
244
244
249
244
245
249
244
245
249
243
245
249
244
247
249
245
248
251
244
248
251
245
247
250
244
246
250
